<svg fill="none" height="100%" width="100%" viewBox="0 0 1000 1000" xmlns:xlink="http://www.w3.org/1999/xlink" xmlns="http://www.w3.org/2000/svg"><g id="i0"><g transform="translate(501.221,546.562)"><animateTransform repeatCount="indefinite" type="translate" attributeName="transform" dur="3s" begin="0s" calcMode="spline" values="501.221 546.562; 501.221 546.562; 593.221 433.85; 593.221 433.85" keyTimes="0; 0.433333; 0.488889; 1" keySplines="0 0 1 1; 0 0 1 1; 0 0 1 1" fill="freeze" /><g transform="scale(1,1) translate(-236.363,-221.911)"><g id="i1" transform="matrix(1,0,0,1,236.363,221.911)"><path stroke-linejoin="round" stroke-linecap="round" stroke-width="7.99" stroke="#474747" fill="#97cd78" d="M216.388,-52.297C216.388,-52.297,-93.704,201.936,-93.704,201.936C-93.704,201.936,-216.388,52.297,-216.388,52.297C-216.388,52.297,93.704,-201.936,93.704,-201.936C93.704,-201.936,216.388,-52.297,216.388,-52.297Z" /></g><g id="i2" transform="matrix(1,0,0,1,222.505,235.713)"><path fill="#f6f9ea" d="M171.333,-102.947C171.333,-102.947,132.046,-150.757,132.046,-150.757C113.401,-135.441,85.967,-138.238,70.651,-156.883C70.651,-156.883,-171.333,41.551,-171.333,41.551C-171.333,41.551,-76.777,156.883,-76.777,156.883C-76.777,156.883,165.207,-41.551,165.207,-41.551C149.892,-60.063,152.688,-87.632,171.333,-102.947Z" /></g><g id="i3" transform="matrix(1,0,0,1,222.505,235.713)"><path stroke-linejoin="round" stroke-linecap="round" stroke-width="7.991" stroke="#474747" d="M171.333,-102.947C171.333,-102.947,132.046,-150.757,132.046,-150.757C113.401,-135.441,85.967,-138.238,70.651,-156.883C70.651,-156.883,-171.333,41.551,-171.333,41.551C-171.333,41.551,-76.777,156.883,-76.777,156.883C-76.777,156.883,165.207,-41.551,165.207,-41.551C149.892,-60.063,152.688,-87.632,171.333,-102.947Z" /></g><g id="i4" transform="matrix(1,0,0,1,236.237,221.957)"><path stroke-linejoin="round" stroke-linecap="round" stroke-width="7.99" stroke="#474747" d="M90.615,-170.731C90.615,-170.731,185.182,-55.385,185.182,-55.385C185.182,-55.385,-90.615,170.73,-90.615,170.73C-90.615,170.73,-185.182,55.385,-185.182,55.385C-185.182,55.385,90.615,-170.731,90.615,-170.731Z" /></g><g id="i5" transform="matrix(1,0,0,1,260.127,202.02)"><path fill="#97cd78" d="M0.001,-45.68C25.23,-45.68,45.681,-25.228,45.681,0C45.681,25.228,25.23,45.68,0.001,45.68C-25.228,45.68,-45.681,25.228,-45.681,0C-45.681,-25.228,-25.228,-45.68,0.001,-45.68Z" /></g><g id="i6" transform="matrix(1,0,0,1,260.127,202.02)"><path stroke-linejoin="round" stroke-linecap="round" stroke-width="7.991" stroke="#474747" d="M0.001,-45.68C25.23,-45.68,45.681,-25.228,45.681,0C45.681,25.228,25.23,45.68,0.001,45.68C-25.228,45.68,-45.681,25.228,-45.681,0C-45.681,-25.228,-25.228,-45.68,0.001,-45.68Z" /></g><g id="i7" transform="matrix(1,0,0,1,142.598,258.087)"><path fill="#474747" d="M122.59,-104.012C122.59,-127.718,113.667,-149.292,99.151,-165.806C99.151,-165.806,-122.723,16.114,-122.723,16.114C-122.723,16.114,0.067,165.806,0.067,165.806C0.067,165.806,122.723,65.258,122.723,65.258C122.723,65.258,122.723,-104.012,122.723,-104.012C122.723,-104.012,122.59,-104.012,122.59,-104.012Z" /></g><g id="i8" transform="matrix(1,0,0,1,142.598,258.087)"><path stroke-linejoin="round" stroke-linecap="round" stroke-width="7.991" stroke="#474747" d="M122.59,-104.012C122.59,-127.718,113.667,-149.292,99.151,-165.806C99.151,-165.806,-122.723,16.114,-122.723,16.114C-122.723,16.114,0.067,165.806,0.067,165.806C0.067,165.806,122.723,65.258,122.723,65.258C122.723,65.258,122.723,-104.012,122.723,-104.012C122.723,-104.012,122.59,-104.012,122.59,-104.012Z" /></g></g></g></g><g opacity="0" visibility="hidden" id="i9"><animate repeatCount="indefinite" begin="0s" calcMode="discrete" dur="3s" values="hidden; visible; visible" keyTimes="0; 0.122; 1" attributeName="visibility" /><animate repeatCount="indefinite" attributeName="opacity" dur="3s" begin="0s" fill="freeze" values="0; 0; 1; 1" keyTimes="0; 0.555556; 0.577778; 1" keySplines="0 0 1 1; 0 0 1 1; 0 0 1 1" calcMode="spline" /><g transform="translate(411.934,508.603)"><animateTransform repeatCount="indefinite" type="translate" attributeName="transform" dur="3s" begin="0s" calcMode="spline" values="411.934 508.603; 411.934 508.603; 503.934 395.892; 503.934 395.892" keyTimes="0; 0.555556; 0.611111; 1" keySplines="0 0 1 1; 0 0 1 1; 0 0 1 1" fill="freeze" /><g transform="scale(1,1) translate(-194.808,-242.603)"><g id="i3" transform="matrix(1,0,0,1,194.808,242.603)"><path stroke-linejoin="round" stroke-linecap="round" stroke-width="7.991" stroke="#474747" fill="#77ba85" d="M174.831,-137.831C174.831,-137.831,-0.887,222.626,-0.887,222.626C-0.887,222.626,-174.831,137.831,-174.831,137.831C-174.831,137.831,0.887,-222.626,0.887,-222.626C0.887,-222.626,174.831,-137.831,174.831,-137.831Z" /></g><g id="i4" transform="matrix(1,0,0,1,185.271,252.014)"><path fill="#f6f9ea" d="M115.532,-156.218C115.532,-156.218,59.864,-183.385,59.864,-183.385C49.343,-161.677,23.24,-152.754,1.532,-163.276C1.532,-163.276,-135.641,117.995,-135.641,117.995C-135.641,117.995,-1.531,183.386,-1.531,183.386C-1.531,183.386,135.641,-97.885,135.641,-97.885C113.933,-108.406,104.878,-134.51,115.532,-156.218Z" /></g><g id="i5" transform="matrix(1,0,0,1,185.271,252.014)"><path stroke-linejoin="round" stroke-linecap="round" stroke-width="7.991" stroke="#474747" d="M115.532,-156.218C115.532,-156.218,59.864,-183.385,59.864,-183.385C49.343,-161.677,23.24,-152.754,1.532,-163.276C1.532,-163.276,-135.641,117.995,-135.641,117.995C-135.641,117.995,-1.531,183.386,-1.531,183.386C-1.531,183.386,135.641,-97.885,135.641,-97.885C113.933,-108.406,104.878,-134.51,115.532,-156.218Z" /></g><g id="i6" transform="matrix(1,0,0,1,194.83,242.539)"><path stroke-linejoin="round" stroke-linecap="round" stroke-width="7.991" stroke="#474747" d="M11.103,-192.977C11.103,-192.977,145.181,-127.615,145.181,-127.615C145.181,-127.615,-11.103,192.978,-11.103,192.978C-11.103,192.978,-145.181,127.616,-145.181,127.616C-145.181,127.616,11.103,-192.977,11.103,-192.977Z" /></g><g id="i7" transform="matrix(1,0,0,1,208.111,214.458)"><path fill="#77ba85" d="M0,-45.68C25.228,-45.68,45.68,-25.228,45.68,0C45.68,25.228,25.228,45.68,0,45.68C-25.229,45.68,-45.68,25.228,-45.68,0C-45.68,-25.228,-25.229,-45.68,0,-45.68Z" /></g><g id="i8" transform="matrix(1,0,0,1,208.111,214.458)"><path stroke-linejoin="round" stroke-linecap="round" stroke-width="7.991" stroke="#474747" d="M0,-45.68C25.228,-45.68,45.68,-25.228,45.68,0C45.68,25.228,25.228,45.68,0,45.68C-25.229,45.68,-45.68,25.228,-45.68,0C-45.68,-25.228,-25.229,-45.68,0,-45.68Z" /></g></g></g></g><g transform="matrix(1,0,0,1,216.632,293.078)" id="i10"><g id="i11" transform="matrix(1,0,0,1,257.034,239.721)"><path fill="#f58870" d="M-237.056,139.837C-237.056,139.837,-237.056,-139.837,-237.056,-139.837C-237.056,-183.919,-201.231,-219.743,-157.149,-219.743C-157.149,-219.743,157.15,-219.743,157.15,-219.743C201.232,-219.743,237.057,-183.919,237.057,-139.837C237.057,-139.837,237.057,139.837,237.057,139.837C237.057,183.918,201.232,219.743,157.15,219.743C157.15,219.743,-157.149,219.743,-157.149,219.743C-201.365,219.743,-237.056,184.052,-237.056,139.837Z" /></g><g id="i12" transform="matrix(1,0,0,1,67.988,239.721)"><path fill="#dd7868" d="M-31.896,139.837C-31.896,139.837,-31.896,-139.837,-31.896,-139.837C-31.896,-183.919,3.929,-219.743,48.011,-219.743C48.011,-219.743,31.895,-219.743,31.895,-219.743C-12.187,-219.743,-48.011,-183.919,-48.011,-139.837C-48.011,-139.837,-48.011,139.837,-48.011,139.837C-48.011,183.918,-12.187,219.743,31.895,219.743C31.895,219.743,48.011,219.743,48.011,219.743C3.929,219.743,-31.896,184.052,-31.896,139.837Z" /></g><g id="i13" transform="matrix(1,0,0,1,448.81,239.721)"><path fill="#ffa399" d="M45.281,139.837C45.281,139.837,45.281,-139.837,45.281,-139.837C45.281,-183.919,12.385,-219.743,-28.101,-219.743C-28.101,-219.743,-45.281,-219.743,-45.281,-219.743C-4.795,-219.743,28.1,-183.919,28.1,-139.837C28.1,-139.837,28.1,139.837,28.1,139.837C28.1,183.918,-4.795,219.743,-45.281,219.743C-45.281,219.743,-28.101,219.743,-28.101,219.743C12.385,219.743,45.281,184.052,45.281,139.837Z" /></g><g id="i14" transform="matrix(1,0,0,1,396.537,250.376)"><path fill="#474747" d="M-97.552,35.958C-97.552,35.958,-97.552,-35.958,-97.552,-35.958C-97.552,-49.143,-86.766,-59.93,-73.581,-59.93C-73.581,-59.93,73.581,-59.93,73.581,-59.93C86.765,-59.93,97.552,-49.143,97.552,-35.958C97.552,-35.958,97.552,59.93,97.552,59.93C97.552,59.93,-73.581,59.93,-73.581,59.93C-86.766,59.93,-97.552,49.275,-97.552,35.958Z" /></g><g id="i15" transform="matrix(1,0,0,1,396.537,250.376)"><path stroke-linejoin="round" stroke-linecap="round" stroke-width="7.991" stroke="#474747" d="M-97.552,35.958C-97.552,35.958,-97.552,-35.958,-97.552,-35.958C-97.552,-49.143,-86.766,-59.93,-73.581,-59.93C-73.581,-59.93,73.581,-59.93,73.581,-59.93C86.765,-59.93,97.552,-49.143,97.552,-35.958C97.552,-35.958,97.552,59.93,97.552,59.93C97.552,59.93,-73.581,59.93,-73.581,59.93C-86.766,59.93,-97.552,49.275,-97.552,35.958Z" /></g><g id="i16" transform="matrix(1,0,0,1,257.034,239.721)"><path stroke-linejoin="round" stroke-linecap="round" stroke-width="7.991" stroke="#474747" d="M-237.056,139.837C-237.056,139.837,-237.056,-139.837,-237.056,-139.837C-237.056,-183.919,-201.231,-219.743,-157.149,-219.743C-157.149,-219.743,157.15,-219.743,157.15,-219.743C201.232,-219.743,237.057,-183.919,237.057,-139.837C237.057,-139.837,237.057,139.837,237.057,139.837C237.057,183.918,201.232,219.743,157.15,219.743C157.15,219.743,-157.149,219.743,-157.149,219.743C-201.365,219.743,-237.056,184.052,-237.056,139.837Z" /></g><g id="i17" transform="matrix(1,0,0,1,257.034,239.722)"><path stroke-linejoin="round" stroke-linecap="round" stroke-width="5.327" stroke="#474747" d="M-155.152,-190.445C-155.152,-190.445,155.152,-190.445,155.152,-190.445C183.12,-190.445,205.76,-167.804,205.76,-139.837C205.76,-139.837,205.76,139.837,205.76,139.837C205.76,167.804,183.12,190.445,155.152,190.445C155.152,190.445,-155.019,190.445,-155.019,190.445C-182.986,190.445,-205.626,167.804,-205.626,139.837C-205.626,139.837,-205.626,-139.837,-205.626,-139.837C-205.759,-167.804,-183.119,-190.445,-155.152,-190.445Z" /></g><g id="i18" transform="matrix(1,0,0,1,418.845,239.722)"><path fill="#f79765" d="M-105.21,35.958C-105.21,35.958,-105.21,-35.958,-105.21,-35.958C-105.21,-49.143,-94.423,-59.93,-81.238,-59.93C-81.238,-59.93,81.238,-59.93,81.238,-59.93C94.423,-59.93,105.21,-49.143,105.21,-35.958C105.21,-35.958,105.21,35.958,105.21,35.958C105.21,49.143,94.423,59.93,81.238,59.93C81.238,59.93,-81.238,59.93,-81.238,59.93C-94.423,59.93,-105.21,49.275,-105.21,35.958Z" /></g><g id="i19" transform="matrix(1,0,0,1,331.147,239.722)"><path fill="#e27444" d="M-6.459,35.958C-6.459,35.958,-6.459,-35.958,-6.459,-35.958C-6.459,-49.143,4.328,-59.93,17.513,-59.93C17.513,-59.93,6.459,-59.93,6.459,-59.93C-6.726,-59.93,-17.513,-49.143,-17.513,-35.958C-17.513,-35.958,-17.513,35.958,-17.513,35.958C-17.513,49.143,-6.726,59.93,6.459,59.93C6.459,59.93,17.513,59.93,17.513,59.93C4.328,59.93,-6.459,49.275,-6.459,35.958Z" /></g><g id="i1" transform="matrix(1,0,0,1,507.542,239.722)"><path fill="#ffb797" d="M16.514,35.958C16.514,35.958,16.514,-35.958,16.514,-35.958C16.514,-49.143,5.726,-59.93,-7.459,-59.93C-7.459,-59.93,-16.514,-59.93,-16.514,-59.93C-3.33,-59.93,7.457,-49.143,7.457,-35.958C7.457,-35.958,7.457,35.958,7.457,35.958C7.457,49.143,-3.33,59.93,-16.514,59.93C-16.514,59.93,-7.459,59.93,-7.459,59.93C5.726,59.93,16.514,49.275,16.514,35.958Z" /></g><g id="i2" transform="matrix(1,0,0,1,418.845,239.722)"><path stroke-linejoin="round" stroke-linecap="round" stroke-width="7.991" stroke="#474747" d="M-105.21,35.958C-105.21,35.958,-105.21,-35.958,-105.21,-35.958C-105.21,-49.143,-94.423,-59.93,-81.238,-59.93C-81.238,-59.93,81.238,-59.93,81.238,-59.93C94.423,-59.93,105.21,-49.143,105.21,-35.958C105.21,-35.958,105.21,35.958,105.21,35.958C105.21,49.143,94.423,59.93,81.238,59.93C81.238,59.93,-81.238,59.93,-81.238,59.93C-94.423,59.93,-105.21,49.275,-105.21,35.958Z" /></g><g id="i3" transform="matrix(1,0,0,1,378.892,243.717)"><path fill="#474747" d="M30.897,0C30.897,17.064,17.064,30.897,0.001,30.897C-17.064,30.897,-30.897,17.064,-30.897,0C-30.897,-17.064,-17.064,-30.897,0.001,-30.897C17.064,-30.897,30.897,-17.064,30.897,0Z" /></g><g id="i4" transform="matrix(1,0,0,1,378.892,243.717)"><path stroke-linejoin="round" stroke-linecap="round" stroke-width="7.991" stroke="#474747" d="M30.897,0C30.897,17.064,17.064,30.897,0.001,30.897C-17.064,30.897,-30.897,17.064,-30.897,0C-30.897,-17.064,-17.064,-30.897,0.001,-30.897C17.064,-30.897,30.897,-17.064,30.897,0Z" /></g><g id="i5" transform="matrix(1,0,0,1,418.845,239.721)"><path stroke-linejoin="round" stroke-linecap="round" stroke-width="5.327" stroke="#474747" d="M-89.229,-35.958C-89.229,-40.353,-85.633,-43.949,-81.238,-43.949C-81.238,-43.949,81.239,-43.949,81.239,-43.949C85.633,-43.949,89.229,-40.353,89.229,-35.958C89.229,-35.958,89.229,35.959,89.229,35.959C89.229,40.354,85.633,43.949,81.239,43.949C81.239,43.949,-81.238,43.949,-81.238,43.949C-85.633,43.949,-89.229,40.354,-89.229,35.959C-89.229,35.959,-89.229,-35.958,-89.229,-35.958Z" /></g><g id="i6" transform="matrix(1,0,0,1,386.882,239.722)"><path fill="#8f6d5d" d="M30.898,0C30.898,17.063,17.064,30.897,0,30.897C-17.065,30.897,-30.898,17.063,-30.898,0C-30.898,-17.064,-17.065,-30.897,0,-30.897C17.064,-30.897,30.898,-17.064,30.898,0Z" /></g><g id="i7" transform="matrix(1,0,0,1,386.882,239.722)"><path stroke-linejoin="round" stroke-linecap="round" stroke-width="7.991" stroke="#474747" d="M30.898,0C30.898,17.063,17.064,30.897,0,30.897C-17.065,30.897,-30.898,17.063,-30.898,0C-30.898,-17.064,-17.065,-30.897,0,-30.897C17.064,-30.897,30.898,-17.064,30.898,0Z" /></g><g id="i8" transform="matrix(1,0,0,1,400.786,236.925)"><path fill="#fffcee" d="M1.945,15.848C-3.117,16.913,-6.313,10.921,-8.177,2.131C-9.909,-6.792,-10.174,-14.783,-5.913,-15.848C-1.784,-16.914,6.073,-10.921,8.603,-2.131C11.133,6.792,6.872,14.783,1.945,15.848Z" /></g></g><g id="i20"><g transform="translate(704.337,-40.048)"><animateTransform repeatCount="indefinite" type="translate" attributeName="transform" dur="3s" begin="0s" calcMode="spline" values="704.337 -40.048; 704.337 739.952; 704.337 739.952" keyTimes="0; 0.244444; 1" keySplines="1 0 0.667 1; 0 0 1 1" fill="freeze" /><g transform="scale(1,1) translate(-76.312,-32.962)"><g id="i5" transform="matrix(1,0,0,1,76.312,32.963)"><path fill="#fdb740" d="M-56.334,3.263C-56.334,3.263,-56.334,-3.262,-56.334,-3.262C-56.334,-8.59,-51.939,-12.985,-46.612,-12.985C-46.612,-12.985,46.612,-12.985,46.612,-12.985C51.939,-12.985,56.334,-8.59,56.334,-3.262C56.334,-3.262,56.334,3.263,56.334,3.263C56.334,8.59,51.939,12.985,46.612,12.985C46.612,12.985,-46.612,12.985,-46.612,12.985C-51.939,12.985,-56.334,8.723,-56.334,3.263Z" /></g><g id="i6" transform="matrix(1,0,0,1,76.311,29.5)"><path fill="#fff3c0" d="M-56.334,2.997C-56.334,2.997,-56.334,6.726,-56.334,6.726C-56.334,1.398,-51.939,-2.996,-46.612,-2.996C-46.612,-2.996,46.612,-2.996,46.612,-2.996C51.939,-2.996,56.335,1.398,56.335,6.726C56.335,6.726,56.335,2.997,56.335,2.997C56.335,-2.33,51.939,-6.726,46.612,-6.726C46.612,-6.726,-46.612,-6.726,-46.612,-6.726C-51.939,-6.726,-56.334,-2.33,-56.334,2.997Z" /></g><g id="i7" transform="matrix(1,0,0,1,76.312,36.292)"><path fill="#f29e25" d="M-56.334,-2.997C-56.334,-2.997,-56.334,-6.725,-56.334,-6.725C-56.334,-1.398,-51.939,2.997,-46.612,2.997C-46.612,2.997,46.612,2.997,46.612,2.997C51.939,2.997,56.334,-1.398,56.334,-6.725C56.334,-6.725,56.334,-2.997,56.334,-2.997C56.334,2.33,51.939,6.725,46.612,6.725C46.612,6.725,-46.612,6.725,-46.612,6.725C-51.939,6.725,-56.334,2.463,-56.334,-2.997Z" /></g><g id="i8" transform="matrix(1,0,0,1,76.312,32.963)"><path stroke-linejoin="round" stroke-linecap="round" stroke-width="7.991" stroke="#474747" d="M-56.334,3.263C-56.334,3.263,-56.334,-3.262,-56.334,-3.262C-56.334,-8.59,-51.939,-12.985,-46.612,-12.985C-46.612,-12.985,46.612,-12.985,46.612,-12.985C51.939,-12.985,56.334,-8.59,56.334,-3.262C56.334,-3.262,56.334,3.263,56.334,3.263C56.334,8.59,51.939,12.985,46.612,12.985C46.612,12.985,-46.612,12.985,-46.612,12.985C-51.939,12.985,-56.334,8.723,-56.334,3.263Z" /></g></g></g></g><g visibility="hidden" id="i21"><animate repeatCount="indefinite" begin="0s" calcMode="discrete" dur="3s" values="hidden; visible; visible" keyTimes="0; 0.033; 1" attributeName="visibility" /><g transform="translate(688.754,-65.884)"><animateTransform repeatCount="indefinite" type="translate" attributeName="transform" dur="3s" begin="0s" calcMode="spline" values="688.754 -65.884; 688.754 -65.884; 688.754 714.116; 688.754 714.116" keyTimes="0; 0.033333; 0.277778; 1" keySplines="0 0 1 1; 1 0 0.667 1; 0 0 1 1" fill="freeze" /><g transform="scale(1,1) translate(-76.312,-32.962)"><g id="i5" transform="matrix(1,0,0,1,76.312,32.963)"><path fill="#fdb740" d="M-56.334,3.263C-56.334,3.263,-56.334,-3.263,-56.334,-3.263C-56.334,-8.591,-51.939,-12.985,-46.612,-12.985C-46.612,-12.985,46.612,-12.985,46.612,-12.985C51.938,-12.985,56.334,-8.591,56.334,-3.263C56.334,-3.263,56.334,3.263,56.334,3.263C56.334,8.59,51.938,12.985,46.612,12.985C46.612,12.985,-46.612,12.985,-46.612,12.985C-51.939,12.985,-56.2,8.723,-56.334,3.263Z" /></g><g id="i6" transform="matrix(1,0,0,1,76.312,29.5)"><path fill="#fff3c0" d="M-56.335,2.996C-56.335,2.996,-56.335,6.725,-56.335,6.725C-56.335,1.398,-51.939,-2.997,-46.612,-2.997C-46.612,-2.997,46.612,-2.997,46.612,-2.997C51.938,-2.997,56.334,1.398,56.334,6.725C56.334,6.725,56.334,2.996,56.334,2.996C56.334,-2.331,51.938,-6.726,46.612,-6.726C46.612,-6.726,-46.612,-6.726,-46.612,-6.726C-51.939,-6.726,-56.201,-2.331,-56.335,2.996Z" /></g><g id="i7" transform="matrix(1,0,0,1,76.312,36.292)"><path fill="#f29e25" d="M-56.334,-2.997C-56.334,-2.997,-56.334,-6.726,-56.334,-6.726C-56.334,-1.398,-51.939,2.996,-46.612,2.996C-46.612,2.996,46.612,2.996,46.612,2.996C51.938,2.996,56.334,-1.398,56.334,-6.726C56.334,-6.726,56.334,-2.997,56.334,-2.997C56.334,2.33,51.938,6.726,46.612,6.726C46.612,6.726,-46.612,6.726,-46.612,6.726C-51.939,6.726,-56.2,2.464,-56.334,-2.997Z" /></g><g id="i8" transform="matrix(1,0,0,1,76.312,32.963)"><path stroke-linejoin="round" stroke-linecap="round" stroke-width="7.991" stroke="#474747" d="M-56.334,3.263C-56.334,3.263,-56.334,-3.263,-56.334,-3.263C-56.334,-8.591,-51.939,-12.985,-46.612,-12.985C-46.612,-12.985,46.612,-12.985,46.612,-12.985C51.938,-12.985,56.334,-8.591,56.334,-3.263C56.334,-3.263,56.334,3.263,56.334,3.263C56.334,8.59,51.938,12.985,46.612,12.985C46.612,12.985,-46.612,12.985,-46.612,12.985C-51.939,12.985,-56.2,8.723,-56.334,3.263Z" /></g></g></g></g><g visibility="hidden" id="i22"><animate repeatCount="indefinite" begin="0s" calcMode="discrete" dur="3s" values="hidden; visible; visible" keyTimes="0; 0.089; 1" attributeName="visibility" /><g transform="translate(704.337,-91.721)"><animateTransform repeatCount="indefinite" type="translate" attributeName="transform" dur="3s" begin="0s" calcMode="spline" values="704.337 -91.721; 704.337 -91.721; 704.337 688.279; 704.337 688.279" keyTimes="0; 0.088889; 0.333333; 1" keySplines="0 0 1 1; 1 0 0.667 1; 0 0 1 1" fill="freeze" /><g transform="scale(1,0.939) translate(-76.312,-32.962)"><g id="i5" transform="matrix(1,0,0,1,76.312,32.962)"><path fill="#fdb740" d="M-56.334,3.263C-56.334,3.263,-56.334,-3.262,-56.334,-3.262C-56.334,-8.59,-51.939,-12.985,-46.612,-12.985C-46.612,-12.985,46.612,-12.985,46.612,-12.985C51.939,-12.985,56.334,-8.59,56.334,-3.262C56.334,-3.262,56.334,3.263,56.334,3.263C56.334,8.59,51.939,12.985,46.612,12.985C46.612,12.985,-46.612,12.985,-46.612,12.985C-51.939,12.985,-56.334,8.723,-56.334,3.263Z" /></g><g id="i6" transform="matrix(1,0,0,1,76.311,29.633)"><path fill="#fff3c0" d="M-56.334,2.997C-56.334,2.997,-56.334,6.726,-56.334,6.726C-56.334,1.398,-51.939,-2.996,-46.612,-2.996C-46.612,-2.996,46.612,-2.996,46.612,-2.996C51.939,-2.996,56.335,1.398,56.335,6.726C56.335,6.726,56.335,2.997,56.335,2.997C56.335,-2.33,51.939,-6.725,46.612,-6.725C46.612,-6.725,-46.612,-6.725,-46.612,-6.725C-51.939,-6.725,-56.334,-2.463,-56.334,2.997Z" /></g><g id="i7" transform="matrix(1,0,0,1,76.312,36.425)"><path fill="#f29e25" d="M-56.334,-2.997C-56.334,-2.997,-56.334,-6.725,-56.334,-6.725C-56.334,-1.397,-51.939,2.996,-46.612,2.996C-46.612,2.996,46.612,2.996,46.612,2.996C51.939,2.996,56.334,-1.397,56.334,-6.725C56.334,-6.725,56.334,-2.997,56.334,-2.997C56.334,2.33,51.939,6.725,46.612,6.725C46.612,6.725,-46.612,6.725,-46.612,6.725C-51.939,6.725,-56.334,2.33,-56.334,-2.997Z" /></g><g id="i8" transform="matrix(1,0,0,1,76.312,32.962)"><path stroke-linejoin="round" stroke-linecap="round" stroke-width="7.991" stroke="#474747" d="M-56.334,3.263C-56.334,3.263,-56.334,-3.262,-56.334,-3.262C-56.334,-8.59,-51.939,-12.985,-46.612,-12.985C-46.612,-12.985,46.612,-12.985,46.612,-12.985C51.939,-12.985,56.334,-8.59,56.334,-3.262C56.334,-3.262,56.334,3.263,56.334,3.263C56.334,8.59,51.939,12.985,46.612,12.985C46.612,12.985,-46.612,12.985,-46.612,12.985C-51.939,12.985,-56.334,8.723,-56.334,3.263Z" /></g></g></g></g><g visibility="hidden" id="i23"><animate repeatCount="indefinite" begin="0s" calcMode="discrete" dur="3s" values="hidden; visible; visible" keyTimes="0; 0.256; 1" attributeName="visibility" /><g transform="translate(704.525,-19.4)"><animateTransform repeatCount="indefinite" type="translate" attributeName="transform" dur="3s" begin="0s" calcMode="spline" values="704.525 -19.4; 704.525 -19.4; 726.525 647.957; 726.525 647.957" keyTimes="0; 0.255556; 0.377778; 1" keySplines="0 0 1 1; 1 0 0.667 1; 0 0 1 1" fill="freeze" /><g transform="rotate(-58)"><animateTransform repeatCount="indefinite" type="rotate" attributeName="transform" dur="3s" begin="0s" calcMode="spline" values="-58; -58; -5; -5" keyTimes="0; 0.377778; 0.388889; 1" keySplines="0 0 1 1; 0.333 0 0.833 1; 0 0 1 1" fill="freeze" /><g transform="scale(1,1) translate(0,0)"><g id="i5" transform="matrix(1,0,0,1,64.859,66.989)"><path fill="#fdb740" d="M-40.885,-38.888C-40.885,-38.888,-36.225,-43.283,-36.225,-43.283C-32.23,-47.012,-26.103,-46.745,-22.507,-42.883C-22.507,-42.883,41.152,25.172,41.152,25.172C44.882,29.167,44.615,35.293,40.753,38.889C40.753,38.889,36.092,43.284,36.092,43.284C32.096,47.012,25.969,46.747,22.374,42.884C22.374,42.884,-41.285,-25.169,-41.285,-25.169C-44.882,-29.165,-44.614,-35.159,-40.885,-38.888Z" /></g><g id="i6" transform="matrix(1,0,0,1,65.36,66.595)"><path fill="#fff3c0" d="M-38.591,-41.024C-38.591,-41.024,-41.387,-38.494,-41.387,-38.494C-37.392,-42.222,-31.266,-41.957,-27.67,-38.094C-27.67,-38.094,35.989,29.959,35.989,29.959C39.718,33.955,39.452,40.081,35.59,43.677C35.59,43.677,38.387,41.147,38.387,41.147C42.248,37.417,42.382,31.291,38.786,27.429C38.786,27.429,-24.873,-40.625,-24.873,-40.625C-28.469,-44.487,-34.595,-44.753,-38.591,-41.024Z" /></g><g id="i7" transform="matrix(1,0,0,1,63.993,67.789)"><path fill="#f29e25" d="M-37.888,-41.684C-37.888,-41.684,-35.092,-44.215,-35.092,-44.215C-38.953,-40.486,-39.087,-34.36,-35.492,-30.497C-35.492,-30.497,28.168,37.556,28.168,37.556C31.897,41.419,38.022,41.551,41.884,37.956C41.884,37.956,39.089,40.486,39.089,40.486C35.093,44.215,28.966,43.949,25.371,40.087C25.371,40.087,-38.288,-27.967,-38.288,-27.967C-41.885,-31.83,-41.617,-37.955,-37.888,-41.684Z" /></g><g id="i8" transform="matrix(1,0,0,1,64.859,66.989)"><path stroke-linejoin="round" stroke-linecap="round" stroke-width="7.991" stroke="#474747" d="M-40.885,-38.888C-40.885,-38.888,-36.225,-43.283,-36.225,-43.283C-32.23,-47.012,-26.103,-46.745,-22.507,-42.883C-22.507,-42.883,41.152,25.172,41.152,25.172C44.882,29.167,44.615,35.293,40.753,38.889C40.753,38.889,36.092,43.284,36.092,43.284C32.096,47.012,25.969,46.747,22.374,42.884C22.374,42.884,-41.285,-25.169,-41.285,-25.169C-44.882,-29.165,-44.614,-35.159,-40.885,-38.888Z" /></g></g></g></g></g></svg>