<svg fill="none" height="100%" width="100%" viewBox="0 0 300 300" xmlns:xlink="http://www.w3.org/1999/xlink" xmlns="http://www.w3.org/2000/svg"><g id="i0"><g transform="translate(42,264)"><g transform="scale(1,0)"><animateTransform repeatCount="indefinite" type="scale" attributeName="transform" dur="5s" begin="0s" calcMode="spline" values="1 0; 1 1; 1 1" keyTimes="0; 0.2; 1" keySplines="0 0 1 1; 0 0 1 1" fill="freeze" /><g transform="translate(-42,-264)"><g id="i1" transform="matrix(1,0,0,1,68.063,224.503)"><path fill="#ae2414" d="M-5.217,-35.331C-5.217,-35.331,5.217,-39.821,5.217,-39.821C5.217,-39.821,5.217,35.107,5.217,35.107C5.217,35.107,-5.217,39.822,-5.217,39.822C-5.217,39.822,-5.217,-35.331,-5.217,-35.331Z" /></g><g id="i2" transform="matrix(1,0,0,1,42.703,226.591)"><path fill="#ea3120" d="M-20.167,-37.464C-20.167,-37.464,20.167,-37.464,20.167,-37.464C20.167,-37.464,20.167,37.464,20.167,37.464C20.167,37.464,-20.167,37.464,-20.167,37.464C-20.167,37.464,-20.167,-37.464,-20.167,-37.464Z" /></g><g id="i3" transform="matrix(1,0,0,1,47.898,187.076)"><path fill="#ff595e" d="M-14.951,-2.301C-14.951,-2.301,25.301,-2.301,25.301,-2.301C25.301,-2.301,14.952,2.302,14.952,2.302C14.952,2.302,-25.301,2.302,-25.301,2.302C-25.301,2.302,-14.951,-2.301,-14.951,-2.301Z" /></g></g></g></g></g><g id="i4"><g transform="translate(105,264)"><g transform="scale(1,0)"><animateTransform repeatCount="indefinite" type="scale" attributeName="transform" dur="5s" begin="0s" calcMode="spline" values="1 0; 1 0; 1 1; 1 1" keyTimes="0; 0.1; 0.3; 1" keySplines="0 0 1 1; 0 0 1 1; 0 0 1 1" fill="freeze" /><g transform="translate(-105,-264)"><g id="i1" transform="matrix(1,0,0,1,129.707,198.91)"><path fill="#6f8bbb" d="M-5.217,-58.038C-5.217,-58.038,5.217,-65.414,5.217,-65.414C5.217,-65.414,5.217,57.669,5.217,57.669C5.217,57.669,-5.217,65.414,-5.217,65.414C-5.217,65.414,-5.217,-58.038,-5.217,-58.038Z" /></g><g id="i2" transform="matrix(1,0,0,1,104.346,202.339)"><path fill="#7c9cd6" d="M-20.167,-61.542C-20.167,-61.542,20.168,-61.542,20.168,-61.542C20.168,-61.542,20.168,61.542,20.168,61.542C20.168,61.542,-20.167,61.542,-20.167,61.542C-20.167,61.542,-20.167,-61.542,-20.167,-61.542Z" /></g><g id="i3" transform="matrix(1,0,0,1,109.541,137.428)"><path fill="#9bb8ec" d="M-14.951,-3.781C-14.951,-3.781,25.301,-3.781,25.301,-3.781C25.301,-3.781,14.951,3.781,14.951,3.781C14.951,3.781,-25.301,3.781,-25.301,3.781C-25.301,3.781,-14.951,-3.781,-14.951,-3.781Z" /></g></g></g></g></g><g id="i5"><g transform="translate(171,262)"><g transform="scale(1,0)"><animateTransform repeatCount="indefinite" type="scale" attributeName="transform" dur="5s" begin="0s" calcMode="spline" values="1 0; 1 0; 1 1; 1 1" keyTimes="0; 0.193333; 0.393333; 1" keySplines="0 0 1 1; 0 0 1 1; 0 0 1 1" fill="freeze" /><g transform="translate(-171,-262)"><g id="i1" transform="matrix(1,0,0,1,195.154,187.012)"><path fill="#d9aa25" d="M-5.217,-68.596C-5.217,-68.596,5.217,-77.313,5.217,-77.313C5.217,-77.313,5.217,68.16,5.217,68.16C5.217,68.16,-5.217,77.313,-5.217,77.313C-5.217,77.313,-5.217,-68.596,-5.217,-68.596Z" /></g><g id="i2" transform="matrix(1,0,0,1,169.794,191.065)"><path fill="#facb3f" d="M-20.167,-72.737C-20.167,-72.737,20.167,-72.737,20.167,-72.737C20.167,-72.737,20.167,72.737,20.167,72.737C20.167,72.737,-20.167,72.737,-20.167,72.737C-20.167,72.737,-20.167,-72.737,-20.167,-72.737Z" /></g><g id="i3" transform="matrix(1,0,0,1,174.989,114.346)"><path fill="#f9d65b" d="M-14.951,-4.468C-14.951,-4.468,25.301,-4.468,25.301,-4.468C25.301,-4.468,14.95,4.468,14.95,4.468C14.95,4.468,-25.301,4.468,-25.301,4.468C-25.301,4.468,-14.951,-4.468,-14.951,-4.468Z" /></g></g></g></g></g><g id="i6"><g transform="translate(237,262)"><g transform="scale(1,0)"><animateTransform repeatCount="indefinite" type="scale" attributeName="transform" dur="5s" begin="0s" calcMode="spline" values="1 0; 1 0; 1 1; 1 1" keyTimes="0; 0.3; 0.5; 1" keySplines="0 0 1 1; 0 0 1 1; 0 0 1 1" fill="freeze" /><g transform="translate(-237,-262)"><g id="i1" transform="matrix(1,0,0,1,261.858,170.623)"><path fill="#3fa05e" d="M-5.217,-83.136C-5.217,-83.136,5.217,-93.701,5.217,-93.701C5.217,-93.701,5.217,82.609,5.217,82.609C5.217,82.609,-5.217,93.701,-5.217,93.701C-5.217,93.701,-5.217,-83.136,-5.217,-83.136Z" /></g><g id="i2" transform="matrix(1,0,0,1,236.497,175.535)"><path fill="#3eb365" d="M-20.167,-88.155C-20.167,-88.155,20.168,-88.155,20.168,-88.155C20.168,-88.155,20.168,88.155,20.168,88.155C20.168,88.155,-20.167,88.155,-20.167,88.155C-20.167,88.155,-20.167,-88.155,-20.167,-88.155Z" /></g><g id="i3" transform="matrix(1,0,0,1,241.693,82.554)"><path fill="#85ca97" d="M-14.95,-5.415C-14.95,-5.415,25.302,-5.415,25.302,-5.415C25.302,-5.415,14.951,5.415,14.951,5.415C14.951,5.415,-25.301,5.415,-25.301,5.415C-25.301,5.415,-14.95,-5.415,-14.95,-5.415Z" /></g></g></g></g></g><g opacity="0" id="i7"><animate repeatCount="indefinite" attributeName="opacity" dur="5s" begin="0s" fill="freeze" values="0; 0; 1; 1" keyTimes="0; 0.1; 0.2; 1" keySplines="0 0 1 1; 0 0 1 1; 0 0 1 1" calcMode="spline" /><g transform="translate(150,150) scale(0.857,1) translate(0,0)"><g id="i8"><path d="M-122.5,32C-122.5,32,-88.667,-48,-42.914,45.51C-38.2,55.144,-29.167,24,39.253,73.137C119.985,131.116,100.667,56,100.667,56" stroke-width="7" stroke="#0862c8"><animate repeatCount="indefinite" attributeName="d" dur="5s" begin="0s" calcMode="spline" values="M-122.5,32C-122.5,32,-88.667,-48,-42.914,45.51C-38.2,55.144,-29.167,24,39.253,73.137C119.985,131.116,100.667,56,100.667,56; M-122.5,32C-122.5,32,-88.667,-48,-42.914,45.51C-38.2,55.144,-29.167,24,39.253,73.137C119.985,131.116,100.667,56,100.667,56; M-122.5,32C-122.5,32,-88.667,-48,-42.914,45.51C-38.2,55.144,-40.833,-91,27.587,-41.863C108.319,16.116,100.667,101,100.667,101; M-122.5,32C-122.5,32,-116.667,-109,-43.789,-11.74C-38.342,-2.635,-36.167,-19,32.253,30.137C112.985,88.116,107.667,108,107.667,108; M-122.5,32C-122.5,32,-115.111,-102,-44.664,-15.657C-38.484,-7.08,-31.889,-85,36.531,-35.863C117.263,22.116,114.667,25,114.667,25; M-122.5,32C-122.5,32,-113.555,-95,-45.539,-19.574C-38.626,-11.525,-36.361,-88,32.059,-38.863C112.791,19.116,110,-67.5,110,-67.5; M-122.5,32C-122.5,32,-112,-88,-46.414,-23.49C-38.768,-15.969,-40.833,-91,27.587,-41.863C108.319,16.116,112.333,-114,112.333,-114; M-122.5,32C-122.5,32,-112,-88,-46.414,-23.49C-38.768,-15.969,-40.833,-91,27.587,-41.863C108.319,16.116,112.333,-114,112.333,-114" keyTimes="0; 0.106667; 0.2; 0.3; 0.4; 0.5; 0.6; 1" keySplines="0 0 1 1; 0 0 1 1; 0 0 1 1; 0 0 1 1; 0 0 1 1; 0 0 1 1; 0 0 1 1" fill="freeze" /></path></g></g></g><g opacity="0" id="i9"><animate repeatCount="indefinite" attributeName="opacity" dur="5s" begin="0s" fill="freeze" values="0; 0; 1; 1" keyTimes="0; 0.506667; 0.7; 1" keySplines="0 0 1 1; 0 0 1 1; 0 0 1 1" calcMode="spline" /><g transform="translate(150,150) scale(1,1) translate(0,0)"><g id="i8"><path d="M60.75,-100.25C60.75,-100.25,79.125,-105.75,79.125,-105.75C79.125,-105.75,96.75,-111.25,96.75,-111.25" stroke-width="7" stroke="#0862c8"><animate repeatCount="indefinite" attributeName="d" dur="5s" begin="0s" calcMode="spline" values="M60.75,-100.25C60.75,-100.25,79.125,-105.75,79.125,-105.75C79.125,-105.75,96.75,-111.25,96.75,-111.25; M60.75,-100.25C60.75,-100.25,79.125,-105.75,79.125,-105.75C79.125,-105.75,96.75,-111.25,96.75,-111.25; M60.75,-100.25C60.75,-100.25,95.375,-111.75,95.375,-111.75C95.375,-111.75,119.375,-106.375,119.375,-106.375; M67.75,-91.25C67.75,-91.25,95.375,-111.75,95.375,-111.75C95.375,-111.75,121.25,-85.375,121.25,-85.375; M67.75,-91.25C67.75,-91.25,95.375,-111.75,95.375,-111.75C95.375,-111.75,121.25,-85.375,121.25,-85.375" keyTimes="0; 0.6; 0.7; 0.8; 1" keySplines="0 0 1 1; 0 0 1 1; 0 0 1 1; 0 0 1 1" fill="freeze" /></path></g></g></g></svg>