<svg fill="none" height="100%" width="100%" viewBox="0 0 1080 1080" xmlns:xlink="http://www.w3.org/1999/xlink" xmlns="http://www.w3.org/2000/svg"><defs><clipPath id="i0"><rect height="1080" width="1080" y="0" x="0" /></clipPath><g id="i1"><g transform="matrix(1,0,0,1,540,540)" id="i2"><g id="i3"><rect ry="20" rx="20" height="20" width="400" y="-10" x="-200" stroke-width="0" stroke="#ffffff" fill="#000000" /></g></g><g transform="matrix(1,0,0,1,750,402)" id="i4"><g id="i3" transform="matrix(0.707,0.707,-0.707,0.707,-80,74.5)"><rect ry="20" rx="20" height="20" width="200" y="-10" x="-100" stroke-width="0" stroke="#ffffff" fill="#000000" /></g></g><g transform="matrix(1,0,0,1,749.5,529)" id="i5"><g id="i3" transform="matrix(0.707,-0.707,0.707,0.707,-80,74.5)"><rect ry="20" rx="20" height="20" width="200" y="-10" x="-100" stroke-width="0" stroke="#ffffff" fill="#000000" /></g></g></g></defs><g id="i6"><g transform="translate(540,640)"><animateTransform repeatCount="indefinite" type="translate" attributeName="transform" dur="2s" begin="0s" calcMode="spline" values="540 640; 540 540; 540 640; 540 540; 540 640" keyTimes="0; 0.25; 0.5; 0.75; 1" keySplines="0.333 0 0.667 1; 0.333 0 0.667 1; 0.333 0 0.667 1; 0.333 0 0.667 1" fill="freeze" /><g transform="rotate(90) scale(1,1) translate(-540,-540)"><g clip-path="url(#i0)"><g transform="matrix(1,0,0,1,540,540)"><g><rect ry="20" rx="20" height="20" width="400" y="-10" x="-200" stroke-width="0" stroke="#ffffff" fill="#000000" /></g></g><g transform="matrix(1,0,0,1,750,402)"><g transform="matrix(0.707,0.707,-0.707,0.707,-80,74.5)"><rect ry="20" rx="20" height="20" width="200" y="-10" x="-100" stroke-width="0" stroke="#ffffff" fill="#000000" /></g></g><g transform="matrix(1,0,0,1,749.5,529)"><g transform="matrix(0.707,-0.707,0.707,0.707,-80,74.5)"><rect ry="20" rx="20" height="20" width="200" y="-10" x="-100" stroke-width="0" stroke="#ffffff" fill="#000000" /></g></g></g></g></g></g></svg>