<svg fill="none" height="100%" width="100%" viewBox="0 0 600 600" xmlns:xlink="http://www.w3.org/1999/xlink" xmlns="http://www.w3.org/2000/svg"><g id="i0"><g transform="translate(301.608,292.849)"><g transform="rotate(0)"><animateTransform repeatCount="indefinite" type="rotate" attributeName="transform" dur="6s" begin="0s" calcMode="spline" values="0; 10; 0; 0" keyTimes="0; 0.5; 0.993333; 1" keySplines="0.4 0 0.6 1; 0.4 0 0.6 1; 0 0 1 1" fill="freeze" /><g transform="scale(1,1) translate(-295.507,-275.098)"><g id="i1" transform="matrix(1,0,0,1,295.507,275.098)"><path d="M-282.978,137.359C-295.257,92.293,-291.924,41.898,-278.926,-3.618C-250.158,-104.361,-177.086,-191.585,-82.942,-237.559C-38.199,-259.409,45.275,-274.848,59.644,-206.929C63.361,-189.36,59.543,-169.702,68.794,-154.311C80.002,-135.668,105.687,-131.644,127.124,-135.339C156.165,-140.346,182.55,-153.411,212.764,-146.335C272.992,-132.228,295.257,-62.901,285.016,-8.366C279.045,23.422,264.186,52.951,246.245,79.862C193.983,158.253,114.294,217.033,25.517,248.574C-21.971,265.445,-72.97,274.848,-122.955,268.426C-172.939,262.004,-221.86,238.549,-252.816,198.783C-267.12,180.408,-276.938,159.528,-282.978,137.359Z" fill="#2be1d4"><animate repeatCount="indefinite" attributeName="d" dur="6s" begin="0s" calcMode="spline" values="M-282.978,137.359C-295.257,92.293,-291.924,41.898,-278.926,-3.618C-250.158,-104.361,-177.086,-191.585,-82.942,-237.559C-38.199,-259.409,45.275,-274.848,59.644,-206.929C63.361,-189.36,59.543,-169.702,68.794,-154.311C80.002,-135.668,105.687,-131.644,127.124,-135.339C156.165,-140.346,182.55,-153.411,212.764,-146.335C272.992,-132.228,295.257,-62.901,285.016,-8.366C279.045,23.422,264.186,52.951,246.245,79.862C193.983,158.253,114.294,217.033,25.517,248.574C-21.971,265.445,-72.97,274.848,-122.955,268.426C-172.939,262.004,-221.86,238.549,-252.816,198.783C-267.12,180.408,-276.938,159.528,-282.978,137.359Z; M-282.978,137.359C-295.257,92.293,-289.924,13.898,-276.926,-31.618C-248.158,-132.361,-194.086,-191.585,-99.942,-237.559C-55.199,-259.409,36.275,-270.848,50.644,-202.929C54.361,-185.36,46.543,-160.702,55.794,-145.311C67.002,-126.668,97.687,-127.644,119.124,-131.339C148.165,-136.346,180.55,-145.411,210.764,-138.335C270.992,-124.228,290.257,-63.901,280.016,-9.366C274.045,22.422,273.098,57.573,235.245,107.862C197.392,158.151,122.642,210.997,65.517,235.574C8.392,260.151,-68.97,266.848,-118.955,260.426C-168.939,254.004,-221.86,238.549,-252.816,198.783C-267.12,180.408,-276.938,159.528,-282.978,137.359Z; M-282.978,137.359C-295.257,92.293,-291.924,41.898,-278.926,-3.618C-250.158,-104.361,-177.086,-191.585,-82.942,-237.559C-38.199,-259.409,45.275,-274.848,59.644,-206.929C63.361,-189.36,59.543,-169.702,68.794,-154.311C80.002,-135.668,105.687,-131.644,127.124,-135.339C156.165,-140.346,182.55,-153.411,212.764,-146.335C272.992,-132.228,295.257,-62.901,285.016,-8.366C279.045,23.422,264.186,52.951,246.245,79.862C193.983,158.253,114.294,217.033,25.517,248.574C-21.971,265.445,-72.97,274.848,-122.955,268.426C-172.939,262.004,-221.86,238.549,-252.816,198.783C-267.12,180.408,-276.938,159.528,-282.978,137.359Z; M-282.978,137.359C-295.257,92.293,-291.924,41.898,-278.926,-3.618C-250.158,-104.361,-177.086,-191.585,-82.942,-237.559C-38.199,-259.409,45.275,-274.848,59.644,-206.929C63.361,-189.36,59.543,-169.702,68.794,-154.311C80.002,-135.668,105.687,-131.644,127.124,-135.339C156.165,-140.346,182.55,-153.411,212.764,-146.335C272.992,-132.228,295.257,-62.901,285.016,-8.366C279.045,23.422,264.186,52.951,246.245,79.862C193.983,158.253,114.294,217.033,25.517,248.574C-21.971,265.445,-72.97,274.848,-122.955,268.426C-172.939,262.004,-221.86,238.549,-252.816,198.783C-267.12,180.408,-276.938,159.528,-282.978,137.359Z" keyTimes="0; 0.5; 0.993333; 1" keySplines="0.4 0 0.6 1; 0.4 0 0.6 1; 0 0 1 1" fill="freeze" /></path></g></g></g></g></g><g transform="matrix(1,0,0,1,107.285,76.377)" id="i2"><g id="i3" transform="matrix(1,0,0,1,180.41,239.858)"><path stroke-miterlimit="10" stroke-linecap="round" stroke-width="6" stroke="#192424" fill="#ffffff" d="M138.46,197.908C138.46,197.908,-138.46,197.908,-138.46,197.908C-138.46,197.908,-138.46,-197.908,-138.46,-197.908C-138.46,-197.908,138.46,-197.908,138.46,-197.908C138.46,-197.908,138.46,197.908,138.46,197.908Z" /></g><g id="i4" transform="matrix(1,0,0,1,161.185,220.632)"><path stroke-miterlimit="10" stroke-linecap="round" stroke-width="6" stroke="#192424" fill="#ffffff" d="M138.46,197.908C138.46,197.908,-138.46,197.908,-138.46,197.908C-138.46,197.908,-138.46,-197.908,-138.46,-197.908C-138.46,-197.908,138.46,-197.908,138.46,-197.908C138.46,-197.908,138.46,197.908,138.46,197.908Z" /></g><g id="i5" transform="matrix(1,0,0,1,141.288,200.736)"><path stroke-miterlimit="10" stroke-linecap="round" stroke-width="6" stroke="#192424" fill="#ffffff" d="M138.46,197.907C138.46,197.907,-138.46,197.907,-138.46,197.907C-138.46,197.907,-138.46,-197.907,-138.46,-197.907C-138.46,-197.907,138.46,-197.907,138.46,-197.907C138.46,-197.907,138.46,197.907,138.46,197.907Z" /></g><g id="i6" transform="matrix(1,0,0,1,77.848,303.366)"><path stroke-miterlimit="10" stroke-width="6" stroke="#192424" d="M-30.477,-50.733C-30.477,-50.733,30.477,-50.733,30.477,-50.733C30.477,-50.733,30.477,50.733,30.477,50.733C30.477,50.733,-30.477,50.733,-30.477,50.733C-30.477,50.733,-30.477,-50.733,-30.477,-50.733Z" /></g><g id="i7" transform="matrix(1,0,0,1,138.802,303.366)"><path stroke-miterlimit="10" stroke-width="6" stroke="#192424" d="M-30.477,-50.733C-30.477,-50.733,30.477,-50.733,30.477,-50.733C30.477,-50.733,30.477,50.733,30.477,50.733C30.477,50.733,-30.477,50.733,-30.477,50.733C-30.477,50.733,-30.477,-50.733,-30.477,-50.733Z" /></g><g id="i8" transform="matrix(1,0,0,1,199.755,303.366)"><path stroke-miterlimit="10" stroke-width="6" stroke="#192424" d="M-30.477,-50.733C-30.477,-50.733,30.477,-50.733,30.477,-50.733C30.477,-50.733,30.477,50.733,30.477,50.733C30.477,50.733,-30.477,50.733,-30.477,50.733C-30.477,50.733,-30.477,-50.733,-30.477,-50.733Z" /></g><g id="i9" transform="matrix(1,0,0,1,99.406,161.305)"><path d="M-10.407,46.606C-10.407,46.606,10.407,46.606,10.407,46.606C10.407,46.606,10.407,-46.606,10.407,-46.606C10.407,-46.606,-10.407,-46.606,-10.407,-46.606C-10.407,-46.606,-10.407,46.606,-10.407,46.606Z" fill="#2be1d4"><animate repeatCount="indefinite" attributeName="d" dur="6s" begin="0s" calcMode="spline" values="M-10.407,46.606C-10.407,46.606,10.407,46.606,10.407,46.606C10.407,46.606,10.407,-46.606,10.407,-46.606C10.407,-46.606,-10.407,-46.606,-10.407,-46.606C-10.407,-46.606,-10.407,46.606,-10.407,46.606Z; M-10.407,46.606C-10.407,46.606,10.407,46.606,10.407,46.606C10.407,46.606,10.285,-8.606,10.285,-8.606C10.285,-8.606,-10.529,-8.606,-10.529,-8.606C-10.529,-8.606,-10.407,46.606,-10.407,46.606Z; M-10.407,46.606C-10.407,46.606,10.407,46.606,10.407,46.606C10.407,46.606,9.854,-56.606,9.854,-56.606C9.854,-56.606,-10.96,-56.606,-10.96,-56.606C-10.96,-56.606,-10.407,46.606,-10.407,46.606Z; M-10.407,46.606C-10.407,46.606,10.407,46.606,10.407,46.606C10.407,46.606,10.407,-46.606,10.407,-46.606C10.407,-46.606,-10.407,-46.606,-10.407,-46.606C-10.407,-46.606,-10.407,46.606,-10.407,46.606Z; M-10.407,46.606C-10.407,46.606,10.407,46.606,10.407,46.606C10.407,46.606,10.407,-46.606,10.407,-46.606C10.407,-46.606,-10.407,-46.606,-10.407,-46.606C-10.407,-46.606,-10.407,46.606,-10.407,46.606Z" keyTimes="0; 0.333333; 0.666667; 0.993333; 1" keySplines="0.333 0 0.667 1; 0.333 0 0.667 1; 0.333 0 0.667 1; 0 0 1 1" fill="freeze" /></path></g><g id="i10" transform="matrix(1,0,0,1,57.778,142.576)"><path d="M-10.407,65.335C-10.407,65.335,10.407,65.335,10.407,65.335C10.407,65.335,10.407,-65.335,10.407,-65.335C10.407,-65.335,-10.407,-65.335,-10.407,-65.335C-10.407,-65.335,-10.407,65.335,-10.407,65.335Z" fill="#2be1d4"><animate repeatCount="indefinite" attributeName="d" dur="6s" begin="0s" calcMode="spline" values="M-10.407,65.335C-10.407,65.335,10.407,65.335,10.407,65.335C10.407,65.335,10.407,-65.335,10.407,-65.335C10.407,-65.335,-10.407,-65.335,-10.407,-65.335C-10.407,-65.335,-10.407,65.335,-10.407,65.335Z; M-10.407,65.335C-10.407,65.335,10.407,65.335,10.407,65.335C10.407,65.335,10.285,-99.335,10.285,-99.335C10.285,-99.335,-10.529,-99.335,-10.529,-99.335C-10.529,-99.335,-10.407,65.335,-10.407,65.335Z; M-10.407,65.335C-10.407,65.335,10.407,65.335,10.407,65.335C10.407,65.335,9.854,-37.335,9.854,-37.335C9.854,-37.335,-10.96,-37.335,-10.96,-37.335C-10.96,-37.335,-10.407,65.335,-10.407,65.335Z; M-10.407,65.335C-10.407,65.335,10.407,65.335,10.407,65.335C10.407,65.335,10.407,-65.335,10.407,-65.335C10.407,-65.335,-10.407,-65.335,-10.407,-65.335C-10.407,-65.335,-10.407,65.335,-10.407,65.335Z; M-10.407,65.335C-10.407,65.335,10.407,65.335,10.407,65.335C10.407,65.335,10.407,-65.335,10.407,-65.335C10.407,-65.335,-10.407,-65.335,-10.407,-65.335C-10.407,-65.335,-10.407,65.335,-10.407,65.335Z" keyTimes="0; 0.333333; 0.666667; 0.993333; 1" keySplines="0.333 0 0.667 1; 0.333 0 0.667 1; 0.333 0 0.667 1; 0 0 1 1" fill="freeze" /></path></g><g id="i11" transform="matrix(1,0,0,1,182.661,125.519)"><path d="M-10.406,82.392C-10.406,82.392,10.407,82.392,10.407,82.392C10.407,82.392,10.407,-82.392,10.407,-82.392C10.407,-82.392,-10.406,-82.392,-10.406,-82.392C-10.406,-82.392,-10.406,82.392,-10.406,82.392Z" fill="#2be1d4"><animate repeatCount="indefinite" attributeName="d" dur="6s" begin="0s" calcMode="spline" values="M-10.406,82.392C-10.406,82.392,10.407,82.392,10.407,82.392C10.407,82.392,10.407,-82.392,10.407,-82.392C10.407,-82.392,-10.406,-82.392,-10.406,-82.392C-10.406,-82.392,-10.406,82.392,-10.406,82.392Z; M-10.406,82.392C-10.406,82.392,10.407,82.392,10.407,82.392C10.407,82.392,10.48,10.608,10.48,10.608C10.48,10.608,-10.333,10.608,-10.333,10.608C-10.333,10.608,-10.406,82.392,-10.406,82.392Z; M-10.406,82.392C-10.406,82.392,10.407,82.392,10.407,82.392C10.407,82.392,10.244,-17.392,10.244,-17.392C10.244,-17.392,-10.569,-17.392,-10.569,-17.392C-10.569,-17.392,-10.406,82.392,-10.406,82.392Z; M-10.406,82.392C-10.406,82.392,10.407,82.392,10.407,82.392C10.407,82.392,10.407,-82.392,10.407,-82.392C10.407,-82.392,-10.406,-82.392,-10.406,-82.392C-10.406,-82.392,-10.406,82.392,-10.406,82.392Z; M-10.406,82.392C-10.406,82.392,10.407,82.392,10.407,82.392C10.407,82.392,10.407,-82.392,10.407,-82.392C10.407,-82.392,-10.406,-82.392,-10.406,-82.392C-10.406,-82.392,-10.406,82.392,-10.406,82.392Z" keyTimes="0; 0.333333; 0.666667; 0.993333; 1" keySplines="0.333 0 0.667 1; 0.333 0 0.667 1; 0.333 0 0.667 1; 0 0 1 1" fill="freeze" /></path></g><g id="i12" transform="matrix(1,0.011,-0.011,1,141.033,169.332)"><path d="M-10.407,38.579C-10.407,38.579,10.406,38.579,10.406,38.579C10.406,38.579,10.406,-38.579,10.406,-38.579C10.406,-38.579,-10.407,-38.579,-10.407,-38.579C-10.407,-38.579,-10.407,38.579,-10.407,38.579Z" fill="#2be1d4"><animate repeatCount="indefinite" attributeName="d" dur="6s" begin="0s" calcMode="spline" values="M-10.407,38.579C-10.407,38.579,10.406,38.579,10.406,38.579C10.406,38.579,10.406,-38.579,10.406,-38.579C10.406,-38.579,-10.407,-38.579,-10.407,-38.579C-10.407,-38.579,-10.407,38.579,-10.407,38.579Z; M-10.407,38.579C-10.407,38.579,10.406,38.579,10.406,38.579C10.406,38.579,10.052,-70.578,10.052,-70.578C10.052,-70.578,-10.761,-70.578,-10.761,-70.578C-10.761,-70.578,-10.407,38.579,-10.407,38.579Z; M-10.407,38.579C-10.407,38.579,10.406,38.579,10.406,38.579C10.406,38.579,9.96,-109.579,9.96,-109.579C9.96,-109.579,-10.853,-109.579,-10.853,-109.579C-10.853,-109.579,-10.407,38.579,-10.407,38.579Z; M-10.407,38.579C-10.407,38.579,10.406,38.579,10.406,38.579C10.406,38.579,10.406,-38.579,10.406,-38.579C10.406,-38.579,-10.407,-38.579,-10.407,-38.579C-10.407,-38.579,-10.407,38.579,-10.407,38.579Z; M-10.407,38.579C-10.407,38.579,10.406,38.579,10.406,38.579C10.406,38.579,10.406,-38.579,10.406,-38.579C10.406,-38.579,-10.407,-38.579,-10.407,-38.579C-10.407,-38.579,-10.407,38.579,-10.407,38.579Z" keyTimes="0; 0.333333; 0.666667; 0.993333; 1" keySplines="0.333 0 0.667 1; 0.333 0 0.667 1; 0.333 0 0.667 1; 0 0 1 1" fill="freeze" /></path></g><g id="i13" transform="matrix(1,0,0,1,224.288,133.881)"><path d="M10.406,-74.031C10.406,-74.031,-10.406,-74.031,-10.406,-74.031C-10.406,-74.031,-10.406,74.031,-10.406,74.031C-10.406,74.031,10.406,74.031,10.406,74.031C10.406,74.031,10.406,-74.031,10.406,-74.031Z" fill="#2be1d4"><animate repeatCount="indefinite" attributeName="d" dur="6s" begin="0s" calcMode="spline" values="M10.406,-74.031C10.406,-74.031,-10.406,-74.031,-10.406,-74.031C-10.406,-74.031,-10.406,74.031,-10.406,74.031C-10.406,74.031,10.406,74.031,10.406,74.031C10.406,74.031,10.406,-74.031,10.406,-74.031Z; M10.285,-46.031C10.285,-46.031,-10.528,-46.031,-10.528,-46.031C-10.528,-46.031,-10.406,74.031,-10.406,74.031C-10.406,74.031,10.406,74.031,10.406,74.031C10.406,74.031,10.285,-46.031,10.285,-46.031Z; M10.041,-80.031C10.041,-80.031,-10.772,-80.031,-10.772,-80.031C-10.772,-80.031,-10.406,74.031,-10.406,74.031C-10.406,74.031,10.406,74.031,10.406,74.031C10.406,74.031,10.041,-80.031,10.041,-80.031Z; M10.406,-74.031C10.406,-74.031,-10.406,-74.031,-10.406,-74.031C-10.406,-74.031,-10.406,74.031,-10.406,74.031C-10.406,74.031,10.406,74.031,10.406,74.031C10.406,74.031,10.406,-74.031,10.406,-74.031Z; M10.406,-74.031C10.406,-74.031,-10.406,-74.031,-10.406,-74.031C-10.406,-74.031,-10.406,74.031,-10.406,74.031C-10.406,74.031,10.406,74.031,10.406,74.031C10.406,74.031,10.406,-74.031,10.406,-74.031Z" keyTimes="0; 0.333333; 0.666667; 0.993333; 1" keySplines="0.333 0 0.667 1; 0.333 0 0.667 1; 0.333 0 0.667 1; 0 0 1 1" fill="freeze" /></path></g><g id="i14"><path stroke-miterlimit="10" stroke-width="6" stroke="#192424" d="M47.372,303.278C47.372,303.278,234.518,303.278,234.518,303.278" /></g><g id="i15"><path stroke-miterlimit="10" stroke-width="6" stroke="#192424" d="M47.372,277.867C47.372,277.867,234.518,277.867,234.518,277.867" /></g><g id="i1"><path stroke-miterlimit="10" stroke-width="6" stroke="#192424" d="M47.372,328.689C47.372,328.689,234.518,328.689,234.518,328.689" /></g></g><g transform="matrix(1,0,0,1,314.826,239.494)" id="i16"><g id="i17" transform="matrix(1,0,0,1,89.337,142.79)"><path fill="#192424" d="M79.087,142.54C79.087,142.54,-79.087,142.54,-79.087,142.54C-84.61,142.54,-89.087,138.062,-89.087,132.54C-89.087,132.54,-89.087,-132.54,-89.087,-132.54C-89.087,-138.063,-84.61,-142.54,-79.087,-142.54C-79.087,-142.54,79.087,-142.54,79.087,-142.54C84.61,-142.54,89.087,-138.063,89.087,-132.54C89.087,-132.54,89.087,132.54,89.087,132.54C89.087,138.062,84.61,142.54,79.087,142.54Z" /></g><g id="i18" transform="matrix(1,0,0,1,89.336,44.793)"><path fill="#2be1d4" d="M62.361,17.818C62.361,17.818,-62.361,17.818,-62.361,17.818C-62.361,17.818,-62.361,-17.818,-62.361,-17.818C-62.361,-17.818,62.361,-17.818,62.361,-17.818C62.361,-17.818,62.361,17.818,62.361,17.818Z" /></g><g id="i19" transform="matrix(1,0,0,1,39.476,91.119)"><path fill="#f5dacd" d="M7.5,10.505C7.5,10.505,-7.5,10.505,-7.5,10.505C-10.261,10.505,-12.5,8.267,-12.5,5.505C-12.5,5.505,-12.5,-5.505,-12.5,-5.505C-12.5,-8.266,-10.261,-10.505,-7.5,-10.505C-7.5,-10.505,7.5,-10.505,7.5,-10.505C10.262,-10.505,12.5,-8.266,12.5,-5.505C12.5,-5.505,12.5,5.505,12.5,5.505C12.5,8.267,10.262,10.505,7.5,10.505Z" /></g><g id="i20" transform="matrix(1,0,0,1,139.198,91.119)"><path fill="#f5dacd" d="M7.5,10.505C7.5,10.505,-7.5,10.505,-7.5,10.505C-10.262,10.505,-12.5,8.267,-12.5,5.505C-12.5,5.505,-12.5,-5.505,-12.5,-5.505C-12.5,-8.266,-10.262,-10.505,-7.5,-10.505C-7.5,-10.505,7.5,-10.505,7.5,-10.505C10.261,-10.505,12.5,-8.266,12.5,-5.505C12.5,-5.505,12.5,5.505,12.5,5.505C12.5,8.267,10.261,10.505,7.5,10.505Z" /></g><g id="i21" transform="matrix(1,0,0,1,105.957,91.119)"><path fill="#f5dacd" d="M7.5,10.505C7.5,10.505,-7.5,10.505,-7.5,10.505C-10.262,10.505,-12.5,8.267,-12.5,5.505C-12.5,5.505,-12.5,-5.505,-12.5,-5.505C-12.5,-8.266,-10.262,-10.505,-7.5,-10.505C-7.5,-10.505,7.5,-10.505,7.5,-10.505C10.262,-10.505,12.5,-8.266,12.5,-5.505C12.5,-5.505,12.5,5.505,12.5,5.505C12.5,8.267,10.262,10.505,7.5,10.505Z" /></g><g id="i22" transform="matrix(1,0,0,1,72.717,91.119)"><path fill="#2be1d4" d="M7.5,10.505C7.5,10.505,-7.5,10.505,-7.5,10.505C-10.262,10.505,-12.5,8.267,-12.5,5.505C-12.5,5.505,-12.5,-5.505,-12.5,-5.505C-12.5,-8.266,-10.262,-10.505,-7.5,-10.505C-7.5,-10.505,7.5,-10.505,7.5,-10.505C10.261,-10.505,12.5,-8.266,12.5,-5.505C12.5,-5.505,12.5,5.505,12.5,5.505C12.5,8.267,10.261,10.505,7.5,10.505Z" /></g><g id="i23" transform="matrix(1,0,0,1,39.476,133.966)"><path fill="#ffffff" d="M7.5,10.505C7.5,10.505,-7.5,10.505,-7.5,10.505C-10.261,10.505,-12.5,8.267,-12.5,5.505C-12.5,5.505,-12.5,-5.505,-12.5,-5.505C-12.5,-8.266,-10.261,-10.505,-7.5,-10.505C-7.5,-10.505,7.5,-10.505,7.5,-10.505C10.262,-10.505,12.5,-8.266,12.5,-5.505C12.5,-5.505,12.5,5.505,12.5,5.505C12.5,8.267,10.262,10.505,7.5,10.505Z" /></g><g id="i24" transform="matrix(1,0,0,1,139.198,133.966)"><path fill="#2be1d4" d="M7.5,10.505C7.5,10.505,-7.5,10.505,-7.5,10.505C-10.262,10.505,-12.5,8.267,-12.5,5.505C-12.5,5.505,-12.5,-5.505,-12.5,-5.505C-12.5,-8.266,-10.262,-10.505,-7.5,-10.505C-7.5,-10.505,7.5,-10.505,7.5,-10.505C10.261,-10.505,12.5,-8.266,12.5,-5.505C12.5,-5.505,12.5,5.505,12.5,5.505C12.5,8.267,10.261,10.505,7.5,10.505Z" /></g><g id="i25" transform="matrix(1,0,0,1,105.957,133.966)"><path fill="#2be1d4" d="M7.5,10.505C7.5,10.505,-7.5,10.505,-7.5,10.505C-10.262,10.505,-12.5,8.267,-12.5,5.505C-12.5,5.505,-12.5,-5.505,-12.5,-5.505C-12.5,-8.266,-10.262,-10.505,-7.5,-10.505C-7.5,-10.505,7.5,-10.505,7.5,-10.505C10.262,-10.505,12.5,-8.266,12.5,-5.505C12.5,-5.505,12.5,5.505,12.5,5.505C12.5,8.267,10.262,10.505,7.5,10.505Z" /></g><g id="i26" transform="matrix(1,0,0,1,72.717,133.966)"><path fill="#2be1d4" d="M7.5,10.505C7.5,10.505,-7.5,10.505,-7.5,10.505C-10.262,10.505,-12.5,8.267,-12.5,5.505C-12.5,5.505,-12.5,-5.505,-12.5,-5.505C-12.5,-8.266,-10.262,-10.505,-7.5,-10.505C-7.5,-10.505,7.5,-10.505,7.5,-10.505C10.261,-10.505,12.5,-8.266,12.5,-5.505C12.5,-5.505,12.5,5.505,12.5,5.505C12.5,8.267,10.261,10.505,7.5,10.505Z" /></g><g id="i27" transform="matrix(1,0,0,1,39.476,190.982)"><path fill="#2be1d4" d="M7.5,10.505C7.5,10.505,-7.5,10.505,-7.5,10.505C-10.261,10.505,-12.5,8.266,-12.5,5.505C-12.5,5.505,-12.5,-5.505,-12.5,-5.505C-12.5,-8.265,-10.261,-10.505,-7.5,-10.505C-7.5,-10.505,7.5,-10.505,7.5,-10.505C10.262,-10.505,12.5,-8.265,12.5,-5.505C12.5,-5.505,12.5,5.505,12.5,5.505C12.5,8.266,10.262,10.505,7.5,10.505Z" /></g><g id="i28" transform="matrix(1,0,0,1,139.198,190.982)"><path fill="#2be1d4" d="M7.5,10.505C7.5,10.505,-7.5,10.505,-7.5,10.505C-10.262,10.505,-12.5,8.266,-12.5,5.505C-12.5,5.505,-12.5,-5.505,-12.5,-5.505C-12.5,-8.265,-10.262,-10.505,-7.5,-10.505C-7.5,-10.505,7.5,-10.505,7.5,-10.505C10.261,-10.505,12.5,-8.265,12.5,-5.505C12.5,-5.505,12.5,5.505,12.5,5.505C12.5,8.266,10.261,10.505,7.5,10.505Z" /></g><g id="i3" transform="matrix(1,0,0,1,105.957,190.982)"><path fill="#2be1d4" d="M7.5,10.505C7.5,10.505,-7.5,10.505,-7.5,10.505C-10.262,10.505,-12.5,8.266,-12.5,5.505C-12.5,5.505,-12.5,-5.505,-12.5,-5.505C-12.5,-8.265,-10.262,-10.505,-7.5,-10.505C-7.5,-10.505,7.5,-10.505,7.5,-10.505C10.262,-10.505,12.5,-8.265,12.5,-5.505C12.5,-5.505,12.5,5.505,12.5,5.505C12.5,8.266,10.262,10.505,7.5,10.505Z" /></g><g id="i4" transform="matrix(1,0,0,1,72.717,190.982)"><path fill="#2be1d4" d="M7.5,10.505C7.5,10.505,-7.5,10.505,-7.5,10.505C-10.262,10.505,-12.5,8.266,-12.5,5.505C-12.5,5.505,-12.5,-5.505,-12.5,-5.505C-12.5,-8.265,-10.262,-10.505,-7.5,-10.505C-7.5,-10.505,7.5,-10.505,7.5,-10.505C10.261,-10.505,12.5,-8.265,12.5,-5.505C12.5,-5.505,12.5,5.505,12.5,5.505C12.5,8.266,10.261,10.505,7.5,10.505Z" /></g><g id="i5" transform="matrix(1,0,0,1,39.476,219.49)"><path fill="#2be1d4" d="M7.5,10.505C7.5,10.505,-7.5,10.505,-7.5,10.505C-10.261,10.505,-12.5,8.266,-12.5,5.505C-12.5,5.505,-12.5,-5.505,-12.5,-5.505C-12.5,-8.265,-10.261,-10.505,-7.5,-10.505C-7.5,-10.505,7.5,-10.505,7.5,-10.505C10.262,-10.505,12.5,-8.265,12.5,-5.505C12.5,-5.505,12.5,5.505,12.5,5.505C12.5,8.266,10.262,10.505,7.5,10.505Z" /></g><g id="i6" transform="matrix(1,0,0,1,139.198,219.49)"><path fill="#2be1d4" d="M7.5,10.505C7.5,10.505,-7.5,10.505,-7.5,10.505C-10.262,10.505,-12.5,8.266,-12.5,5.505C-12.5,5.505,-12.5,-5.505,-12.5,-5.505C-12.5,-8.265,-10.262,-10.505,-7.5,-10.505C-7.5,-10.505,7.5,-10.505,7.5,-10.505C10.261,-10.505,12.5,-8.265,12.5,-5.505C12.5,-5.505,12.5,5.505,12.5,5.505C12.5,8.266,10.261,10.505,7.5,10.505Z" /></g><g id="i7" transform="matrix(1,0,0,1,105.957,219.49)"><path fill="#2be1d4" d="M7.5,10.505C7.5,10.505,-7.5,10.505,-7.5,10.505C-10.262,10.505,-12.5,8.266,-12.5,5.505C-12.5,5.505,-12.5,-5.505,-12.5,-5.505C-12.5,-8.265,-10.262,-10.505,-7.5,-10.505C-7.5,-10.505,7.5,-10.505,7.5,-10.505C10.262,-10.505,12.5,-8.265,12.5,-5.505C12.5,-5.505,12.5,5.505,12.5,5.505C12.5,8.266,10.262,10.505,7.5,10.505Z" /></g><g id="i8" transform="matrix(1,0,0,1,72.717,219.49)"><path fill="#2be1d4" d="M7.5,10.505C7.5,10.505,-7.5,10.505,-7.5,10.505C-10.262,10.505,-12.5,8.266,-12.5,5.505C-12.5,5.505,-12.5,-5.505,-12.5,-5.505C-12.5,-8.265,-10.262,-10.505,-7.5,-10.505C-7.5,-10.505,7.5,-10.505,7.5,-10.505C10.261,-10.505,12.5,-8.265,12.5,-5.505C12.5,-5.505,12.5,5.505,12.5,5.505C12.5,8.266,10.261,10.505,7.5,10.505Z" /></g><g id="i9" transform="matrix(1,0,0,1,39.476,247.998)"><path fill="#2be1d4" d="M7.5,10.505C7.5,10.505,-7.5,10.505,-7.5,10.505C-10.261,10.505,-12.5,8.267,-12.5,5.505C-12.5,5.505,-12.5,-5.505,-12.5,-5.505C-12.5,-8.266,-10.261,-10.505,-7.5,-10.505C-7.5,-10.505,7.5,-10.505,7.5,-10.505C10.262,-10.505,12.5,-8.266,12.5,-5.505C12.5,-5.505,12.5,5.505,12.5,5.505C12.5,8.267,10.262,10.505,7.5,10.505Z" /></g><g id="i10" transform="matrix(1,0,0,1,139.198,247.998)"><path fill="#2be1d4" d="M7.5,10.505C7.5,10.505,-7.5,10.505,-7.5,10.505C-10.262,10.505,-12.5,8.267,-12.5,5.505C-12.5,5.505,-12.5,-5.505,-12.5,-5.505C-12.5,-8.266,-10.262,-10.505,-7.5,-10.505C-7.5,-10.505,7.5,-10.505,7.5,-10.505C10.261,-10.505,12.5,-8.266,12.5,-5.505C12.5,-5.505,12.5,5.505,12.5,5.505C12.5,8.267,10.261,10.505,7.5,10.505Z" /></g><g id="i11" transform="matrix(1,0,0,1,105.957,247.998)"><path fill="#2be1d4" d="M7.5,10.505C7.5,10.505,-7.5,10.505,-7.5,10.505C-10.262,10.505,-12.5,8.267,-12.5,5.505C-12.5,5.505,-12.5,-5.505,-12.5,-5.505C-12.5,-8.266,-10.262,-10.505,-7.5,-10.505C-7.5,-10.505,7.5,-10.505,7.5,-10.505C10.262,-10.505,12.5,-8.266,12.5,-5.505C12.5,-5.505,12.5,5.505,12.5,5.505C12.5,8.267,10.262,10.505,7.5,10.505Z" /></g><g id="i12" transform="matrix(1,0,0,1,72.717,247.998)"><path fill="#2be1d4" d="M7.5,10.505C7.5,10.505,-7.5,10.505,-7.5,10.505C-10.262,10.505,-12.5,8.267,-12.5,5.505C-12.5,5.505,-12.5,-5.505,-12.5,-5.505C-12.5,-8.266,-10.262,-10.505,-7.5,-10.505C-7.5,-10.505,7.5,-10.505,7.5,-10.505C10.261,-10.505,12.5,-8.266,12.5,-5.505C12.5,-5.505,12.5,5.505,12.5,5.505C12.5,8.267,10.261,10.505,7.5,10.505Z" /></g><g id="i13" transform="matrix(1,0,0,1,39.476,162.473)"><path fill="#2be1d4" d="M7.5,10.505C7.5,10.505,-7.5,10.505,-7.5,10.505C-10.261,10.505,-12.5,8.267,-12.5,5.505C-12.5,5.505,-12.5,-5.505,-12.5,-5.505C-12.5,-8.266,-10.261,-10.505,-7.5,-10.505C-7.5,-10.505,7.5,-10.505,7.5,-10.505C10.262,-10.505,12.5,-8.266,12.5,-5.505C12.5,-5.505,12.5,5.505,12.5,5.505C12.5,8.267,10.262,10.505,7.5,10.505Z" /></g><g id="i14" transform="matrix(1,0,0,1,139.198,162.473)"><path fill="#2be1d4" d="M7.5,10.505C7.5,10.505,-7.5,10.505,-7.5,10.505C-10.262,10.505,-12.5,8.267,-12.5,5.505C-12.5,5.505,-12.5,-5.505,-12.5,-5.505C-12.5,-8.266,-10.262,-10.505,-7.5,-10.505C-7.5,-10.505,7.5,-10.505,7.5,-10.505C10.261,-10.505,12.5,-8.266,12.5,-5.505C12.5,-5.505,12.5,5.505,12.5,5.505C12.5,8.267,10.261,10.505,7.5,10.505Z" /></g><g id="i15" transform="matrix(1,0,0,1,105.957,162.473)"><path fill="#2be1d4" d="M7.5,10.505C7.5,10.505,-7.5,10.505,-7.5,10.505C-10.262,10.505,-12.5,8.267,-12.5,5.505C-12.5,5.505,-12.5,-5.505,-12.5,-5.505C-12.5,-8.266,-10.262,-10.505,-7.5,-10.505C-7.5,-10.505,7.5,-10.505,7.5,-10.505C10.262,-10.505,12.5,-8.266,12.5,-5.505C12.5,-5.505,12.5,5.505,12.5,5.505C12.5,8.267,10.262,10.505,7.5,10.505Z" /></g><g id="i1" transform="matrix(1,0,0,1,72.717,162.473)"><path fill="#2be1d4" d="M7.5,10.505C7.5,10.505,-7.5,10.505,-7.5,10.505C-10.262,10.505,-12.5,8.267,-12.5,5.505C-12.5,5.505,-12.5,-5.505,-12.5,-5.505C-12.5,-8.266,-10.262,-10.505,-7.5,-10.505C-7.5,-10.505,7.5,-10.505,7.5,-10.505C10.261,-10.505,12.5,-8.266,12.5,-5.505C12.5,-5.505,12.5,5.505,12.5,5.505C12.5,8.267,10.261,10.505,7.5,10.505Z" /></g></g></svg>