<svg fill="none" height="100%" width="100%" viewBox="0 0 304 188" xmlns:xlink="http://www.w3.org/1999/xlink" xmlns="http://www.w3.org/2000/svg"><defs><linearGradient id="i0" gradientUnits="userSpaceOnUse" spreadMethod="pad" x2="-166.056" y2="-94.796" x1="-39.168" y1="-24.24"><stop offset="0%" stop-color="#d9e4f2" /><stop offset="50%" stop-color="#e2ebf6" /><stop offset="100%" stop-color="#ecf2fa" /></linearGradient><linearGradient id="i1" gradientUnits="userSpaceOnUse" spreadMethod="pad" x2="-144.17" y2="-110.92" x1="0.486" y1="-42.08"><stop offset="0%" stop-color="#0e6cee" /><stop offset="50%" stop-color="#207af7" /><stop offset="100%" stop-color="#3188ff" /></linearGradient><linearGradient id="i2" gradientUnits="userSpaceOnUse" spreadMethod="pad" x2="-64.812" y2="-0.678" x1="39.703" y1="0"><stop offset="0%" stop-color="#3188ff" /><stop offset="50%" stop-color="#48a2ff" /><stop offset="100%" stop-color="#5fbdff" /></linearGradient><linearGradient id="i3" gradientUnits="userSpaceOnUse" spreadMethod="pad" x2="-32.758" y2="-2.508" x1="32.035" y1="-5.237"><stop offset="0%" stop-color="#3188ff" /><stop offset="50%" stop-color="#48a2ff" /><stop offset="100%" stop-color="#5fbdff" /></linearGradient></defs><g id="i4"><g transform="translate(297.5,158.5)"><g transform="rotate(-11)"><animateTransform repeatCount="indefinite" type="rotate" attributeName="transform" dur="1.167s" begin="0s" calcMode="spline" values="-11; 0; 0" keyTimes="0; 0.971428; 1" keySplines="0.291 0 0.01 0.99; 0 0 1 1" fill="freeze" /><g transform="scale(1,1) translate(-230,-130.5)"><g id="i5" transform="matrix(1,0,0,1,207.487,111.876)"><path fill="url(#i0)" d="M-163.998,-106.052C-163.998,-106.052,-178.221,-32.881,-178.221,-32.881C-178.959,-29.087,-176.48,-25.412,-172.685,-24.674C-172.685,-24.674,-50.843,-0.99,-50.843,-0.99C-47.048,-0.252,-43.373,-2.731,-42.636,-6.525C-42.636,-6.525,-28.412,-79.696,-28.412,-79.696C-27.675,-83.492,-30.154,-87.166,-33.948,-87.903C-33.948,-87.903,-155.79,-111.588,-155.79,-111.588C-156.241,-111.675,-156.69,-111.718,-157.133,-111.718C-160.418,-111.717,-163.348,-109.396,-163.998,-106.052Z" /></g><g id="i6" transform="matrix(1,0,0,1,65.842,24.033)"><path fill="#ff6a45" d="M3.582,0.784C4.27,-2.197,3.523,-5.165,1.803,-7.38C1.803,-7.38,1.603,-7.425,1.603,-7.425C-0.915,-6.19,-2.888,-3.849,-3.576,-0.869C-4.269,2.133,-3.508,5.126,-1.76,7.346C-1.781,7.356,-1.804,7.364,-1.826,7.374C-1.826,7.374,-1.605,7.425,-1.605,7.425C-1.619,7.407,-1.637,7.389,-1.652,7.371C0.892,6.142,2.889,3.786,3.582,0.784Z" /></g><g id="i7" transform="matrix(1,0,0,1,58.579,22.318)"><path fill="#ff1e36" d="M3.682,-9.071C-1.415,-10.247,-6.519,-6.986,-7.719,-1.787C-8.92,3.412,-5.761,8.579,-0.665,9.756C1.463,10.247,3.592,9.963,5.438,9.089C5.46,9.079,5.481,9.071,5.503,9.061C3.754,6.841,2.994,3.848,3.686,0.846C4.374,-2.134,6.347,-4.475,8.865,-5.711C8.884,-5.72,8.902,-5.733,8.921,-5.742C7.642,-7.363,5.835,-8.574,3.682,-9.071Z" /></g><g id="i8" transform="matrix(1,0,0,1,73.11,25.659)"><path fill="#ffb85b" d="M0.665,-9.754C-1.488,-10.251,-3.644,-9.954,-5.503,-9.057C-5.489,-9.04,-5.478,-9.023,-5.465,-9.006C-3.745,-6.792,-2.999,-3.823,-3.687,-0.842C-4.38,2.16,-6.376,4.516,-8.919,5.745C-8.904,5.763,-8.888,5.78,-8.874,5.799C-7.599,7.393,-5.809,8.583,-3.682,9.074C1.415,10.251,6.519,6.99,7.719,1.79C8.92,-3.408,5.762,-8.577,0.665,-9.754Z" /></g></g></g></g></g><g transform="matrix(1,0,0,1,67.5,28)" id="i9"><g id="i10" transform="matrix(1,0,0,1,144.165,173.341)"><path fill="url(#i1)" d="M-137.66,-131.357C-140.974,-131.357,-143.66,-128.671,-143.66,-125.357C-143.66,-125.357,-143.66,-47.57,-143.66,-47.57C-143.66,-44.256,-140.974,-41.569,-137.66,-41.569C-137.66,-41.569,-6,-41.569,-6,-41.569C-2.687,-41.569,0,-44.256,0,-47.57C0,-47.57,0,-125.357,0,-125.357C0,-128.671,-2.687,-131.357,-6,-131.357C-6,-131.357,-137.66,-131.357,-137.66,-131.357Z" /></g><g id="i11" transform="matrix(1,0,0,1,16.865,59.967)"><path fill="#c5e5ff" d="M3.864,-5.622C3.864,-5.622,0.768,2.03,0.768,2.03C0.768,2.03,-0.485,-4.476,-0.485,-4.476C-0.631,-5.203,-1.212,-5.622,-1.857,-5.622C-1.857,-5.622,-6.918,-5.622,-6.918,-5.622C-6.918,-5.622,-6.989,-5.296,-6.989,-5.296C-5.949,-5.075,-4.769,-4.719,-4.054,-4.339C-3.616,-4.107,-3.491,-3.904,-3.347,-3.351C-3.347,-3.351,-0.975,5.622,-0.975,5.622C-0.975,5.622,2.169,5.622,2.169,5.622C2.169,5.622,6.989,-5.622,6.989,-5.622C6.989,-5.622,3.864,-5.622,3.864,-5.622Z" /></g><g id="i12" transform="matrix(1,0,0,1,25.387,59.967)"><path fill="#c5e5ff" d="M-0.257,-5.622C-0.257,-5.622,-2.717,5.622,-2.717,5.622C-2.717,5.622,0.257,5.622,0.257,5.622C0.257,5.622,2.717,-5.622,2.717,-5.622C2.717,-5.622,-0.257,-5.622,-0.257,-5.622Z" /></g><g id="i13" transform="matrix(1,0,0,1,41.354,59.967)"><path fill="#c5e5ff" d="M2.934,-5.622C2.934,-5.622,0.395,-5.622,0.395,-5.622C-0.176,-5.622,-0.658,-5.298,-0.871,-4.798C-0.871,-4.798,-5.335,5.622,-5.335,5.622C-5.335,5.622,-2.212,5.622,-2.212,5.622C-2.212,5.622,-1.591,3.941,-1.591,3.941C-1.591,3.941,2.224,3.941,2.224,3.941C2.224,3.941,2.584,5.622,2.584,5.622C2.584,5.622,5.335,5.622,5.335,5.622C5.335,5.622,2.934,-5.622,2.934,-5.622ZM-0.735,1.637C-0.735,1.637,0.831,-2.585,0.831,-2.585C0.831,-2.585,1.732,1.637,1.732,1.637C1.732,1.637,-0.735,1.637,-0.735,1.637Z" /></g><g id="i14" transform="matrix(1,0,0,1,32.205,59.952)"><path fill="#c5e5ff" d="M-0.199,-2.492C-0.189,-2.895,0.203,-3.323,1.063,-3.432C1.488,-3.487,2.664,-3.53,3.995,-2.93C3.995,-2.93,4.518,-5.314,4.518,-5.314C3.802,-5.568,2.882,-5.812,1.735,-5.812C-1.205,-5.812,-3.274,-4.284,-3.291,-2.096C-3.31,-0.476,-1.814,0.426,-0.686,0.965C0.472,1.516,0.861,1.869,0.856,2.362C0.847,3.116,-0.068,3.449,-0.924,3.462C-2.42,3.485,-3.288,3.067,-3.98,2.752C-3.98,2.752,-4.518,5.215,-4.518,5.215C-3.824,5.527,-2.54,5.799,-1.21,5.812C1.915,5.812,3.959,4.303,3.969,1.965C3.982,-1.002,-0.228,-1.166,-0.199,-2.492Z" /></g></g><g transform="matrix(1,0,0,1,-720.533,-206.223)" id="i15"><g id="i16" transform="matrix(1,0,0,1,850.969,315.925)"><path fill="url(#i2)" d="M-48.602,0C-48.602,1.303,-47.546,2.359,-46.242,2.359C-44.94,2.359,-43.883,1.303,-43.883,0C-43.883,-1.303,-44.94,-2.359,-46.242,-2.359C-47.546,-2.359,-48.602,-1.303,-48.602,0ZM-41.052,0C-41.052,1.303,-39.996,2.359,-38.693,2.359C-37.39,2.359,-36.333,1.303,-36.333,0C-36.333,-1.303,-37.39,-2.359,-38.693,-2.359C-39.996,-2.359,-41.052,-1.303,-41.052,0ZM-33.503,0C-33.503,1.303,-32.446,2.359,-31.143,2.359C-29.84,2.359,-28.784,1.303,-28.784,0C-28.784,-1.303,-29.84,-2.359,-31.143,-2.359C-32.446,-2.359,-33.503,-1.303,-33.503,0ZM-25.953,0C-25.953,1.303,-24.897,2.359,-23.594,2.359C-22.291,2.359,-21.234,1.303,-21.234,0C-21.234,-1.303,-22.291,-2.359,-23.594,-2.359C-24.897,-2.359,-25.953,-1.303,-25.953,0ZM-13.685,0C-13.685,1.303,-12.629,2.359,-11.326,2.359C-10.023,2.359,-8.966,1.303,-8.966,0C-8.966,-1.303,-10.023,-2.359,-11.326,-2.359C-12.629,-2.359,-13.685,-1.303,-13.685,0ZM-6.135,0C-6.135,1.303,-5.079,2.359,-3.776,2.359C-2.473,2.359,-1.417,1.303,-1.417,0C-1.417,-1.303,-2.473,-2.359,-3.776,-2.359C-5.079,-2.359,-6.135,-1.303,-6.135,0ZM1.415,0C1.415,1.303,2.471,2.359,3.774,2.359C5.077,2.359,6.133,1.303,6.133,0C6.133,-1.303,5.077,-2.359,3.774,-2.359C2.471,-2.359,1.415,-1.303,1.415,0ZM8.966,0C8.966,1.303,10.022,2.359,11.325,2.359C12.628,2.359,13.683,1.303,13.683,0C13.683,-1.303,12.628,-2.359,11.325,-2.359C10.022,-2.359,8.966,-1.303,8.966,0ZM21.234,0C21.234,1.303,22.29,2.359,23.592,2.359C24.895,2.359,25.953,1.303,25.953,0C25.953,-1.303,24.895,-2.359,23.592,-2.359C22.29,-2.359,21.234,-1.303,21.234,0ZM28.784,0C28.784,1.303,29.839,2.359,31.143,2.359C32.445,2.359,33.503,1.303,33.503,0C33.503,-1.303,32.445,-2.359,31.143,-2.359C29.839,-2.359,28.784,-1.303,28.784,0ZM36.333,0C36.333,1.303,37.391,2.359,38.693,2.359C39.996,2.359,41.052,1.303,41.052,0C41.052,-1.303,39.996,-2.359,38.693,-2.359C37.391,-2.359,36.333,-1.303,36.333,0ZM43.883,0C43.883,1.303,44.94,2.359,46.242,2.359C47.544,2.359,48.602,1.303,48.602,0C48.602,-1.303,47.544,-2.359,46.242,-2.359C44.94,-2.359,43.883,-1.303,43.883,0Z" /></g></g><g transform="matrix(1,0,0,1,-737,-179.478)" opacity="0.4" id="i17"><g id="i16" transform="matrix(1,0,0,1,850.792,315.762)"><path fill="url(#i3)" d="M-31.323,-9.877C-31.323,-9.877,-9.978,-9.877,-9.978,-9.877C-9.426,-9.877,-8.978,-9.429,-8.978,-8.877C-8.978,-8.877,-8.978,-6.387,-8.978,-6.387C-8.978,-5.835,-9.426,-5.387,-9.978,-5.387C-9.978,-5.387,-31.323,-5.387,-31.323,-5.387C-31.875,-5.387,-32.323,-5.835,-32.323,-6.387C-32.323,-6.387,-32.323,-8.877,-32.323,-8.877C-32.323,-9.429,-31.875,-9.877,-31.323,-9.877ZM-31.323,-0.898C-31.323,-0.898,31.324,-0.898,31.324,-0.898C31.876,-0.898,32.324,-0.45,32.324,0.102C32.324,0.102,32.324,8.876,32.324,8.876C32.324,9.429,31.876,9.876,31.324,9.876C31.324,9.876,-31.323,9.876,-31.323,9.876C-31.875,9.876,-32.323,9.429,-32.323,8.876C-32.323,8.876,-32.323,0.102,-32.323,0.102C-32.323,-0.45,-31.875,-0.898,-31.323,-0.898Z" /></g></g></svg>