<svg fill="none" height="100%" width="100%" viewBox="0 0 1000 1000" xmlns:xlink="http://www.w3.org/1999/xlink" xmlns="http://www.w3.org/2000/svg"><defs><linearGradient id="i0" gradientUnits="userSpaceOnUse" spreadMethod="pad" x2="-3" y2="74" x1="0" y1="0"><stop offset="0%" stop-color="#26ffbf" /><stop offset="50%" stop-color="#889ac9" /><stop offset="100%" stop-color="#ea35d3" /></linearGradient><linearGradient id="i1" gradientUnits="userSpaceOnUse" spreadMethod="pad" x2="-144" y2="249" x1="-6" y1="375"><stop offset="0%" stop-color="#19ecff" /><stop offset="59%" stop-color="#8a76ff" /><stop offset="100%" stop-color="#fc00ff" /></linearGradient><filter id="i2"><feColorMatrix values="0 0 0 0 1 0 0 0 0 1 0 0 0 0 1 0 0 0 1 0" type="matrix" /></filter><mask height="20000" width="20000" y="-10000" x="-10000" maskContentUnits="userSpaceOnUse" maskUnits="userSpaceOnUse" style="mask-type: alpha" mask-type="alpha" id="i3"><g filter="url(#i2)" transform="matrix(1.5,0,0,1.5,128.529,114.411)"><g id="i4" transform="matrix(1,0,0,1,246.552,255.748)"><path fill="#ffffff" d="M-9.454,144.724C-9.454,144.724,-144.724,9.454,-144.724,9.454C-149.945,4.233,-149.945,-4.232,-144.724,-9.453C-144.724,-9.453,-9.454,-144.724,-9.454,-144.724C-4.233,-149.945,4.232,-149.945,9.453,-144.724C9.453,-144.724,144.723,-9.453,144.723,-9.453C149.944,-4.232,149.944,4.233,144.723,9.454C144.723,9.454,9.453,144.724,9.453,144.724C4.232,149.945,-4.233,149.945,-9.454,144.724Z" /></g></g></mask><filter id="i5"><feColorMatrix values="0 0 0 0 1 0 0 0 0 1 0 0 0 0 1 0 0 0 1 0" type="matrix" /></filter><mask height="20000" width="20000" y="-10000" x="-10000" maskContentUnits="userSpaceOnUse" maskUnits="userSpaceOnUse" style="mask-type: alpha" mask-type="alpha" id="i6"><g filter="url(#i5)" transform="matrix(1.5,0,0,1.5,128.529,114.411)"><g id="i4" transform="matrix(1,0,0,1,246.552,255.748)"><path fill="#ffffff" d="M-9.454,144.724C-9.454,144.724,-144.724,9.454,-144.724,9.454C-149.945,4.233,-149.945,-4.232,-144.724,-9.453C-144.724,-9.453,-9.454,-144.724,-9.454,-144.724C-4.233,-149.945,4.232,-149.945,9.453,-144.724C9.453,-144.724,144.723,-9.453,144.723,-9.453C149.944,-4.232,149.944,4.233,144.723,9.454C144.723,9.454,9.453,144.724,9.453,144.724C4.232,149.945,-4.233,149.945,-9.454,144.724Z" /></g></g></mask><filter id="i7"><feColorMatrix values="0 0 0 0 1 0 0 0 0 1 0 0 0 0 1 0 0 0 1 0" type="matrix" /></filter><mask height="20000" width="20000" y="-10000" x="-10000" maskContentUnits="userSpaceOnUse" maskUnits="userSpaceOnUse" style="mask-type: alpha" mask-type="alpha" id="i8"><g filter="url(#i7)" transform="matrix(1.5,0,0,1.5,128.529,114.411)"><g id="i4" transform="matrix(1,0,0,1,246.552,255.748)"><path fill="#ffffff" d="M-9.454,144.724C-9.454,144.724,-144.724,9.454,-144.724,9.454C-149.945,4.233,-149.945,-4.232,-144.724,-9.453C-144.724,-9.453,-9.454,-144.724,-9.454,-144.724C-4.233,-149.945,4.232,-149.945,9.453,-144.724C9.453,-144.724,144.723,-9.453,144.723,-9.453C149.944,-4.232,149.944,4.233,144.723,9.454C144.723,9.454,9.453,144.724,9.453,144.724C4.232,149.945,-4.233,149.945,-9.454,144.724Z" /></g></g></mask><filter id="i9"><feColorMatrix values="0 0 0 0 1 0 0 0 0 1 0 0 0 0 1 0 0 0 1 0" type="matrix" /></filter><mask height="20000" width="20000" y="-10000" x="-10000" maskContentUnits="userSpaceOnUse" maskUnits="userSpaceOnUse" style="mask-type: alpha" mask-type="alpha" id="i10"><g filter="url(#i9)" transform="matrix(1.5,0,0,1.5,128.529,114.411)"><g id="i4" transform="matrix(1,0,0,1,246.552,255.748)"><path fill="#ffffff" d="M-9.454,144.724C-9.454,144.724,-144.724,9.454,-144.724,9.454C-149.945,4.233,-149.945,-4.232,-144.724,-9.453C-144.724,-9.453,-9.454,-144.724,-9.454,-144.724C-4.233,-149.945,4.232,-149.945,9.453,-144.724C9.453,-144.724,144.723,-9.453,144.723,-9.453C149.944,-4.232,149.944,4.233,144.723,9.454C144.723,9.454,9.453,144.724,9.453,144.724C4.232,149.945,-4.233,149.945,-9.454,144.724Z" /></g></g></mask></defs><g style="isolation: isolate"><g transform="matrix(1.5,0,0,1.5,128.529,118.411)" id="i11"><g id="i4" transform="matrix(1,0,0,1,246.552,255.748)"><path fill="#b7b7b7" d="M-9.454,144.724C-9.454,144.724,-144.724,9.454,-144.724,9.454C-149.945,4.233,-149.945,-4.232,-144.724,-9.453C-144.724,-9.453,-9.454,-144.724,-9.454,-144.724C-4.233,-149.945,4.232,-149.945,9.453,-144.724C9.453,-144.724,144.723,-9.453,144.723,-9.453C149.944,-4.232,149.944,4.233,144.723,9.454C144.723,9.454,9.453,144.724,9.453,144.724C4.232,149.945,-4.233,149.945,-9.454,144.724Z" /></g></g><g transform="matrix(1.5,0,0,1.5,128.529,114.411)" id="i12"><g id="i4" transform="matrix(1,0,0,1,246.552,255.748)"><path fill="#ffffff" d="M-9.454,144.724C-9.454,144.724,-144.724,9.454,-144.724,9.454C-149.945,4.233,-149.945,-4.232,-144.724,-9.453C-144.724,-9.453,-9.454,-144.724,-9.454,-144.724C-4.233,-149.945,4.232,-149.945,9.453,-144.724C9.453,-144.724,144.723,-9.453,144.723,-9.453C149.944,-4.232,149.944,4.233,144.723,9.454C144.723,9.454,9.453,144.724,9.453,144.724C4.232,149.945,-4.233,149.945,-9.454,144.724Z" /></g></g><g mask="url(#i3)" opacity="0.05" style="mix-blend-mode: multiply" id="i13"><g transform="translate(661.866,505.836)"><animateTransform repeatCount="indefinite" type="translate" attributeName="transform" dur="4.7s" begin="0s" calcMode="spline" values="661.866 505.836; 661.866 505.836; 331.926 505.836; 661.866 505.836" keyTimes="0; 0.007092; 0.514184; 1" keySplines="0 0 1 1; 0.333 0.047 0.667 0.953; 0.333 0.049 0.667 0.951" fill="freeze" /><g transform="scale(1.264,1.264)"><animateTransform repeatCount="indefinite" type="scale" attributeName="transform" dur="4.7s" begin="0s" calcMode="spline" values="1.264 1.264; 1.264 1.264; 1.264 1.844; 1.264 1.264; 1.264 1.264; 1.264 1.844; 1.264 1.264; 1.264 1.264" keyTimes="0; 0.007092; 0.08156; 0.166667; 0.514184; 0.588652; 0.673759; 1" keySplines="0 0 1 1; 0 0 1 1; 0 0 1 1; 0 0 1 1; 0 0 1 1; 0 0 1 1; 0 0 1 1" fill="freeze" /><g transform="translate(0,0)"><g id="i4"><path fill="#ff5a00" d="M395.434,-12.51C382.837,-8.805,369.223,-12.277,359.939,-21.561C359.939,-21.561,350.082,-31.418,350.082,-31.418C336.006,-45.494,313.39,-46.134,298.541,-32.876C298.541,-32.876,276.371,-13.081,276.371,-13.081C272.23,-9.383,265.925,-9.549,261.983,-13.458C261.983,-13.458,203.691,-71.26,203.691,-71.26C173.79,-100.909,125.827,-101.684,94.978,-73.022C71.685,-51.381,46.174,-28.937,33.349,-17.751C28.714,-13.709,22.209,-12.751,16.651,-15.175C13.488,-16.834,10.54,-18.96,7.939,-21.561C7.939,-21.561,-1.918,-31.418,-1.918,-31.418C-15.994,-45.494,-38.61,-46.134,-53.459,-32.876C-53.459,-32.876,-75.629,-13.081,-75.629,-13.081C-79.77,-9.383,-86.075,-9.549,-90.017,-13.458C-90.017,-13.458,-148.309,-71.26,-148.309,-71.26C-178.21,-100.909,-226.173,-101.684,-257.022,-73.022C-280.315,-51.381,-305.826,-28.937,-318.651,-17.751C-323.65,-13.391,-330.828,-12.613,-336.643,-15.804C-344.651,-20.198,-356.756,-26.818,-369.495,-33.703C-395.011,-47.493,-426,-29.004,-426,0C-426,0,-426,0,-426,0C-426,29.004,-395.011,47.493,-369.495,33.703C-356.756,26.818,-344.651,20.198,-336.643,15.804C-330.828,12.613,-323.65,13.391,-318.651,17.751C-305.826,28.937,-280.315,51.381,-257.022,73.022C-226.173,101.684,-178.21,100.909,-148.309,71.26C-148.309,71.26,-90.017,13.458,-90.017,13.458C-86.075,9.549,-79.77,9.383,-75.629,13.081C-75.629,13.081,-53.459,32.876,-53.459,32.876C-38.61,46.134,-15.994,45.494,-1.918,31.418C-1.918,31.418,7.939,21.561,7.939,21.561C10.54,18.96,13.488,16.834,16.651,15.176C22.209,12.752,28.714,13.709,33.349,17.751C46.174,28.937,71.685,51.381,94.978,73.022C125.827,101.684,173.79,100.909,203.691,71.26C203.691,71.26,261.983,13.458,261.983,13.458C265.925,9.549,272.23,9.383,276.371,13.081C276.371,13.081,298.541,32.876,298.541,32.876C313.39,46.134,336.006,45.494,350.082,31.418C350.082,31.418,359.939,21.561,359.939,21.561C369.223,12.277,382.837,8.805,395.434,12.51C395.434,12.51,426,21.5,426,21.5C426,21.5,426,-21.5,426,-21.5C426,-21.5,395.434,-12.51,395.434,-12.51Z" /></g></g></g></g></g><g display="none" transform="matrix(1.5,0,0,1.5,128.529,114.411)" id="i14"><g id="i4" transform="matrix(1,0,0,1,246.552,255.748)"><path fill="#ffffff" d="M-9.454,144.724C-9.454,144.724,-144.724,9.454,-144.724,9.454C-149.945,4.233,-149.945,-4.232,-144.724,-9.453C-144.724,-9.453,-9.454,-144.724,-9.454,-144.724C-4.233,-149.945,4.232,-149.945,9.453,-144.724C9.453,-144.724,144.723,-9.453,144.723,-9.453C149.944,-4.232,149.944,4.233,144.723,9.454C144.723,9.454,9.453,144.724,9.453,144.724C4.232,149.945,-4.233,149.945,-9.454,144.724Z" /></g></g><g mask="url(#i6)" id="i15"><g transform="translate(640,504.982)"><animateTransform repeatCount="indefinite" type="translate" attributeName="transform" dur="4.7s" begin="0s" calcMode="spline" values="640 504.982; 640 504.982; -19 504.982" keyTimes="0; 0.007092; 1" keySplines="0 0 1 1; 0 0 1 1" fill="freeze" /><g transform="scale(0.93,0.93)"><animateTransform repeatCount="indefinite" type="scale" attributeName="transform" dur="4.7s" begin="0s" calcMode="spline" values="0.93 0.93; 0.93 0.93; 0.93 0.55; 0.93 0.93; 0.93 0.55; 0.93 0.93" keyTimes="0; 0.007092; 0.411347; 0.521276; 0.624113; 1" keySplines="0 0 1 1; 0.333 0 0.667 1; 0.333 0 0.667 1; 0.333 0 0.667 1; 0.333 0 0.667 1" fill="freeze" /><g transform="translate(0,0)"><g id="i16" transform="matrix(1,0,0,1,708.602,0)"><path fill="#70d0ef" d="M395.434,-12.51C384.62,-6.84,369.223,-12.277,359.939,-21.561C359.939,-21.561,350.082,-31.418,350.082,-31.418C336.006,-45.494,313.39,-46.134,298.541,-32.876C298.541,-32.876,276.371,-13.081,276.371,-13.081C272.23,-9.383,265.925,-9.549,261.983,-13.458C261.983,-13.458,203.691,-71.26,203.691,-71.26C173.79,-100.909,125.827,-101.684,94.978,-73.022C71.685,-51.381,46.174,-28.937,33.349,-17.751C28.714,-13.709,22.209,-12.751,16.651,-15.175C13.488,-16.834,10.54,-18.96,7.939,-21.561C7.939,-21.561,-1.918,-31.418,-1.918,-31.418C-15.994,-45.494,-38.61,-46.134,-53.459,-32.876C-53.459,-32.876,-75.629,-13.081,-75.629,-13.081C-79.77,-9.383,-86.075,-9.549,-90.017,-13.458C-90.017,-13.458,-148.309,-71.26,-148.309,-71.26C-178.21,-100.909,-226.173,-101.684,-257.022,-73.022C-280.315,-51.381,-305.826,-28.937,-318.651,-17.751C-323.65,-13.391,-330.828,-12.613,-336.643,-15.804C-344.651,-20.198,-356.756,-26.818,-369.495,-33.703C-395.011,-47.493,-426,-29.004,-426,0C-426,0,-426,0,-426,0C-426,29.004,-395.011,47.493,-369.495,33.703C-356.756,26.818,-344.651,20.198,-336.643,15.804C-330.828,12.613,-323.65,13.391,-318.651,17.751C-305.826,28.937,-280.315,51.381,-257.022,73.022C-226.173,101.684,-178.21,100.909,-148.309,71.26C-148.309,71.26,-90.017,13.458,-90.017,13.458C-86.075,9.549,-79.77,9.383,-75.629,13.081C-75.629,13.081,-53.459,32.876,-53.459,32.876C-38.61,46.134,-15.994,45.494,-1.918,31.418C-1.918,31.418,7.939,21.561,7.939,21.561C10.54,18.96,13.488,16.834,16.651,15.176C22.209,12.752,28.714,13.709,33.349,17.751C46.174,28.937,71.685,51.381,94.978,73.022C125.827,101.684,173.79,100.909,203.691,71.26C203.691,71.26,261.983,13.458,261.983,13.458C265.925,9.549,272.23,9.383,276.371,13.081C276.371,13.081,298.541,32.876,298.541,32.876C313.39,46.134,336.006,45.494,350.082,31.418C350.082,31.418,359.939,21.561,359.939,21.561C369.223,12.277,384.779,6.547,395.434,12.51C416.683,24.401,442.861,71.769,442.861,71.769C442.861,71.769,441.785,-68.274,441.785,-68.274C441.785,-68.274,416.014,-23.3,395.434,-12.51Z" /></g><g id="i4"><path fill="#70d0ef" d="M395.434,-12.51C384.62,-6.84,369.223,-12.277,359.939,-21.561C359.939,-21.561,350.082,-31.418,350.082,-31.418C336.006,-45.494,313.39,-46.134,298.541,-32.876C298.541,-32.876,276.371,-13.081,276.371,-13.081C272.23,-9.383,265.925,-9.549,261.983,-13.458C261.983,-13.458,203.691,-71.26,203.691,-71.26C173.79,-100.909,125.827,-101.684,94.978,-73.022C71.685,-51.381,46.174,-28.937,33.349,-17.751C28.714,-13.709,22.209,-12.751,16.651,-15.175C13.488,-16.834,10.54,-18.96,7.939,-21.561C7.939,-21.561,-1.918,-31.418,-1.918,-31.418C-15.994,-45.494,-38.61,-46.134,-53.459,-32.876C-53.459,-32.876,-75.629,-13.081,-75.629,-13.081C-79.77,-9.383,-86.075,-9.549,-90.017,-13.458C-90.017,-13.458,-148.309,-71.26,-148.309,-71.26C-178.21,-100.909,-226.173,-101.684,-257.022,-73.022C-280.315,-51.381,-305.826,-28.937,-318.651,-17.751C-323.65,-13.391,-330.828,-12.613,-336.643,-15.804C-344.651,-20.198,-356.756,-26.818,-369.495,-33.703C-395.011,-47.493,-426,-29.004,-426,0C-426,0,-426,0,-426,0C-426,29.004,-395.011,47.493,-369.495,33.703C-356.756,26.818,-344.651,20.198,-336.643,15.804C-330.828,12.613,-323.65,13.391,-318.651,17.751C-305.826,28.937,-280.315,51.381,-257.022,73.022C-226.173,101.684,-178.21,100.909,-148.309,71.26C-148.309,71.26,-90.017,13.458,-90.017,13.458C-86.075,9.549,-79.77,9.383,-75.629,13.081C-75.629,13.081,-53.459,32.876,-53.459,32.876C-38.61,46.134,-15.994,45.494,-1.918,31.418C-1.918,31.418,7.939,21.561,7.939,21.561C10.54,18.96,13.488,16.834,16.651,15.176C22.209,12.752,28.714,13.709,33.349,17.751C46.174,28.937,71.685,51.381,94.978,73.022C125.827,101.684,173.79,100.909,203.691,71.26C203.691,71.26,261.983,13.458,261.983,13.458C265.925,9.549,272.23,9.383,276.371,13.081C276.371,13.081,298.541,32.876,298.541,32.876C313.39,46.134,336.006,45.494,350.082,31.418C350.082,31.418,359.939,21.561,359.939,21.561C369.223,12.277,384.779,6.547,395.434,12.51C416.683,24.401,442.874,53.758,442.874,53.758C442.874,53.758,441.798,-54.833,441.798,-54.833C441.798,-54.833,416.014,-23.3,395.434,-12.51Z" /></g></g></g></g></g><g display="none" transform="matrix(1.5,0,0,1.5,128.529,114.411)" id="i17"><g id="i4" transform="matrix(1,0,0,1,246.552,255.748)"><path fill="#ffffff" d="M-9.454,144.724C-9.454,144.724,-144.724,9.454,-144.724,9.454C-149.945,4.233,-149.945,-4.232,-144.724,-9.453C-144.724,-9.453,-9.454,-144.724,-9.454,-144.724C-4.233,-149.945,4.232,-149.945,9.453,-144.724C9.453,-144.724,144.723,-9.453,144.723,-9.453C149.944,-4.232,149.944,4.233,144.723,9.454C144.723,9.454,9.453,144.724,9.453,144.724C4.232,149.945,-4.233,149.945,-9.454,144.724Z" /></g></g><g mask="url(#i8)" opacity="0.47" style="mix-blend-mode: multiply" id="i18"><g transform="translate(262.215,504.986)"><animateTransform repeatCount="indefinite" type="translate" attributeName="transform" dur="4.7s" begin="0s" calcMode="spline" values="262 504.982; 706 512.461; 262 504.982" keyTimes="0; 0.514184; 1" keySplines="0.333 0 0.667 1; 0.333 0 0.833 1" fill="freeze" /><g transform="scale(1.08,1.08)"><animateTransform repeatCount="indefinite" type="scale" attributeName="transform" dur="4.7s" begin="0s" calcMode="spline" values="1.08 1.08; 1.08 1.08; 1.08 1.53; 1.08 1.08; 1.08 1.08; 1.08 1.53; 1.08 1.08; 1.08 1.08" keyTimes="0; 0.276596; 0.351064; 0.43617; 0.585106; 0.659575; 0.744681; 1" keySplines="0 0 1 1; 0 0 1 1; 0 0 1 1; 0 0 1 1; 0 0 1 1; 0 0 1 1; 0 0 1 1" fill="freeze" /><g transform="translate(0,0)"><g id="i4" fill="url(#i0)"><path d="M395.434,-12.51C382.837,-8.805,369.223,-12.277,359.939,-21.561C359.939,-21.561,350.082,-31.418,350.082,-31.418C336.006,-45.494,313.39,-46.134,298.541,-32.876C298.541,-32.876,276.371,-13.081,276.371,-13.081C272.23,-9.383,265.925,-9.549,261.983,-13.458C261.983,-13.458,203.691,-71.26,203.691,-71.26C173.79,-100.909,125.827,-101.684,94.978,-73.022C71.685,-51.381,46.174,-28.937,33.349,-17.751C28.714,-13.709,22.209,-12.751,16.651,-15.175C13.488,-16.834,10.54,-18.96,7.939,-21.561C7.939,-21.561,-1.918,-31.418,-1.918,-31.418C-15.994,-45.494,-38.61,-46.134,-53.459,-32.876C-53.459,-32.876,-75.629,-13.081,-75.629,-13.081C-79.77,-9.383,-86.075,-9.549,-90.017,-13.458C-90.017,-13.458,-148.309,-71.26,-148.309,-71.26C-178.21,-100.909,-226.173,-101.684,-257.022,-73.022C-280.315,-51.381,-305.826,-28.937,-318.651,-17.751C-323.65,-13.391,-330.828,-12.613,-336.643,-15.804C-344.651,-20.198,-356.756,-26.818,-369.495,-33.703C-395.011,-47.493,-426,-29.004,-426,0C-426,0,-426,0,-426,0C-426,29.004,-395.011,47.493,-369.495,33.703C-356.756,26.818,-344.651,20.198,-336.643,15.804C-330.828,12.613,-323.65,13.391,-318.651,17.751C-305.826,28.937,-280.315,51.381,-257.022,73.022C-226.173,101.684,-178.21,100.909,-148.309,71.26C-148.309,71.26,-90.017,13.458,-90.017,13.458C-86.075,9.549,-79.77,9.383,-75.629,13.081C-75.629,13.081,-53.459,32.876,-53.459,32.876C-38.61,46.134,-15.994,45.494,-1.918,31.418C-1.918,31.418,7.939,21.561,7.939,21.561C10.54,18.96,13.488,16.834,16.651,15.176C22.209,12.752,28.714,13.709,33.349,17.751C46.174,28.937,71.685,51.381,94.978,73.022C125.827,101.684,173.79,100.909,203.691,71.26C203.691,71.26,261.983,13.458,261.983,13.458C265.925,9.549,272.23,9.383,276.371,13.081C276.371,13.081,298.541,32.876,298.541,32.876C313.39,46.134,336.006,45.494,350.082,31.418C350.082,31.418,359.939,21.561,359.939,21.561C369.223,12.277,382.837,8.805,395.434,12.51C395.434,12.51,426,21.5,426,21.5C426,21.5,426,-21.5,426,-21.5C426,-21.5,395.434,-12.51,395.434,-12.51Z" /></g></g></g></g></g><g display="none" transform="matrix(1.5,0,0,1.5,128.529,114.411)" id="i19"><g id="i4" transform="matrix(1,0,0,1,246.552,255.748)"><path fill="#ffffff" d="M-9.454,144.724C-9.454,144.724,-144.724,9.454,-144.724,9.454C-149.945,4.233,-149.945,-4.232,-144.724,-9.453C-144.724,-9.453,-9.454,-144.724,-9.454,-144.724C-4.233,-149.945,4.232,-149.945,9.453,-144.724C9.453,-144.724,144.723,-9.453,144.723,-9.453C149.944,-4.232,149.944,4.233,144.723,9.454C144.723,9.454,9.453,144.724,9.453,144.724C4.232,149.945,-4.233,149.945,-9.454,144.724Z" /></g></g><g mask="url(#i10)" opacity="0.55" style="mix-blend-mode: multiply" id="i20"><g transform="translate(262.418,504.989)"><animateTransform repeatCount="indefinite" type="translate" attributeName="transform" dur="4.7s" begin="0s" calcMode="spline" values="262 504.982; 706 512.461; 262 504.982" keyTimes="0; 0.368794; 1" keySplines="0.333 0 0.667 1; 0.333 0 0.833 1" fill="freeze" /><g transform="scale(1.08,1.08)"><animateTransform repeatCount="indefinite" type="scale" attributeName="transform" dur="4.7s" begin="0s" calcMode="spline" values="1.08 1.08; 1.08 1.08; 1.08 1.53; 1.08 1.08; 1.08 1.08; 1.08 1.53; 1.08 1.08; 1.08 1.08" keyTimes="0; 0.131206; 0.205674; 0.29078; 0.659574; 0.734043; 0.819149; 1" keySplines="0 0 1 1; 0 0 1 1; 0 0 1 1; 0 0 1 1; 0 0 1 1; 0 0 1 1; 0 0 1 1" fill="freeze" /><g transform="translate(0,0)"><g id="i4" fill="url(#i1)"><path d="M395.434,-12.51C382.837,-8.805,369.223,-12.277,359.939,-21.561C359.939,-21.561,350.082,-31.418,350.082,-31.418C336.006,-45.494,313.39,-46.134,298.541,-32.876C298.541,-32.876,276.371,-13.081,276.371,-13.081C272.23,-9.383,265.925,-9.549,261.983,-13.458C261.983,-13.458,203.691,-71.26,203.691,-71.26C173.79,-100.909,125.827,-101.684,94.978,-73.022C71.685,-51.381,46.174,-28.937,33.349,-17.751C28.714,-13.709,22.209,-12.751,16.651,-15.175C13.488,-16.834,10.54,-18.96,7.939,-21.561C7.939,-21.561,-1.918,-31.418,-1.918,-31.418C-15.994,-45.494,-38.61,-46.134,-53.459,-32.876C-53.459,-32.876,-75.629,-13.081,-75.629,-13.081C-79.77,-9.383,-86.075,-9.549,-90.017,-13.458C-90.017,-13.458,-148.309,-71.26,-148.309,-71.26C-178.21,-100.909,-226.173,-101.684,-257.022,-73.022C-280.315,-51.381,-305.826,-28.937,-318.651,-17.751C-323.65,-13.391,-330.828,-12.613,-336.643,-15.804C-344.651,-20.198,-356.756,-26.818,-369.495,-33.703C-395.011,-47.493,-426,-29.004,-426,0C-426,0,-426,0,-426,0C-426,29.004,-395.011,47.493,-369.495,33.703C-356.756,26.818,-344.651,20.198,-336.643,15.804C-330.828,12.613,-323.65,13.391,-318.651,17.751C-305.826,28.937,-280.315,51.381,-257.022,73.022C-226.173,101.684,-178.21,100.909,-148.309,71.26C-148.309,71.26,-90.017,13.458,-90.017,13.458C-86.075,9.549,-79.77,9.383,-75.629,13.081C-75.629,13.081,-53.459,32.876,-53.459,32.876C-38.61,46.134,-15.994,45.494,-1.918,31.418C-1.918,31.418,7.939,21.561,7.939,21.561C10.54,18.96,13.488,16.834,16.651,15.176C22.209,12.752,28.714,13.709,33.349,17.751C46.174,28.937,71.685,51.381,94.978,73.022C125.827,101.684,173.79,100.909,203.691,71.26C203.691,71.26,261.983,13.458,261.983,13.458C265.925,9.549,272.23,9.383,276.371,13.081C276.371,13.081,298.541,32.876,298.541,32.876C313.39,46.134,336.006,45.494,350.082,31.418C350.082,31.418,359.939,21.561,359.939,21.561C369.223,12.277,382.837,8.805,395.434,12.51C395.434,12.51,426,21.5,426,21.5C426,21.5,426,-21.5,426,-21.5C426,-21.5,395.434,-12.51,395.434,-12.51Z" /></g></g></g></g></g><g display="none" transform="matrix(1.5,0,0,1.5,128.529,114.411)" id="i21"><g id="i4" transform="matrix(1,0,0,1,246.552,255.748)"><path fill="#ffffff" d="M-9.454,144.724C-9.454,144.724,-144.724,9.454,-144.724,9.454C-149.945,4.233,-149.945,-4.232,-144.724,-9.453C-144.724,-9.453,-9.454,-144.724,-9.454,-144.724C-4.233,-149.945,4.232,-149.945,9.453,-144.724C9.453,-144.724,144.723,-9.453,144.723,-9.453C149.944,-4.232,149.944,4.233,144.723,9.454C144.723,9.454,9.453,144.724,9.453,144.724C4.232,149.945,-4.233,149.945,-9.454,144.724Z" /></g></g></g></svg>