<svg fill="none" height="100%" width="100%" viewBox="0 0 1000 1000" xmlns:xlink="http://www.w3.org/1999/xlink" xmlns="http://www.w3.org/2000/svg"><defs><linearGradient id="i0" gradientUnits="userSpaceOnUse" spreadMethod="pad" x2="213.216" y2="213.106" x1="-214.773" y1="-214.882"><stop offset="0%" stop-color="#f6f8ff" /><stop offset="50%" stop-color="#edeffe" /><stop offset="100%" stop-color="#e5e7fe" /></linearGradient><clipPath id="i1"><rect height="1000" width="1000" y="0" x="0" /></clipPath><g id="i2"><g transform="matrix(1,0,0,1,0,0)" visibility="hidden" id="i3"><animate repeatCount="indefinite" begin="0s" calcMode="discrete" dur="2.517s" values="hidden; visible; visible" keyTimes="0; 0.066009; 1" attributeName="visibility" /><g opacity="0"><animate repeatCount="indefinite" attributeName="opacity" dur="2.517s" begin="0s" fill="freeze" values="0; 0; 1; 1" keyTimes="0; 0.13245; 0.397351; 1" keySplines="0 0 1 1; 0.333 0 0 1; 0 0 1 1" calcMode="spline" /><g transform="translate(551.629,661.888)"><animateTransform repeatCount="indefinite" type="translate" attributeName="transform" dur="2.517s" begin="0s" calcMode="spline" values="551.629 661.888; 551.629 661.888; 551.629 561.888; 551.629 561.888" keyTimes="0; 0.13245; 0.397351; 1" keySplines="0 0 1 1; 0.333 0 0 1; 0 0 1 1" fill="freeze" /><g id="i4" transform="translate(-551.629,-561.888)"><g id="i5" transform="matrix(1,0,0,1,493.481,561.888)"><path fill="#e7ecf4" d="M10.572,10.767C10.572,10.767,-10.572,10.767,-10.572,10.767C-16.519,10.767,-21.34,5.947,-21.34,0C-21.34,0,-21.34,0,-21.34,0C-21.34,-5.947,-16.519,-10.767,-10.572,-10.767C-10.572,-10.767,10.572,-10.767,10.572,-10.767C16.519,-10.767,21.34,-5.947,21.34,0C21.34,0,21.34,0,21.34,0C21.34,5.947,16.519,10.767,10.572,10.767Z" /></g><g id="i6" transform="matrix(1,0,0,1,551.629,561.888)"><path fill="#e7ecf4" d="M10.572,10.767C10.572,10.767,-10.572,10.767,-10.572,10.767C-16.519,10.767,-21.34,5.947,-21.34,0C-21.34,0,-21.34,0,-21.34,0C-21.34,-5.947,-16.519,-10.767,-10.572,-10.767C-10.572,-10.767,10.572,-10.767,10.572,-10.767C16.519,-10.767,21.34,-5.947,21.34,0C21.34,0,21.34,0,21.34,0C21.34,5.947,16.519,10.767,10.572,10.767Z" /></g><g id="i7" transform="matrix(1,0,0,1,609.776,561.888)"><path fill="#e7ecf4" d="M10.572,10.767C10.572,10.767,-10.572,10.767,-10.572,10.767C-16.519,10.767,-21.34,5.947,-21.34,0C-21.34,0,-21.34,0,-21.34,0C-21.34,-5.947,-16.519,-10.767,-10.572,-10.767C-10.572,-10.767,10.572,-10.767,10.572,-10.767C16.519,-10.767,21.34,-5.947,21.34,0C21.34,0,21.34,0,21.34,0C21.34,5.947,16.519,10.767,10.572,10.767Z" /></g></g></g></g><g opacity="0"><animate repeatCount="indefinite" attributeName="opacity" dur="2.517s" begin="0s" fill="freeze" values="0; 0; 1; 1" keyTimes="0; 0.10596; 0.370861; 1" keySplines="0 0 1 1; 0.333 0 0 1; 0 0 1 1" calcMode="spline" /><g transform="translate(551.629,620.74)"><animateTransform repeatCount="indefinite" type="translate" attributeName="transform" dur="2.517s" begin="0s" calcMode="spline" values="551.629 620.74; 551.629 620.74; 551.629 520.74; 551.629 520.74" keyTimes="0; 0.10596; 0.370861; 1" keySplines="0 0 1 1; 0.333 0 0 1; 0 0 1 1" fill="freeze" /><g id="i8" transform="translate(-551.629,-520.74)"><g id="i9" transform="matrix(1,0,0,1,493.481,520.74)"><path fill="#e7ecf4" d="M10.572,10.767C10.572,10.767,-10.572,10.767,-10.572,10.767C-16.519,10.767,-21.34,5.947,-21.34,0C-21.34,0,-21.34,0,-21.34,0C-21.34,-5.947,-16.519,-10.767,-10.572,-10.767C-10.572,-10.767,10.572,-10.767,10.572,-10.767C16.519,-10.767,21.34,-5.947,21.34,0C21.34,0,21.34,0,21.34,0C21.34,5.947,16.519,10.767,10.572,10.767Z" /></g><g id="i10" transform="matrix(1,0,0,1,551.629,520.74)"><path fill="#e7ecf4" d="M10.572,10.767C10.572,10.767,-10.572,10.767,-10.572,10.767C-16.519,10.767,-21.34,5.947,-21.34,0C-21.34,0,-21.34,0,-21.34,0C-21.34,-5.947,-16.519,-10.767,-10.572,-10.767C-10.572,-10.767,10.572,-10.767,10.572,-10.767C16.519,-10.767,21.34,-5.947,21.34,0C21.34,0,21.34,0,21.34,0C21.34,5.947,16.519,10.767,10.572,10.767Z" /></g><g id="i11" transform="matrix(1,0,0,1,609.776,520.74)"><path fill="#e7ecf4" d="M10.572,10.767C10.572,10.767,-10.572,10.767,-10.572,10.767C-16.519,10.767,-21.34,5.947,-21.34,0C-21.34,0,-21.34,0,-21.34,0C-21.34,-5.947,-16.519,-10.767,-10.572,-10.767C-10.572,-10.767,10.572,-10.767,10.572,-10.767C16.519,-10.767,21.34,-5.947,21.34,0C21.34,0,21.34,0,21.34,0C21.34,5.947,16.519,10.767,10.572,10.767Z" /></g></g></g></g><g opacity="0"><animate repeatCount="indefinite" attributeName="opacity" dur="2.517s" begin="0s" fill="freeze" values="0; 0; 1; 1" keyTimes="0; 0.07947; 0.344371; 1" keySplines="0 0 1 1; 0.333 0 0 1; 0 0 1 1" calcMode="spline" /><g transform="translate(551.629,583.85)"><animateTransform repeatCount="indefinite" type="translate" attributeName="transform" dur="2.517s" begin="0s" calcMode="spline" values="551.629 583.85; 551.629 583.85; 551.629 483.85; 551.629 483.85" keyTimes="0; 0.07947; 0.344371; 1" keySplines="0 0 1 1; 0.333 0 0 1; 0 0 1 1" fill="freeze" /><g id="i12" transform="translate(-551.629,-483.85)"><g id="i13" transform="matrix(1,0,0,1,493.481,483.85)"><path fill="#e7ecf4" d="M10.572,10.767C10.572,10.767,-10.572,10.767,-10.572,10.767C-16.519,10.767,-21.34,5.947,-21.34,0C-21.34,0,-21.34,0,-21.34,0C-21.34,-5.947,-16.519,-10.767,-10.572,-10.767C-10.572,-10.767,10.572,-10.767,10.572,-10.767C16.519,-10.767,21.34,-5.947,21.34,0C21.34,0,21.34,0,21.34,0C21.34,5.947,16.519,10.767,10.572,10.767Z" /></g><g id="i14" transform="matrix(1,0,0,1,551.629,483.85)"><path fill="#e7ecf4" d="M10.572,10.767C10.572,10.767,-10.572,10.767,-10.572,10.767C-16.519,10.767,-21.34,5.947,-21.34,0C-21.34,0,-21.34,0,-21.34,0C-21.34,-5.947,-16.519,-10.767,-10.572,-10.767C-10.572,-10.767,10.572,-10.767,10.572,-10.767C16.519,-10.767,21.34,-5.947,21.34,0C21.34,0,21.34,0,21.34,0C21.34,5.947,16.519,10.767,10.572,10.767Z" /></g><g id="i15" transform="matrix(1,0,0,1,609.776,483.85)"><path fill="#e7ecf4" d="M10.572,10.767C10.572,10.767,-10.572,10.767,-10.572,10.767C-16.519,10.767,-21.34,5.947,-21.34,0C-21.34,0,-21.34,0,-21.34,0C-21.34,-5.947,-16.519,-10.767,-10.572,-10.767C-10.572,-10.767,10.572,-10.767,10.572,-10.767C16.519,-10.767,21.34,-5.947,21.34,0C21.34,0,21.34,0,21.34,0C21.34,5.947,16.519,10.767,10.572,10.767Z" /></g></g></g></g><g opacity="0"><animate repeatCount="indefinite" attributeName="opacity" dur="2.517s" begin="0s" fill="freeze" values="0; 0; 1; 1" keyTimes="0; 0.05298; 0.317881; 1" keySplines="0 0 1 1; 0.333 0 0 1; 0 0 1 1" calcMode="spline" /><g transform="translate(551.629,546.959)"><animateTransform repeatCount="indefinite" type="translate" attributeName="transform" dur="2.517s" begin="0s" calcMode="spline" values="551.629 546.959; 551.629 546.959; 551.629 446.959; 551.629 446.959" keyTimes="0; 0.05298; 0.317881; 1" keySplines="0 0 1 1; 0.333 0 0 1; 0 0 1 1" fill="freeze" /><g id="i16" transform="translate(-551.629,-446.959)"><g id="i17" transform="matrix(1,0,0,1,493.481,446.959)"><path fill="#e7ecf4" d="M10.572,10.767C10.572,10.767,-10.572,10.767,-10.572,10.767C-16.519,10.767,-21.34,5.947,-21.34,0C-21.34,0,-21.34,0,-21.34,0C-21.34,-5.947,-16.519,-10.767,-10.572,-10.767C-10.572,-10.767,10.572,-10.767,10.572,-10.767C16.519,-10.767,21.34,-5.947,21.34,0C21.34,0,21.34,0,21.34,0C21.34,5.947,16.519,10.767,10.572,10.767Z" /></g><g id="i18" transform="matrix(1,0,0,1,551.629,446.959)"><path fill="#e7ecf4" d="M10.572,10.767C10.572,10.767,-10.572,10.767,-10.572,10.767C-16.519,10.767,-21.34,5.947,-21.34,0C-21.34,0,-21.34,0,-21.34,0C-21.34,-5.947,-16.519,-10.767,-10.572,-10.767C-10.572,-10.767,10.572,-10.767,10.572,-10.767C16.519,-10.767,21.34,-5.947,21.34,0C21.34,0,21.34,0,21.34,0C21.34,5.947,16.519,10.767,10.572,10.767Z" /></g><g id="i19" transform="matrix(1,0,0,1,609.776,446.959)"><path fill="#e7ecf4" d="M10.572,10.767C10.572,10.767,-10.572,10.767,-10.572,10.767C-16.519,10.767,-21.34,5.947,-21.34,0C-21.34,0,-21.34,0,-21.34,0C-21.34,-5.947,-16.519,-10.767,-10.572,-10.767C-10.572,-10.767,10.572,-10.767,10.572,-10.767C16.519,-10.767,21.34,-5.947,21.34,0C21.34,0,21.34,0,21.34,0C21.34,5.947,16.519,10.767,10.572,10.767Z" /></g></g></g></g></g><g opacity="0" visibility="hidden" id="i20"><animate repeatCount="indefinite" begin="0s" calcMode="discrete" dur="2.517s" values="hidden; visible; visible" keyTimes="0; 0.066009; 1" attributeName="visibility" /><animate repeatCount="indefinite" attributeName="opacity" dur="2.517s" begin="0s" fill="freeze" values="0; 0; 1; 1" keyTimes="0; 0.066225; 0.331126; 1" keySplines="0 0 1 1; 0.333 0 0 1; 0 0 1 1" calcMode="spline" /><g transform="translate(555.183,449.798)"><animateTransform repeatCount="indefinite" type="translate" attributeName="transform" dur="2.517s" begin="0s" calcMode="spline" values="555.183 449.798; 555.183 449.798; 555.183 349.798; 555.183 349.798" keyTimes="0; 0.066225; 0.331126; 1" keySplines="0 0 1 1; 0.333 0 0 1; 0 0 1 1" fill="freeze" /><g transform="scale(1,1) translate(-55.183,150.202)"><g id="i7"><path fill="#798af8" d="M38.955,-159.95C38.955,-162.14,38.938,-164.241,38.958,-166.342C39.025,-173.456,43.216,-179.451,49.67,-181.688C60.336,-185.385,71.075,-177.996,71.395,-166.717C71.458,-164.491,71.404,-162.263,71.404,-159.999C72.142,-159.897,72.844,-159.843,73.527,-159.698C78.021,-158.741,81.087,-155.051,81.125,-150.334C81.187,-142.659,81.203,-134.982,81.119,-127.307C81.059,-121.813,76.94,-117.798,71.449,-117.781C60.604,-117.747,49.76,-117.746,38.915,-117.781C33.428,-117.799,29.304,-121.825,29.247,-127.311C29.167,-134.986,29.175,-142.663,29.243,-150.338C29.29,-155.646,33.141,-159.577,38.424,-159.912C38.572,-159.921,38.72,-159.933,38.955,-159.95ZM45.57,-159.98C51.988,-159.98,58.43,-159.98,64.897,-159.98C64.897,-162.39,64.989,-164.746,64.879,-167.094C64.642,-172.147,60.652,-175.939,55.49,-176.141C50.498,-176.336,46.161,-172.861,45.62,-167.923C45.335,-165.325,45.57,-162.67,45.57,-159.98ZM51.951,-135.875C51.951,-135.242,51.939,-134.609,51.953,-133.976C51.998,-131.975,53.243,-130.734,55.19,-130.736C57.135,-130.738,58.377,-131.979,58.412,-133.988C58.435,-135.279,58.388,-136.572,58.438,-137.861C58.452,-138.222,58.614,-138.647,58.85,-138.919C60.459,-140.77,60.459,-143.518,58.81,-145.288C56.947,-147.288,54.432,-147.517,52.261,-145.884C50.182,-144.32,49.616,-141.773,51.118,-139.648C51.845,-138.62,52.013,-137.627,51.951,-136.483C51.94,-136.281,51.949,-136.078,51.951,-135.875Z" /></g></g></g></g><g opacity="0" visibility="hidden" id="i21"><animate repeatCount="indefinite" begin="0s" calcMode="discrete" dur="2.517s" values="hidden; visible; visible" keyTimes="0; 0.066009; 1" attributeName="visibility" /><animate repeatCount="indefinite" attributeName="opacity" dur="2.517s" begin="0s" fill="freeze" values="0; 0; 1; 1" keyTimes="0; 0.092715; 0.357616; 1" keySplines="0 0 1 1; 0.333 0 0 1; 0 0 1 1" calcMode="spline" /><g transform="translate(554.159,494.46)"><animateTransform repeatCount="indefinite" type="translate" attributeName="transform" dur="2.517s" begin="0s" calcMode="spline" values="554.159 494.46; 554.159 494.46; 554.159 394.46; 554.159 394.46" keyTimes="0; 0.092715; 0.357616; 1" keySplines="0 0 1 1; 0.333 0 0 1; 0 0 1 1" fill="freeze" /><g transform="scale(1,1) translate(-554.159,-394.46)"><g id="i10" transform="matrix(1,0,0,1,554.159,394.46)"><path fill="#58c58e" d="M42.894,19.66C42.894,19.66,-42.894,19.66,-42.894,19.66C-45.338,19.66,-47.319,17.678,-47.319,15.234C-47.319,15.234,-47.319,-15.234,-47.319,-15.234C-47.319,-17.678,-45.338,-19.66,-42.894,-19.66C-42.894,-19.66,42.894,-19.66,42.894,-19.66C45.338,-19.66,47.319,-17.678,47.319,-15.234C47.319,-15.234,47.319,15.234,47.319,15.234C47.319,17.678,45.338,19.66,42.894,19.66Z" /></g><g id="i11" transform="matrix(1,0,0,1,524.007,393.811)"><g id="i7"><path fill="#ffffff" d="M7.347,-1.992C7.712,-0.82,7.361,-0.104,6.293,0.156C6.293,0.156,2.308,1.133,2.308,1.133C2.829,1.758,3.728,2.826,5.004,4.336C5.395,4.779,5.59,5.118,5.59,5.352C5.59,5.664,5.238,6.068,4.535,6.562C3.962,6.979,3.532,7.187,3.246,7.187C2.907,7.187,2.568,6.901,2.23,6.328C1.709,5.521,0.981,4.349,0.043,2.812C-0.4,3.49,-1.143,4.662,-2.184,6.328C-2.549,6.953,-2.874,7.266,-3.16,7.266C-3.42,7.266,-3.864,7.038,-4.489,6.582C-5.114,6.127,-5.426,5.73,-5.426,5.391C-5.426,5.105,-5.257,4.753,-4.918,4.336C-4.319,3.607,-3.408,2.539,-2.184,1.133C-2.627,1.055,-4.006,0.729,-6.324,0.156C-6.975,0,-7.353,-0.209,-7.457,-0.469C-7.535,-0.703,-7.457,-1.211,-7.223,-1.992C-6.937,-2.877,-6.572,-3.32,-6.129,-3.32C-5.895,-3.32,-5.596,-3.255,-5.231,-3.125C-3.616,-2.474,-2.328,-1.914,-1.364,-1.445C-1.442,-2.278,-1.559,-3.685,-1.715,-5.664C-1.768,-6.549,-1.546,-7.056,-1.051,-7.187C-0.817,-7.239,-0.452,-7.266,0.043,-7.266C1.24,-7.266,1.8,-6.732,1.722,-5.664C1.644,-3.945,1.54,-2.564,1.41,-1.523C2.451,-1.966,3.766,-2.5,5.355,-3.125C5.771,-3.281,6.084,-3.359,6.293,-3.359C6.709,-3.359,7.06,-2.903,7.347,-1.992Z" /></g></g><g id="i5" transform="matrix(1,0,0,1,544.092,393.811)"><g id="i7"><path fill="#ffffff" d="M7.347,-1.992C7.712,-0.82,7.361,-0.104,6.293,0.156C6.293,0.156,2.308,1.133,2.308,1.133C2.829,1.758,3.728,2.826,5.004,4.336C5.395,4.779,5.59,5.118,5.59,5.352C5.59,5.664,5.238,6.068,4.535,6.562C3.962,6.979,3.532,7.187,3.246,7.187C2.907,7.187,2.568,6.901,2.23,6.328C1.709,5.521,0.981,4.349,0.043,2.812C-0.4,3.49,-1.143,4.662,-2.184,6.328C-2.549,6.953,-2.874,7.266,-3.16,7.266C-3.42,7.266,-3.864,7.038,-4.489,6.582C-5.114,6.127,-5.426,5.73,-5.426,5.391C-5.426,5.105,-5.257,4.753,-4.918,4.336C-4.319,3.607,-3.408,2.539,-2.184,1.133C-2.627,1.055,-4.006,0.729,-6.324,0.156C-6.975,0,-7.353,-0.209,-7.457,-0.469C-7.535,-0.703,-7.457,-1.211,-7.223,-1.992C-6.937,-2.877,-6.572,-3.32,-6.129,-3.32C-5.895,-3.32,-5.596,-3.255,-5.231,-3.125C-3.616,-2.474,-2.328,-1.914,-1.364,-1.445C-1.442,-2.278,-1.559,-3.685,-1.715,-5.664C-1.768,-6.549,-1.546,-7.056,-1.051,-7.187C-0.817,-7.239,-0.452,-7.266,0.043,-7.266C1.24,-7.266,1.8,-6.732,1.722,-5.664C1.644,-3.945,1.54,-2.564,1.41,-1.523C2.451,-1.966,3.766,-2.5,5.355,-3.125C5.771,-3.281,6.084,-3.359,6.293,-3.359C6.709,-3.359,7.06,-2.903,7.347,-1.992Z" /></g></g><g id="i6" transform="matrix(1,0,0,1,564.177,393.811)"><g id="i7"><path fill="#ffffff" d="M7.347,-1.992C7.712,-0.82,7.361,-0.104,6.293,0.156C6.293,0.156,2.308,1.133,2.308,1.133C2.829,1.758,3.728,2.826,5.004,4.336C5.395,4.779,5.59,5.118,5.59,5.352C5.59,5.664,5.238,6.068,4.535,6.562C3.962,6.979,3.532,7.187,3.246,7.187C2.907,7.187,2.568,6.901,2.23,6.328C1.709,5.521,0.981,4.349,0.043,2.812C-0.4,3.49,-1.143,4.662,-2.184,6.328C-2.549,6.953,-2.874,7.266,-3.16,7.266C-3.42,7.266,-3.864,7.038,-4.489,6.582C-5.114,6.127,-5.426,5.73,-5.426,5.391C-5.426,5.105,-5.257,4.753,-4.918,4.336C-4.319,3.607,-3.408,2.539,-2.184,1.133C-2.627,1.055,-4.006,0.729,-6.324,0.156C-6.975,0,-7.353,-0.209,-7.457,-0.469C-7.535,-0.703,-7.457,-1.211,-7.223,-1.992C-6.937,-2.877,-6.572,-3.32,-6.129,-3.32C-5.895,-3.32,-5.596,-3.255,-5.231,-3.125C-3.616,-2.474,-2.328,-1.914,-1.364,-1.445C-1.442,-2.278,-1.559,-3.685,-1.715,-5.664C-1.768,-6.549,-1.546,-7.056,-1.051,-7.187C-0.817,-7.239,-0.452,-7.266,0.043,-7.266C1.24,-7.266,1.8,-6.732,1.722,-5.664C1.644,-3.945,1.54,-2.564,1.41,-1.523C2.451,-1.966,3.766,-2.5,5.355,-3.125C5.771,-3.281,6.084,-3.359,6.293,-3.359C6.709,-3.359,7.06,-2.903,7.347,-1.992Z" /></g></g><g id="i7" transform="matrix(1,0,0,1,584.262,393.811)"><g id="i7"><path fill="#ffffff" d="M7.347,-1.992C7.712,-0.82,7.361,-0.104,6.293,0.156C6.293,0.156,2.308,1.133,2.308,1.133C2.829,1.758,3.728,2.826,5.004,4.336C5.395,4.779,5.59,5.118,5.59,5.352C5.59,5.664,5.238,6.068,4.535,6.562C3.962,6.979,3.532,7.187,3.246,7.187C2.907,7.187,2.568,6.901,2.23,6.328C1.709,5.521,0.981,4.349,0.043,2.812C-0.4,3.49,-1.143,4.662,-2.184,6.328C-2.549,6.953,-2.874,7.266,-3.16,7.266C-3.42,7.266,-3.864,7.038,-4.489,6.582C-5.114,6.127,-5.426,5.73,-5.426,5.391C-5.426,5.105,-5.257,4.753,-4.918,4.336C-4.319,3.607,-3.408,2.539,-2.184,1.133C-2.627,1.055,-4.006,0.729,-6.324,0.156C-6.975,0,-7.353,-0.209,-7.457,-0.469C-7.535,-0.703,-7.457,-1.211,-7.223,-1.992C-6.937,-2.877,-6.572,-3.32,-6.129,-3.32C-5.895,-3.32,-5.596,-3.255,-5.231,-3.125C-3.616,-2.474,-2.328,-1.914,-1.364,-1.445C-1.442,-2.278,-1.559,-3.685,-1.715,-5.664C-1.768,-6.549,-1.546,-7.056,-1.051,-7.187C-0.817,-7.239,-0.452,-7.266,0.043,-7.266C1.24,-7.266,1.8,-6.732,1.722,-5.664C1.644,-3.945,1.54,-2.564,1.41,-1.523C2.451,-1.966,3.766,-2.5,5.355,-3.125C5.771,-3.281,6.084,-3.359,6.293,-3.359C6.709,-3.359,7.06,-2.903,7.347,-1.992Z" /></g></g></g></g></g></g><filter id="i22"><feColorMatrix values="0 0 0 0 1 0 0 0 0 1 0 0 0 0 1 0 0 0 1 0" type="matrix" /></filter><mask height="20000" width="20000" y="-10000" x="-10000" maskContentUnits="userSpaceOnUse" maskUnits="userSpaceOnUse" style="mask-type: alpha" mask-type="alpha" id="i23"><g transform="matrix(1,0,0,1,0,0)"><g filter="url(#i22)" transform="matrix(1,0,0,1,0,0)"><g id="i6" transform="matrix(1,0,0,1,551.564,436.192)"><rect height="303.746" width="174.719" y="-151.873" x="-87.359" fill="#ffffff" /></g></g></g></mask><g id="i24"><g transform="matrix(1,0,0,1,0,0)" id="i25"><g transform="matrix(1,0,0,1,653.169,425.402)" visibility="hidden" id="i26"><animate repeatCount="indefinite" begin="0s" calcMode="discrete" dur="2.517s" values="hidden; visible; visible" keyTimes="0; 0.066009; 1" attributeName="visibility" /><g id="i26"><path fill="#fad8c0" d="M-29.239,0.462C-32.053,5.845,-31.614,14.05,-28.281,18.698C-28.281,18.698,-17.68,33.418,10.521,18.882C38.737,4.346,31.449,-15.629,26.077,-17.015C26.077,-17.015,-4.831,-24.977,-4.831,-24.977C-10.187,-26.363,-16.884,-23.09,-19.718,-17.708C-19.718,-17.708,-29.239,0.462,-29.239,0.462Z" /></g></g></g><g transform="matrix(1,0,0,1,0,0)" id="i25"><g transform="matrix(1,0,0,1,670.829,483.85)" visibility="hidden" id="i27"><animate repeatCount="indefinite" begin="0s" calcMode="discrete" dur="2.517s" values="hidden; visible; visible" keyTimes="0; 0.066009; 1" attributeName="visibility" /><g id="i26"><path fill="#fad8c0" d="M-25.605,2.641C-28.429,8.023,-28,16.224,-24.647,20.872C-24.647,20.872,-15.824,33.155,9.426,20.148C34.676,7.141,27.703,-10.846,22.321,-12.232C22.321,-12.232,-3.276,-18.827,-3.276,-18.827C-8.648,-20.213,-15.365,-29.89,-18.179,-24.508C-18.179,-24.508,-25.605,2.641,-25.605,2.641Z" /></g></g></g><g transform="matrix(1,0,0,1,0,0)" id="i25"><g transform="matrix(1,0,0,1,656.222,542.022)" visibility="hidden" id="i28"><animate repeatCount="indefinite" begin="0s" calcMode="discrete" dur="2.517s" values="hidden; visible; visible" keyTimes="0; 0.066009; 1" attributeName="visibility" /><g id="i26"><path fill="#fad8c0" d="M-21.824,-2.234C-24.637,3.143,-24.22,11.349,-20.866,15.997C-20.866,15.997,-13.863,25.727,8.273,14.325C30.424,2.919,23.747,-13.004,18.375,-14.39C18.375,-14.39,-1.666,-19.548,-1.666,-19.548C-7.038,-20.93,-13.74,-17.668,-16.554,-12.28C-16.554,-12.28,-21.824,-2.234,-21.824,-2.234Z" /></g></g></g><g transform="matrix(1,0,0,1,0,0)" id="i25"><g transform="matrix(1,0,0,1,488.827,626.284)" visibility="hidden" id="i29"><animate repeatCount="indefinite" begin="0s" calcMode="discrete" dur="2.517s" values="hidden; visible; visible" keyTimes="0; 0.066009; 1" attributeName="visibility" /><g id="i29"><path fill="#fad8c0" d="M66.356,-128.927C66.356,-128.927,51.626,71.286,-27.946,120.991C-80.117,153.585,-57.345,75.247,-57.345,75.247C-57.345,75.247,-66.356,-119.121,-66.356,-119.121C-66.356,-119.121,66.356,-128.927,66.356,-128.927Z" /></g></g></g><g transform="matrix(1,0,0,1,0,0)" id="i25"><g transform="matrix(1,0,0,1,424.256,507.716)" visibility="hidden" id="i30"><animate repeatCount="indefinite" begin="0s" calcMode="discrete" dur="2.517s" values="hidden; visible; visible" keyTimes="0; 0.066009; 1" attributeName="visibility" /><g id="i26"><path fill="#fad8c0" d="M-86.474,200.558C-86.474,200.558,-74.476,-28.402,-74.476,-28.402C-73.507,-43.81,-65.23,-66.593,-56.086,-79.034C-56.086,-79.034,-12.6,-172.653,-12.6,-172.653C-3.457,-185.094,22.742,-193.804,36.625,-200.558C36.625,-200.558,62.945,-193.474,62.945,-193.474C76.839,-200.227,87.39,-193.142,86.411,-177.734C86.411,-177.734,80.713,-88.407,80.713,-88.407C79.724,-73,73.689,-48.896,67.298,-34.839C67.298,-34.839,36.625,32.571,36.625,32.571C30.234,46.628,23.802,70.706,22.344,86.078C22.344,86.078,17.247,139.804,17.247,139.804C15.779,155.171,2.241,170.415,-12.855,173.672C-12.855,173.672,-86.474,200.558,-86.474,200.558Z" /></g></g></g><g transform="matrix(1,0,0,1,0,0)" visibility="hidden" id="i31"><animate repeatCount="indefinite" begin="0s" calcMode="discrete" dur="2.517s" values="hidden; visible; visible" keyTimes="0; 0.066009; 1" attributeName="visibility" /><g id="i11" transform="matrix(1,0,0,1,551.562,436.192)"><path fill="#a5aedb" d="M104.656,160.874C104.656,177.648,92.815,191.379,78.33,191.379C78.33,191.379,-78.326,191.379,-78.326,191.379C-92.801,191.379,-104.656,177.648,-104.656,160.874C-104.656,160.874,-104.656,-160.869,-104.656,-160.869C-104.656,-177.648,-92.801,-191.379,-78.326,-191.379C-78.326,-191.379,78.33,-191.379,78.33,-191.379C92.815,-191.379,104.656,-177.648,104.656,-160.869C104.656,-160.869,104.656,160.874,104.656,160.874Z" /></g><g id="i5" transform="matrix(1,0,0,1,596.648,367.55)" opacity="0.2"><path fill="#ffffff" d="M33.244,-122.737C33.244,-122.737,-59.569,-122.737,-59.569,-122.737C-59.569,-122.737,-47.276,-83.232,-47.276,-83.232C-47.276,-83.232,42.276,-83.232,42.276,-83.232C42.276,-83.232,42.276,67.156,42.276,67.156C42.276,67.156,59.569,122.737,59.569,122.737C59.569,122.737,59.569,-92.227,59.569,-92.227C59.569,-109.006,47.729,-122.737,33.244,-122.737Z" /></g><g id="i6" transform="matrix(1,0,0,1,551.564,436.192)"><rect height="303.746" width="174.719" y="-151.873" x="-87.359" fill="#ffffff" /></g><g id="i7" transform="matrix(1,0,0,1,554.261,259.673)"><path fill="#ffffff" d="M28.527,0.003C28.527,2.653,26.672,4.804,24.378,4.804C24.378,4.804,-24.378,4.804,-24.378,4.804C-26.671,4.804,-28.527,2.653,-28.527,0.003C-28.527,0.003,-28.527,0.003,-28.527,0.003C-28.527,-2.653,-26.671,-4.804,-24.378,-4.804C-24.378,-4.804,24.378,-4.804,24.378,-4.804C26.672,-4.804,28.527,-2.653,28.527,0.003C28.527,0.003,28.527,0.003,28.527,0.003Z" /></g></g><g mask="url(#i23)" transform="matrix(1,0,0,1,0,0)" visibility="hidden" id="i32"><animate repeatCount="indefinite" begin="0s" calcMode="discrete" dur="2.517s" values="hidden; visible; visible" keyTimes="0; 0.066009; 1" attributeName="visibility" /><g clip-path="url(#i1)"><g transform="matrix(1,0,0,1,0,0)" visibility="hidden"><animate repeatCount="indefinite" begin="0s" calcMode="discrete" dur="2.517s" values="hidden; visible; visible" keyTimes="0; 0.066009; 1" attributeName="visibility" /><g opacity="0"><animate repeatCount="indefinite" attributeName="opacity" dur="2.517s" begin="0s" fill="freeze" values="0; 0; 1; 1" keyTimes="0; 0.13245; 0.397351; 1" keySplines="0 0 1 1; 0.333 0 0 1; 0 0 1 1" calcMode="spline" /><g transform="translate(551.629,661.888)"><animateTransform repeatCount="indefinite" type="translate" attributeName="transform" dur="2.517s" begin="0s" calcMode="spline" values="551.629 661.888; 551.629 661.888; 551.629 561.888; 551.629 561.888" keyTimes="0; 0.13245; 0.397351; 1" keySplines="0 0 1 1; 0.333 0 0 1; 0 0 1 1" fill="freeze" /><g transform="translate(-551.629,-561.888)"><g transform="matrix(1,0,0,1,493.481,561.888)"><path fill="#e7ecf4" d="M10.572,10.767C10.572,10.767,-10.572,10.767,-10.572,10.767C-16.519,10.767,-21.34,5.947,-21.34,0C-21.34,0,-21.34,0,-21.34,0C-21.34,-5.947,-16.519,-10.767,-10.572,-10.767C-10.572,-10.767,10.572,-10.767,10.572,-10.767C16.519,-10.767,21.34,-5.947,21.34,0C21.34,0,21.34,0,21.34,0C21.34,5.947,16.519,10.767,10.572,10.767Z" /></g><g transform="matrix(1,0,0,1,551.629,561.888)"><path fill="#e7ecf4" d="M10.572,10.767C10.572,10.767,-10.572,10.767,-10.572,10.767C-16.519,10.767,-21.34,5.947,-21.34,0C-21.34,0,-21.34,0,-21.34,0C-21.34,-5.947,-16.519,-10.767,-10.572,-10.767C-10.572,-10.767,10.572,-10.767,10.572,-10.767C16.519,-10.767,21.34,-5.947,21.34,0C21.34,0,21.34,0,21.34,0C21.34,5.947,16.519,10.767,10.572,10.767Z" /></g><g transform="matrix(1,0,0,1,609.776,561.888)"><path fill="#e7ecf4" d="M10.572,10.767C10.572,10.767,-10.572,10.767,-10.572,10.767C-16.519,10.767,-21.34,5.947,-21.34,0C-21.34,0,-21.34,0,-21.34,0C-21.34,-5.947,-16.519,-10.767,-10.572,-10.767C-10.572,-10.767,10.572,-10.767,10.572,-10.767C16.519,-10.767,21.34,-5.947,21.34,0C21.34,0,21.34,0,21.34,0C21.34,5.947,16.519,10.767,10.572,10.767Z" /></g></g></g></g><g opacity="0"><animate repeatCount="indefinite" attributeName="opacity" dur="2.517s" begin="0s" fill="freeze" values="0; 0; 1; 1" keyTimes="0; 0.10596; 0.370861; 1" keySplines="0 0 1 1; 0.333 0 0 1; 0 0 1 1" calcMode="spline" /><g transform="translate(551.629,620.74)"><animateTransform repeatCount="indefinite" type="translate" attributeName="transform" dur="2.517s" begin="0s" calcMode="spline" values="551.629 620.74; 551.629 620.74; 551.629 520.74; 551.629 520.74" keyTimes="0; 0.10596; 0.370861; 1" keySplines="0 0 1 1; 0.333 0 0 1; 0 0 1 1" fill="freeze" /><g transform="translate(-551.629,-520.74)"><g transform="matrix(1,0,0,1,493.481,520.74)"><path fill="#e7ecf4" d="M10.572,10.767C10.572,10.767,-10.572,10.767,-10.572,10.767C-16.519,10.767,-21.34,5.947,-21.34,0C-21.34,0,-21.34,0,-21.34,0C-21.34,-5.947,-16.519,-10.767,-10.572,-10.767C-10.572,-10.767,10.572,-10.767,10.572,-10.767C16.519,-10.767,21.34,-5.947,21.34,0C21.34,0,21.34,0,21.34,0C21.34,5.947,16.519,10.767,10.572,10.767Z" /></g><g transform="matrix(1,0,0,1,551.629,520.74)"><path fill="#e7ecf4" d="M10.572,10.767C10.572,10.767,-10.572,10.767,-10.572,10.767C-16.519,10.767,-21.34,5.947,-21.34,0C-21.34,0,-21.34,0,-21.34,0C-21.34,-5.947,-16.519,-10.767,-10.572,-10.767C-10.572,-10.767,10.572,-10.767,10.572,-10.767C16.519,-10.767,21.34,-5.947,21.34,0C21.34,0,21.34,0,21.34,0C21.34,5.947,16.519,10.767,10.572,10.767Z" /></g><g transform="matrix(1,0,0,1,609.776,520.74)"><path fill="#e7ecf4" d="M10.572,10.767C10.572,10.767,-10.572,10.767,-10.572,10.767C-16.519,10.767,-21.34,5.947,-21.34,0C-21.34,0,-21.34,0,-21.34,0C-21.34,-5.947,-16.519,-10.767,-10.572,-10.767C-10.572,-10.767,10.572,-10.767,10.572,-10.767C16.519,-10.767,21.34,-5.947,21.34,0C21.34,0,21.34,0,21.34,0C21.34,5.947,16.519,10.767,10.572,10.767Z" /></g></g></g></g><g opacity="0"><animate repeatCount="indefinite" attributeName="opacity" dur="2.517s" begin="0s" fill="freeze" values="0; 0; 1; 1" keyTimes="0; 0.07947; 0.344371; 1" keySplines="0 0 1 1; 0.333 0 0 1; 0 0 1 1" calcMode="spline" /><g transform="translate(551.629,583.85)"><animateTransform repeatCount="indefinite" type="translate" attributeName="transform" dur="2.517s" begin="0s" calcMode="spline" values="551.629 583.85; 551.629 583.85; 551.629 483.85; 551.629 483.85" keyTimes="0; 0.07947; 0.344371; 1" keySplines="0 0 1 1; 0.333 0 0 1; 0 0 1 1" fill="freeze" /><g transform="translate(-551.629,-483.85)"><g transform="matrix(1,0,0,1,493.481,483.85)"><path fill="#e7ecf4" d="M10.572,10.767C10.572,10.767,-10.572,10.767,-10.572,10.767C-16.519,10.767,-21.34,5.947,-21.34,0C-21.34,0,-21.34,0,-21.34,0C-21.34,-5.947,-16.519,-10.767,-10.572,-10.767C-10.572,-10.767,10.572,-10.767,10.572,-10.767C16.519,-10.767,21.34,-5.947,21.34,0C21.34,0,21.34,0,21.34,0C21.34,5.947,16.519,10.767,10.572,10.767Z" /></g><g transform="matrix(1,0,0,1,551.629,483.85)"><path fill="#e7ecf4" d="M10.572,10.767C10.572,10.767,-10.572,10.767,-10.572,10.767C-16.519,10.767,-21.34,5.947,-21.34,0C-21.34,0,-21.34,0,-21.34,0C-21.34,-5.947,-16.519,-10.767,-10.572,-10.767C-10.572,-10.767,10.572,-10.767,10.572,-10.767C16.519,-10.767,21.34,-5.947,21.34,0C21.34,0,21.34,0,21.34,0C21.34,5.947,16.519,10.767,10.572,10.767Z" /></g><g transform="matrix(1,0,0,1,609.776,483.85)"><path fill="#e7ecf4" d="M10.572,10.767C10.572,10.767,-10.572,10.767,-10.572,10.767C-16.519,10.767,-21.34,5.947,-21.34,0C-21.34,0,-21.34,0,-21.34,0C-21.34,-5.947,-16.519,-10.767,-10.572,-10.767C-10.572,-10.767,10.572,-10.767,10.572,-10.767C16.519,-10.767,21.34,-5.947,21.34,0C21.34,0,21.34,0,21.34,0C21.34,5.947,16.519,10.767,10.572,10.767Z" /></g></g></g></g><g opacity="0"><animate repeatCount="indefinite" attributeName="opacity" dur="2.517s" begin="0s" fill="freeze" values="0; 0; 1; 1" keyTimes="0; 0.05298; 0.317881; 1" keySplines="0 0 1 1; 0.333 0 0 1; 0 0 1 1" calcMode="spline" /><g transform="translate(551.629,546.959)"><animateTransform repeatCount="indefinite" type="translate" attributeName="transform" dur="2.517s" begin="0s" calcMode="spline" values="551.629 546.959; 551.629 546.959; 551.629 446.959; 551.629 446.959" keyTimes="0; 0.05298; 0.317881; 1" keySplines="0 0 1 1; 0.333 0 0 1; 0 0 1 1" fill="freeze" /><g transform="translate(-551.629,-446.959)"><g transform="matrix(1,0,0,1,493.481,446.959)"><path fill="#e7ecf4" d="M10.572,10.767C10.572,10.767,-10.572,10.767,-10.572,10.767C-16.519,10.767,-21.34,5.947,-21.34,0C-21.34,0,-21.34,0,-21.34,0C-21.34,-5.947,-16.519,-10.767,-10.572,-10.767C-10.572,-10.767,10.572,-10.767,10.572,-10.767C16.519,-10.767,21.34,-5.947,21.34,0C21.34,0,21.34,0,21.34,0C21.34,5.947,16.519,10.767,10.572,10.767Z" /></g><g transform="matrix(1,0,0,1,551.629,446.959)"><path fill="#e7ecf4" d="M10.572,10.767C10.572,10.767,-10.572,10.767,-10.572,10.767C-16.519,10.767,-21.34,5.947,-21.34,0C-21.34,0,-21.34,0,-21.34,0C-21.34,-5.947,-16.519,-10.767,-10.572,-10.767C-10.572,-10.767,10.572,-10.767,10.572,-10.767C16.519,-10.767,21.34,-5.947,21.34,0C21.34,0,21.34,0,21.34,0C21.34,5.947,16.519,10.767,10.572,10.767Z" /></g><g transform="matrix(1,0,0,1,609.776,446.959)"><path fill="#e7ecf4" d="M10.572,10.767C10.572,10.767,-10.572,10.767,-10.572,10.767C-16.519,10.767,-21.34,5.947,-21.34,0C-21.34,0,-21.34,0,-21.34,0C-21.34,-5.947,-16.519,-10.767,-10.572,-10.767C-10.572,-10.767,10.572,-10.767,10.572,-10.767C16.519,-10.767,21.34,-5.947,21.34,0C21.34,0,21.34,0,21.34,0C21.34,5.947,16.519,10.767,10.572,10.767Z" /></g></g></g></g></g><g opacity="0" visibility="hidden"><animate repeatCount="indefinite" begin="0s" calcMode="discrete" dur="2.517s" values="hidden; visible; visible" keyTimes="0; 0.066009; 1" attributeName="visibility" /><animate repeatCount="indefinite" attributeName="opacity" dur="2.517s" begin="0s" fill="freeze" values="0; 0; 1; 1" keyTimes="0; 0.066225; 0.331126; 1" keySplines="0 0 1 1; 0.333 0 0 1; 0 0 1 1" calcMode="spline" /><g transform="translate(555.183,449.798)"><animateTransform repeatCount="indefinite" type="translate" attributeName="transform" dur="2.517s" begin="0s" calcMode="spline" values="555.183 449.798; 555.183 449.798; 555.183 349.798; 555.183 349.798" keyTimes="0; 0.066225; 0.331126; 1" keySplines="0 0 1 1; 0.333 0 0 1; 0 0 1 1" fill="freeze" /><g transform="scale(1,1) translate(-55.183,150.202)"><g><path fill="#798af8" d="M38.955,-159.95C38.955,-162.14,38.938,-164.241,38.958,-166.342C39.025,-173.456,43.216,-179.451,49.67,-181.688C60.336,-185.385,71.075,-177.996,71.395,-166.717C71.458,-164.491,71.404,-162.263,71.404,-159.999C72.142,-159.897,72.844,-159.843,73.527,-159.698C78.021,-158.741,81.087,-155.051,81.125,-150.334C81.187,-142.659,81.203,-134.982,81.119,-127.307C81.059,-121.813,76.94,-117.798,71.449,-117.781C60.604,-117.747,49.76,-117.746,38.915,-117.781C33.428,-117.799,29.304,-121.825,29.247,-127.311C29.167,-134.986,29.175,-142.663,29.243,-150.338C29.29,-155.646,33.141,-159.577,38.424,-159.912C38.572,-159.921,38.72,-159.933,38.955,-159.95ZM45.57,-159.98C51.988,-159.98,58.43,-159.98,64.897,-159.98C64.897,-162.39,64.989,-164.746,64.879,-167.094C64.642,-172.147,60.652,-175.939,55.49,-176.141C50.498,-176.336,46.161,-172.861,45.62,-167.923C45.335,-165.325,45.57,-162.67,45.57,-159.98ZM51.951,-135.875C51.951,-135.242,51.939,-134.609,51.953,-133.976C51.998,-131.975,53.243,-130.734,55.19,-130.736C57.135,-130.738,58.377,-131.979,58.412,-133.988C58.435,-135.279,58.388,-136.572,58.438,-137.861C58.452,-138.222,58.614,-138.647,58.85,-138.919C60.459,-140.77,60.459,-143.518,58.81,-145.288C56.947,-147.288,54.432,-147.517,52.261,-145.884C50.182,-144.32,49.616,-141.773,51.118,-139.648C51.845,-138.62,52.013,-137.627,51.951,-136.483C51.94,-136.281,51.949,-136.078,51.951,-135.875Z" /></g></g></g></g><g opacity="0" visibility="hidden"><animate repeatCount="indefinite" begin="0s" calcMode="discrete" dur="2.517s" values="hidden; visible; visible" keyTimes="0; 0.066009; 1" attributeName="visibility" /><animate repeatCount="indefinite" attributeName="opacity" dur="2.517s" begin="0s" fill="freeze" values="0; 0; 1; 1" keyTimes="0; 0.092715; 0.357616; 1" keySplines="0 0 1 1; 0.333 0 0 1; 0 0 1 1" calcMode="spline" /><g transform="translate(554.159,494.46)"><animateTransform repeatCount="indefinite" type="translate" attributeName="transform" dur="2.517s" begin="0s" calcMode="spline" values="554.159 494.46; 554.159 494.46; 554.159 394.46; 554.159 394.46" keyTimes="0; 0.092715; 0.357616; 1" keySplines="0 0 1 1; 0.333 0 0 1; 0 0 1 1" fill="freeze" /><g transform="scale(1,1) translate(-554.159,-394.46)"><g transform="matrix(1,0,0,1,554.159,394.46)"><path fill="#58c58e" d="M42.894,19.66C42.894,19.66,-42.894,19.66,-42.894,19.66C-45.338,19.66,-47.319,17.678,-47.319,15.234C-47.319,15.234,-47.319,-15.234,-47.319,-15.234C-47.319,-17.678,-45.338,-19.66,-42.894,-19.66C-42.894,-19.66,42.894,-19.66,42.894,-19.66C45.338,-19.66,47.319,-17.678,47.319,-15.234C47.319,-15.234,47.319,15.234,47.319,15.234C47.319,17.678,45.338,19.66,42.894,19.66Z" /></g><g transform="matrix(1,0,0,1,524.007,393.811)"><g><path fill="#ffffff" d="M7.347,-1.992C7.712,-0.82,7.361,-0.104,6.293,0.156C6.293,0.156,2.308,1.133,2.308,1.133C2.829,1.758,3.728,2.826,5.004,4.336C5.395,4.779,5.59,5.118,5.59,5.352C5.59,5.664,5.238,6.068,4.535,6.562C3.962,6.979,3.532,7.187,3.246,7.187C2.907,7.187,2.568,6.901,2.23,6.328C1.709,5.521,0.981,4.349,0.043,2.812C-0.4,3.49,-1.143,4.662,-2.184,6.328C-2.549,6.953,-2.874,7.266,-3.16,7.266C-3.42,7.266,-3.864,7.038,-4.489,6.582C-5.114,6.127,-5.426,5.73,-5.426,5.391C-5.426,5.105,-5.257,4.753,-4.918,4.336C-4.319,3.607,-3.408,2.539,-2.184,1.133C-2.627,1.055,-4.006,0.729,-6.324,0.156C-6.975,0,-7.353,-0.209,-7.457,-0.469C-7.535,-0.703,-7.457,-1.211,-7.223,-1.992C-6.937,-2.877,-6.572,-3.32,-6.129,-3.32C-5.895,-3.32,-5.596,-3.255,-5.231,-3.125C-3.616,-2.474,-2.328,-1.914,-1.364,-1.445C-1.442,-2.278,-1.559,-3.685,-1.715,-5.664C-1.768,-6.549,-1.546,-7.056,-1.051,-7.187C-0.817,-7.239,-0.452,-7.266,0.043,-7.266C1.24,-7.266,1.8,-6.732,1.722,-5.664C1.644,-3.945,1.54,-2.564,1.41,-1.523C2.451,-1.966,3.766,-2.5,5.355,-3.125C5.771,-3.281,6.084,-3.359,6.293,-3.359C6.709,-3.359,7.06,-2.903,7.347,-1.992Z" /></g></g><g transform="matrix(1,0,0,1,544.092,393.811)"><g><path fill="#ffffff" d="M7.347,-1.992C7.712,-0.82,7.361,-0.104,6.293,0.156C6.293,0.156,2.308,1.133,2.308,1.133C2.829,1.758,3.728,2.826,5.004,4.336C5.395,4.779,5.59,5.118,5.59,5.352C5.59,5.664,5.238,6.068,4.535,6.562C3.962,6.979,3.532,7.187,3.246,7.187C2.907,7.187,2.568,6.901,2.23,6.328C1.709,5.521,0.981,4.349,0.043,2.812C-0.4,3.49,-1.143,4.662,-2.184,6.328C-2.549,6.953,-2.874,7.266,-3.16,7.266C-3.42,7.266,-3.864,7.038,-4.489,6.582C-5.114,6.127,-5.426,5.73,-5.426,5.391C-5.426,5.105,-5.257,4.753,-4.918,4.336C-4.319,3.607,-3.408,2.539,-2.184,1.133C-2.627,1.055,-4.006,0.729,-6.324,0.156C-6.975,0,-7.353,-0.209,-7.457,-0.469C-7.535,-0.703,-7.457,-1.211,-7.223,-1.992C-6.937,-2.877,-6.572,-3.32,-6.129,-3.32C-5.895,-3.32,-5.596,-3.255,-5.231,-3.125C-3.616,-2.474,-2.328,-1.914,-1.364,-1.445C-1.442,-2.278,-1.559,-3.685,-1.715,-5.664C-1.768,-6.549,-1.546,-7.056,-1.051,-7.187C-0.817,-7.239,-0.452,-7.266,0.043,-7.266C1.24,-7.266,1.8,-6.732,1.722,-5.664C1.644,-3.945,1.54,-2.564,1.41,-1.523C2.451,-1.966,3.766,-2.5,5.355,-3.125C5.771,-3.281,6.084,-3.359,6.293,-3.359C6.709,-3.359,7.06,-2.903,7.347,-1.992Z" /></g></g><g transform="matrix(1,0,0,1,564.177,393.811)"><g><path fill="#ffffff" d="M7.347,-1.992C7.712,-0.82,7.361,-0.104,6.293,0.156C6.293,0.156,2.308,1.133,2.308,1.133C2.829,1.758,3.728,2.826,5.004,4.336C5.395,4.779,5.59,5.118,5.59,5.352C5.59,5.664,5.238,6.068,4.535,6.562C3.962,6.979,3.532,7.187,3.246,7.187C2.907,7.187,2.568,6.901,2.23,6.328C1.709,5.521,0.981,4.349,0.043,2.812C-0.4,3.49,-1.143,4.662,-2.184,6.328C-2.549,6.953,-2.874,7.266,-3.16,7.266C-3.42,7.266,-3.864,7.038,-4.489,6.582C-5.114,6.127,-5.426,5.73,-5.426,5.391C-5.426,5.105,-5.257,4.753,-4.918,4.336C-4.319,3.607,-3.408,2.539,-2.184,1.133C-2.627,1.055,-4.006,0.729,-6.324,0.156C-6.975,0,-7.353,-0.209,-7.457,-0.469C-7.535,-0.703,-7.457,-1.211,-7.223,-1.992C-6.937,-2.877,-6.572,-3.32,-6.129,-3.32C-5.895,-3.32,-5.596,-3.255,-5.231,-3.125C-3.616,-2.474,-2.328,-1.914,-1.364,-1.445C-1.442,-2.278,-1.559,-3.685,-1.715,-5.664C-1.768,-6.549,-1.546,-7.056,-1.051,-7.187C-0.817,-7.239,-0.452,-7.266,0.043,-7.266C1.24,-7.266,1.8,-6.732,1.722,-5.664C1.644,-3.945,1.54,-2.564,1.41,-1.523C2.451,-1.966,3.766,-2.5,5.355,-3.125C5.771,-3.281,6.084,-3.359,6.293,-3.359C6.709,-3.359,7.06,-2.903,7.347,-1.992Z" /></g></g><g transform="matrix(1,0,0,1,584.262,393.811)"><g><path fill="#ffffff" d="M7.347,-1.992C7.712,-0.82,7.361,-0.104,6.293,0.156C6.293,0.156,2.308,1.133,2.308,1.133C2.829,1.758,3.728,2.826,5.004,4.336C5.395,4.779,5.59,5.118,5.59,5.352C5.59,5.664,5.238,6.068,4.535,6.562C3.962,6.979,3.532,7.187,3.246,7.187C2.907,7.187,2.568,6.901,2.23,6.328C1.709,5.521,0.981,4.349,0.043,2.812C-0.4,3.49,-1.143,4.662,-2.184,6.328C-2.549,6.953,-2.874,7.266,-3.16,7.266C-3.42,7.266,-3.864,7.038,-4.489,6.582C-5.114,6.127,-5.426,5.73,-5.426,5.391C-5.426,5.105,-5.257,4.753,-4.918,4.336C-4.319,3.607,-3.408,2.539,-2.184,1.133C-2.627,1.055,-4.006,0.729,-6.324,0.156C-6.975,0,-7.353,-0.209,-7.457,-0.469C-7.535,-0.703,-7.457,-1.211,-7.223,-1.992C-6.937,-2.877,-6.572,-3.32,-6.129,-3.32C-5.895,-3.32,-5.596,-3.255,-5.231,-3.125C-3.616,-2.474,-2.328,-1.914,-1.364,-1.445C-1.442,-2.278,-1.559,-3.685,-1.715,-5.664C-1.768,-6.549,-1.546,-7.056,-1.051,-7.187C-0.817,-7.239,-0.452,-7.266,0.043,-7.266C1.24,-7.266,1.8,-6.732,1.722,-5.664C1.644,-3.945,1.54,-2.564,1.41,-1.523C2.451,-1.966,3.766,-2.5,5.355,-3.125C5.771,-3.281,6.084,-3.359,6.293,-3.359C6.709,-3.359,7.06,-2.903,7.347,-1.992Z" /></g></g></g></g></g></g></g><g display="none" transform="matrix(1,0,0,1,0,0)" visibility="hidden" id="i33"><animate repeatCount="indefinite" begin="0s" calcMode="discrete" dur="2.517s" values="hidden; visible; visible" keyTimes="0; 0.066009; 1" attributeName="visibility" /><g id="i6" transform="matrix(1,0,0,1,551.564,436.192)"><rect height="303.746" width="174.719" y="-151.873" x="-87.359" fill="#ffffff" /></g></g><g transform="matrix(1,0,0,1,0,0)" id="i25"><g transform="matrix(1,0,0,1,0,0)" visibility="hidden" id="i34"><animate repeatCount="indefinite" begin="0s" calcMode="discrete" dur="2.517s" values="hidden; visible; visible" keyTimes="0; 0.066009; 1" attributeName="visibility" /><g id="i6" transform="matrix(1,0,0,1,398.896,627.994)"><path fill="#fbdec8" d="M141.098,-188.145C141.088,-188.196,141.058,-188.241,141.048,-188.287C140.824,-189.016,140.548,-189.719,140.181,-190.382C140.099,-190.55,139.967,-190.688,139.865,-190.851C139.539,-191.376,139.213,-191.901,138.805,-192.375C138.56,-192.65,138.254,-192.874,137.989,-193.129C137.653,-193.44,137.347,-193.777,136.98,-194.052C136.511,-194.399,135.971,-194.669,135.441,-194.949C135.196,-195.076,134.982,-195.245,134.727,-195.357C133.912,-195.724,133.035,-196.014,132.097,-196.218C132.097,-196.218,116.593,-199.587,116.593,-199.587C115.278,-199.872,113.8,-200.235,112.26,-200.627C112.036,-200.683,111.812,-200.738,111.588,-200.8C110.008,-201.208,108.367,-201.652,106.685,-202.131C106.685,-202.131,106.685,-202.12,106.685,-202.12C100.681,-203.822,94.279,-205.882,89.784,-207.62C89.784,-207.62,65.532,-216.972,57.5,-212.803C28.835,-197.915,-22.377,-143.343,-22.377,-143.343C-27.668,-137.721,-33.794,-127.06,-35.996,-119.664C-35.996,-119.664,-78.106,21.641,-78.106,21.641C-78.106,21.641,-141.531,132.941,-141.531,132.941C-141.531,132.941,-32.653,213.874,-32.653,213.874C-25.844,202.997,-19.585,193.201,-15.232,186.876C-3.132,169.307,45.085,132.1,58.489,121.927C59.764,121.203,60.966,120.357,61.985,119.282C61.985,119.282,68.795,112.13,75.625,64.006C92.006,-51.269,43.81,-96.004,43.81,-96.004C38.143,-101.259,36.624,-111.06,40.406,-117.788C40.406,-117.788,58.214,-149.388,58.214,-149.388C61.996,-156.115,71.375,-160.856,79.03,-159.923C79.03,-159.923,110.222,-156.126,124.177,-165.127C138.213,-174.189,140.609,-180.199,140.609,-180.199C140.65,-180.301,140.661,-180.397,140.691,-180.499C140.691,-180.499,140.701,-180.499,140.701,-180.499C140.731,-180.591,140.742,-180.678,140.772,-180.77C141.048,-181.565,141.271,-182.354,141.394,-183.134C141.394,-183.149,141.394,-183.16,141.394,-183.175C141.649,-184.903,141.547,-186.585,141.098,-188.145Z" /></g><g id="i7" transform="matrix(1,0,0,1,518.311,432.223)"><g id="i7"><path fill="#e8bea1" d="M-7.58,3.969C-0.49,6.242,13.429,7.114,13.429,7.114C13.429,7.114,18.868,8.656,12.803,-0.409C12.76,-0.417,12.726,-0.437,12.683,-0.447C12.683,-0.447,-2.822,-3.816,-2.822,-3.816C-4.137,-4.101,-5.614,-4.464,-7.154,-4.856C-7.378,-4.912,-7.603,-4.968,-7.827,-5.03C-9.407,-5.438,-11.048,-5.881,-12.73,-6.36C-12.73,-6.36,-12.73,-6.349,-12.73,-6.349C-13.701,-6.624,-14.687,-6.92,-15.671,-7.213C-14.516,-3.235,-12.106,2.516,-7.58,3.969Z" /></g></g></g></g><g transform="matrix(1,0,0,1,0,0)" visibility="hidden" id="i25"><animate repeatCount="indefinite" begin="0s" calcMode="discrete" dur="2.517s" values="hidden; visible; visible" keyTimes="0; 0.066009; 1" attributeName="visibility" /><g id="i10" transform="matrix(1,0,0,1,337.275,765.415)"><path fill="#798af8" d="M96.131,17.492C96.131,17.492,42.854,87.811,42.854,87.811C42.854,87.811,-96.131,-17.492,-96.131,-17.492C-96.131,-17.492,-42.854,-87.811,-42.854,-87.811C-42.854,-87.811,96.131,17.492,96.131,17.492Z" /></g></g></g></defs><g visibility="hidden" id="i35"><animate repeatCount="indefinite" begin="0s" calcMode="discrete" dur="2.517s" values="hidden; visible; visible" keyTimes="0; 0.066009; 1" attributeName="visibility" /><g transform="translate(494.645,490.542)"><g transform="scale(0,0)"><animateTransform repeatCount="indefinite" type="scale" attributeName="transform" dur="2.517s" begin="0s" calcMode="spline" values="0 0; 0 0; 1 1; 1 1" keyTimes="0; 0.066225; 0.331126; 1" keySplines="0 0 1 1; 0.333 0 0 1; 0 0 1 1" fill="freeze" /><g transform="translate(0,0)"><g id="i35"><ellipse ry="302.634" rx="302.634" cy="0" cx="0" fill="url(#i0)" /></g></g></g></g></g><g opacity="0" visibility="hidden" id="i36"><animate repeatCount="indefinite" begin="0s" calcMode="discrete" dur="2.517s" values="hidden; visible; visible" keyTimes="0; 0.066009; 1" attributeName="visibility" /><animate repeatCount="indefinite" attributeName="opacity" dur="2.517s" begin="0s" fill="freeze" values="0; 0; 1; 1" keyTimes="0; 0.066225; 0.331126; 1" keySplines="0 0 1 1; 0.333 0 0 1; 0 0 1 1" calcMode="spline" /><g transform="translate(500,700)"><animateTransform repeatCount="indefinite" type="translate" attributeName="transform" dur="2.517s" begin="0s" calcMode="spline" values="500 700; 500 700; 500 500; 500 500" keyTimes="0; 0.066225; 0.331126; 1" keySplines="0 0 1 1; 0.333 0 0 1; 0 0 1 1" fill="freeze" /><g transform="scale(1,1) translate(-500,-500)"><g clip-path="url(#i1)"><g transform="matrix(1,0,0,1,0,0)"><g transform="matrix(1,0,0,1,653.169,425.402)" visibility="hidden"><animate repeatCount="indefinite" begin="0s" calcMode="discrete" dur="2.517s" values="hidden; visible; visible" keyTimes="0; 0.066009; 1" attributeName="visibility" /><g><path fill="#fad8c0" d="M-29.239,0.462C-32.053,5.845,-31.614,14.05,-28.281,18.698C-28.281,18.698,-17.68,33.418,10.521,18.882C38.737,4.346,31.449,-15.629,26.077,-17.015C26.077,-17.015,-4.831,-24.977,-4.831,-24.977C-10.187,-26.363,-16.884,-23.09,-19.718,-17.708C-19.718,-17.708,-29.239,0.462,-29.239,0.462Z" /></g></g></g><g transform="matrix(1,0,0,1,0,0)"><g transform="matrix(1,0,0,1,670.829,483.85)" visibility="hidden"><animate repeatCount="indefinite" begin="0s" calcMode="discrete" dur="2.517s" values="hidden; visible; visible" keyTimes="0; 0.066009; 1" attributeName="visibility" /><g><path fill="#fad8c0" d="M-25.605,2.641C-28.429,8.023,-28,16.224,-24.647,20.872C-24.647,20.872,-15.824,33.155,9.426,20.148C34.676,7.141,27.703,-10.846,22.321,-12.232C22.321,-12.232,-3.276,-18.827,-3.276,-18.827C-8.648,-20.213,-15.365,-29.89,-18.179,-24.508C-18.179,-24.508,-25.605,2.641,-25.605,2.641Z" /></g></g></g><g transform="matrix(1,0,0,1,0,0)"><g transform="matrix(1,0,0,1,656.222,542.022)" visibility="hidden"><animate repeatCount="indefinite" begin="0s" calcMode="discrete" dur="2.517s" values="hidden; visible; visible" keyTimes="0; 0.066009; 1" attributeName="visibility" /><g><path fill="#fad8c0" d="M-21.824,-2.234C-24.637,3.143,-24.22,11.349,-20.866,15.997C-20.866,15.997,-13.863,25.727,8.273,14.325C30.424,2.919,23.747,-13.004,18.375,-14.39C18.375,-14.39,-1.666,-19.548,-1.666,-19.548C-7.038,-20.93,-13.74,-17.668,-16.554,-12.28C-16.554,-12.28,-21.824,-2.234,-21.824,-2.234Z" /></g></g></g><g transform="matrix(1,0,0,1,0,0)"><g transform="matrix(1,0,0,1,488.827,626.284)" visibility="hidden"><animate repeatCount="indefinite" begin="0s" calcMode="discrete" dur="2.517s" values="hidden; visible; visible" keyTimes="0; 0.066009; 1" attributeName="visibility" /><g><path fill="#fad8c0" d="M66.356,-128.927C66.356,-128.927,51.626,71.286,-27.946,120.991C-80.117,153.585,-57.345,75.247,-57.345,75.247C-57.345,75.247,-66.356,-119.121,-66.356,-119.121C-66.356,-119.121,66.356,-128.927,66.356,-128.927Z" /></g></g></g><g transform="matrix(1,0,0,1,0,0)"><g transform="matrix(1,0,0,1,424.256,507.716)" visibility="hidden"><animate repeatCount="indefinite" begin="0s" calcMode="discrete" dur="2.517s" values="hidden; visible; visible" keyTimes="0; 0.066009; 1" attributeName="visibility" /><g><path fill="#fad8c0" d="M-86.474,200.558C-86.474,200.558,-74.476,-28.402,-74.476,-28.402C-73.507,-43.81,-65.23,-66.593,-56.086,-79.034C-56.086,-79.034,-12.6,-172.653,-12.6,-172.653C-3.457,-185.094,22.742,-193.804,36.625,-200.558C36.625,-200.558,62.945,-193.474,62.945,-193.474C76.839,-200.227,87.39,-193.142,86.411,-177.734C86.411,-177.734,80.713,-88.407,80.713,-88.407C79.724,-73,73.689,-48.896,67.298,-34.839C67.298,-34.839,36.625,32.571,36.625,32.571C30.234,46.628,23.802,70.706,22.344,86.078C22.344,86.078,17.247,139.804,17.247,139.804C15.779,155.171,2.241,170.415,-12.855,173.672C-12.855,173.672,-86.474,200.558,-86.474,200.558Z" /></g></g></g><g transform="matrix(1,0,0,1,0,0)" visibility="hidden"><animate repeatCount="indefinite" begin="0s" calcMode="discrete" dur="2.517s" values="hidden; visible; visible" keyTimes="0; 0.066009; 1" attributeName="visibility" /><g transform="matrix(1,0,0,1,551.562,436.192)"><path fill="#a5aedb" d="M104.656,160.874C104.656,177.648,92.815,191.379,78.33,191.379C78.33,191.379,-78.326,191.379,-78.326,191.379C-92.801,191.379,-104.656,177.648,-104.656,160.874C-104.656,160.874,-104.656,-160.869,-104.656,-160.869C-104.656,-177.648,-92.801,-191.379,-78.326,-191.379C-78.326,-191.379,78.33,-191.379,78.33,-191.379C92.815,-191.379,104.656,-177.648,104.656,-160.869C104.656,-160.869,104.656,160.874,104.656,160.874Z" /></g><g transform="matrix(1,0,0,1,596.648,367.55)" opacity="0.2"><path fill="#ffffff" d="M33.244,-122.737C33.244,-122.737,-59.569,-122.737,-59.569,-122.737C-59.569,-122.737,-47.276,-83.232,-47.276,-83.232C-47.276,-83.232,42.276,-83.232,42.276,-83.232C42.276,-83.232,42.276,67.156,42.276,67.156C42.276,67.156,59.569,122.737,59.569,122.737C59.569,122.737,59.569,-92.227,59.569,-92.227C59.569,-109.006,47.729,-122.737,33.244,-122.737Z" /></g><g transform="matrix(1,0,0,1,551.564,436.192)"><rect height="303.746" width="174.719" y="-151.873" x="-87.359" fill="#ffffff" /></g><g transform="matrix(1,0,0,1,554.261,259.673)"><path fill="#ffffff" d="M28.527,0.003C28.527,2.653,26.672,4.804,24.378,4.804C24.378,4.804,-24.378,4.804,-24.378,4.804C-26.671,4.804,-28.527,2.653,-28.527,0.003C-28.527,0.003,-28.527,0.003,-28.527,0.003C-28.527,-2.653,-26.671,-4.804,-24.378,-4.804C-24.378,-4.804,24.378,-4.804,24.378,-4.804C26.672,-4.804,28.527,-2.653,28.527,0.003C28.527,0.003,28.527,0.003,28.527,0.003Z" /></g></g><g mask="url(#i23)" transform="matrix(1,0,0,1,0,0)" visibility="hidden"><animate repeatCount="indefinite" begin="0s" calcMode="discrete" dur="2.517s" values="hidden; visible; visible" keyTimes="0; 0.066009; 1" attributeName="visibility" /><g clip-path="url(#i1)"><g transform="matrix(1,0,0,1,0,0)" visibility="hidden"><animate repeatCount="indefinite" begin="0s" calcMode="discrete" dur="2.517s" values="hidden; visible; visible" keyTimes="0; 0.066009; 1" attributeName="visibility" /><g opacity="0"><animate repeatCount="indefinite" attributeName="opacity" dur="2.517s" begin="0s" fill="freeze" values="0; 0; 1; 1" keyTimes="0; 0.13245; 0.397351; 1" keySplines="0 0 1 1; 0.333 0 0 1; 0 0 1 1" calcMode="spline" /><g transform="translate(551.629,661.888)"><animateTransform repeatCount="indefinite" type="translate" attributeName="transform" dur="2.517s" begin="0s" calcMode="spline" values="551.629 661.888; 551.629 661.888; 551.629 561.888; 551.629 561.888" keyTimes="0; 0.13245; 0.397351; 1" keySplines="0 0 1 1; 0.333 0 0 1; 0 0 1 1" fill="freeze" /><g transform="translate(-551.629,-561.888)"><g transform="matrix(1,0,0,1,493.481,561.888)"><path fill="#e7ecf4" d="M10.572,10.767C10.572,10.767,-10.572,10.767,-10.572,10.767C-16.519,10.767,-21.34,5.947,-21.34,0C-21.34,0,-21.34,0,-21.34,0C-21.34,-5.947,-16.519,-10.767,-10.572,-10.767C-10.572,-10.767,10.572,-10.767,10.572,-10.767C16.519,-10.767,21.34,-5.947,21.34,0C21.34,0,21.34,0,21.34,0C21.34,5.947,16.519,10.767,10.572,10.767Z" /></g><g transform="matrix(1,0,0,1,551.629,561.888)"><path fill="#e7ecf4" d="M10.572,10.767C10.572,10.767,-10.572,10.767,-10.572,10.767C-16.519,10.767,-21.34,5.947,-21.34,0C-21.34,0,-21.34,0,-21.34,0C-21.34,-5.947,-16.519,-10.767,-10.572,-10.767C-10.572,-10.767,10.572,-10.767,10.572,-10.767C16.519,-10.767,21.34,-5.947,21.34,0C21.34,0,21.34,0,21.34,0C21.34,5.947,16.519,10.767,10.572,10.767Z" /></g><g transform="matrix(1,0,0,1,609.776,561.888)"><path fill="#e7ecf4" d="M10.572,10.767C10.572,10.767,-10.572,10.767,-10.572,10.767C-16.519,10.767,-21.34,5.947,-21.34,0C-21.34,0,-21.34,0,-21.34,0C-21.34,-5.947,-16.519,-10.767,-10.572,-10.767C-10.572,-10.767,10.572,-10.767,10.572,-10.767C16.519,-10.767,21.34,-5.947,21.34,0C21.34,0,21.34,0,21.34,0C21.34,5.947,16.519,10.767,10.572,10.767Z" /></g></g></g></g><g opacity="0"><animate repeatCount="indefinite" attributeName="opacity" dur="2.517s" begin="0s" fill="freeze" values="0; 0; 1; 1" keyTimes="0; 0.10596; 0.370861; 1" keySplines="0 0 1 1; 0.333 0 0 1; 0 0 1 1" calcMode="spline" /><g transform="translate(551.629,620.74)"><animateTransform repeatCount="indefinite" type="translate" attributeName="transform" dur="2.517s" begin="0s" calcMode="spline" values="551.629 620.74; 551.629 620.74; 551.629 520.74; 551.629 520.74" keyTimes="0; 0.10596; 0.370861; 1" keySplines="0 0 1 1; 0.333 0 0 1; 0 0 1 1" fill="freeze" /><g transform="translate(-551.629,-520.74)"><g transform="matrix(1,0,0,1,493.481,520.74)"><path fill="#e7ecf4" d="M10.572,10.767C10.572,10.767,-10.572,10.767,-10.572,10.767C-16.519,10.767,-21.34,5.947,-21.34,0C-21.34,0,-21.34,0,-21.34,0C-21.34,-5.947,-16.519,-10.767,-10.572,-10.767C-10.572,-10.767,10.572,-10.767,10.572,-10.767C16.519,-10.767,21.34,-5.947,21.34,0C21.34,0,21.34,0,21.34,0C21.34,5.947,16.519,10.767,10.572,10.767Z" /></g><g transform="matrix(1,0,0,1,551.629,520.74)"><path fill="#e7ecf4" d="M10.572,10.767C10.572,10.767,-10.572,10.767,-10.572,10.767C-16.519,10.767,-21.34,5.947,-21.34,0C-21.34,0,-21.34,0,-21.34,0C-21.34,-5.947,-16.519,-10.767,-10.572,-10.767C-10.572,-10.767,10.572,-10.767,10.572,-10.767C16.519,-10.767,21.34,-5.947,21.34,0C21.34,0,21.34,0,21.34,0C21.34,5.947,16.519,10.767,10.572,10.767Z" /></g><g transform="matrix(1,0,0,1,609.776,520.74)"><path fill="#e7ecf4" d="M10.572,10.767C10.572,10.767,-10.572,10.767,-10.572,10.767C-16.519,10.767,-21.34,5.947,-21.34,0C-21.34,0,-21.34,0,-21.34,0C-21.34,-5.947,-16.519,-10.767,-10.572,-10.767C-10.572,-10.767,10.572,-10.767,10.572,-10.767C16.519,-10.767,21.34,-5.947,21.34,0C21.34,0,21.34,0,21.34,0C21.34,5.947,16.519,10.767,10.572,10.767Z" /></g></g></g></g><g opacity="0"><animate repeatCount="indefinite" attributeName="opacity" dur="2.517s" begin="0s" fill="freeze" values="0; 0; 1; 1" keyTimes="0; 0.07947; 0.344371; 1" keySplines="0 0 1 1; 0.333 0 0 1; 0 0 1 1" calcMode="spline" /><g transform="translate(551.629,583.85)"><animateTransform repeatCount="indefinite" type="translate" attributeName="transform" dur="2.517s" begin="0s" calcMode="spline" values="551.629 583.85; 551.629 583.85; 551.629 483.85; 551.629 483.85" keyTimes="0; 0.07947; 0.344371; 1" keySplines="0 0 1 1; 0.333 0 0 1; 0 0 1 1" fill="freeze" /><g transform="translate(-551.629,-483.85)"><g transform="matrix(1,0,0,1,493.481,483.85)"><path fill="#e7ecf4" d="M10.572,10.767C10.572,10.767,-10.572,10.767,-10.572,10.767C-16.519,10.767,-21.34,5.947,-21.34,0C-21.34,0,-21.34,0,-21.34,0C-21.34,-5.947,-16.519,-10.767,-10.572,-10.767C-10.572,-10.767,10.572,-10.767,10.572,-10.767C16.519,-10.767,21.34,-5.947,21.34,0C21.34,0,21.34,0,21.34,0C21.34,5.947,16.519,10.767,10.572,10.767Z" /></g><g transform="matrix(1,0,0,1,551.629,483.85)"><path fill="#e7ecf4" d="M10.572,10.767C10.572,10.767,-10.572,10.767,-10.572,10.767C-16.519,10.767,-21.34,5.947,-21.34,0C-21.34,0,-21.34,0,-21.34,0C-21.34,-5.947,-16.519,-10.767,-10.572,-10.767C-10.572,-10.767,10.572,-10.767,10.572,-10.767C16.519,-10.767,21.34,-5.947,21.34,0C21.34,0,21.34,0,21.34,0C21.34,5.947,16.519,10.767,10.572,10.767Z" /></g><g transform="matrix(1,0,0,1,609.776,483.85)"><path fill="#e7ecf4" d="M10.572,10.767C10.572,10.767,-10.572,10.767,-10.572,10.767C-16.519,10.767,-21.34,5.947,-21.34,0C-21.34,0,-21.34,0,-21.34,0C-21.34,-5.947,-16.519,-10.767,-10.572,-10.767C-10.572,-10.767,10.572,-10.767,10.572,-10.767C16.519,-10.767,21.34,-5.947,21.34,0C21.34,0,21.34,0,21.34,0C21.34,5.947,16.519,10.767,10.572,10.767Z" /></g></g></g></g><g opacity="0"><animate repeatCount="indefinite" attributeName="opacity" dur="2.517s" begin="0s" fill="freeze" values="0; 0; 1; 1" keyTimes="0; 0.05298; 0.317881; 1" keySplines="0 0 1 1; 0.333 0 0 1; 0 0 1 1" calcMode="spline" /><g transform="translate(551.629,546.959)"><animateTransform repeatCount="indefinite" type="translate" attributeName="transform" dur="2.517s" begin="0s" calcMode="spline" values="551.629 546.959; 551.629 546.959; 551.629 446.959; 551.629 446.959" keyTimes="0; 0.05298; 0.317881; 1" keySplines="0 0 1 1; 0.333 0 0 1; 0 0 1 1" fill="freeze" /><g transform="translate(-551.629,-446.959)"><g transform="matrix(1,0,0,1,493.481,446.959)"><path fill="#e7ecf4" d="M10.572,10.767C10.572,10.767,-10.572,10.767,-10.572,10.767C-16.519,10.767,-21.34,5.947,-21.34,0C-21.34,0,-21.34,0,-21.34,0C-21.34,-5.947,-16.519,-10.767,-10.572,-10.767C-10.572,-10.767,10.572,-10.767,10.572,-10.767C16.519,-10.767,21.34,-5.947,21.34,0C21.34,0,21.34,0,21.34,0C21.34,5.947,16.519,10.767,10.572,10.767Z" /></g><g transform="matrix(1,0,0,1,551.629,446.959)"><path fill="#e7ecf4" d="M10.572,10.767C10.572,10.767,-10.572,10.767,-10.572,10.767C-16.519,10.767,-21.34,5.947,-21.34,0C-21.34,0,-21.34,0,-21.34,0C-21.34,-5.947,-16.519,-10.767,-10.572,-10.767C-10.572,-10.767,10.572,-10.767,10.572,-10.767C16.519,-10.767,21.34,-5.947,21.34,0C21.34,0,21.34,0,21.34,0C21.34,5.947,16.519,10.767,10.572,10.767Z" /></g><g transform="matrix(1,0,0,1,609.776,446.959)"><path fill="#e7ecf4" d="M10.572,10.767C10.572,10.767,-10.572,10.767,-10.572,10.767C-16.519,10.767,-21.34,5.947,-21.34,0C-21.34,0,-21.34,0,-21.34,0C-21.34,-5.947,-16.519,-10.767,-10.572,-10.767C-10.572,-10.767,10.572,-10.767,10.572,-10.767C16.519,-10.767,21.34,-5.947,21.34,0C21.34,0,21.34,0,21.34,0C21.34,5.947,16.519,10.767,10.572,10.767Z" /></g></g></g></g></g><g opacity="0" visibility="hidden"><animate repeatCount="indefinite" begin="0s" calcMode="discrete" dur="2.517s" values="hidden; visible; visible" keyTimes="0; 0.066009; 1" attributeName="visibility" /><animate repeatCount="indefinite" attributeName="opacity" dur="2.517s" begin="0s" fill="freeze" values="0; 0; 1; 1" keyTimes="0; 0.066225; 0.331126; 1" keySplines="0 0 1 1; 0.333 0 0 1; 0 0 1 1" calcMode="spline" /><g transform="translate(555.183,449.798)"><animateTransform repeatCount="indefinite" type="translate" attributeName="transform" dur="2.517s" begin="0s" calcMode="spline" values="555.183 449.798; 555.183 449.798; 555.183 349.798; 555.183 349.798" keyTimes="0; 0.066225; 0.331126; 1" keySplines="0 0 1 1; 0.333 0 0 1; 0 0 1 1" fill="freeze" /><g transform="scale(1,1) translate(-55.183,150.202)"><g><path fill="#798af8" d="M38.955,-159.95C38.955,-162.14,38.938,-164.241,38.958,-166.342C39.025,-173.456,43.216,-179.451,49.67,-181.688C60.336,-185.385,71.075,-177.996,71.395,-166.717C71.458,-164.491,71.404,-162.263,71.404,-159.999C72.142,-159.897,72.844,-159.843,73.527,-159.698C78.021,-158.741,81.087,-155.051,81.125,-150.334C81.187,-142.659,81.203,-134.982,81.119,-127.307C81.059,-121.813,76.94,-117.798,71.449,-117.781C60.604,-117.747,49.76,-117.746,38.915,-117.781C33.428,-117.799,29.304,-121.825,29.247,-127.311C29.167,-134.986,29.175,-142.663,29.243,-150.338C29.29,-155.646,33.141,-159.577,38.424,-159.912C38.572,-159.921,38.72,-159.933,38.955,-159.95ZM45.57,-159.98C51.988,-159.98,58.43,-159.98,64.897,-159.98C64.897,-162.39,64.989,-164.746,64.879,-167.094C64.642,-172.147,60.652,-175.939,55.49,-176.141C50.498,-176.336,46.161,-172.861,45.62,-167.923C45.335,-165.325,45.57,-162.67,45.57,-159.98ZM51.951,-135.875C51.951,-135.242,51.939,-134.609,51.953,-133.976C51.998,-131.975,53.243,-130.734,55.19,-130.736C57.135,-130.738,58.377,-131.979,58.412,-133.988C58.435,-135.279,58.388,-136.572,58.438,-137.861C58.452,-138.222,58.614,-138.647,58.85,-138.919C60.459,-140.77,60.459,-143.518,58.81,-145.288C56.947,-147.288,54.432,-147.517,52.261,-145.884C50.182,-144.32,49.616,-141.773,51.118,-139.648C51.845,-138.62,52.013,-137.627,51.951,-136.483C51.94,-136.281,51.949,-136.078,51.951,-135.875Z" /></g></g></g></g><g opacity="0" visibility="hidden"><animate repeatCount="indefinite" begin="0s" calcMode="discrete" dur="2.517s" values="hidden; visible; visible" keyTimes="0; 0.066009; 1" attributeName="visibility" /><animate repeatCount="indefinite" attributeName="opacity" dur="2.517s" begin="0s" fill="freeze" values="0; 0; 1; 1" keyTimes="0; 0.092715; 0.357616; 1" keySplines="0 0 1 1; 0.333 0 0 1; 0 0 1 1" calcMode="spline" /><g transform="translate(554.159,494.46)"><animateTransform repeatCount="indefinite" type="translate" attributeName="transform" dur="2.517s" begin="0s" calcMode="spline" values="554.159 494.46; 554.159 494.46; 554.159 394.46; 554.159 394.46" keyTimes="0; 0.092715; 0.357616; 1" keySplines="0 0 1 1; 0.333 0 0 1; 0 0 1 1" fill="freeze" /><g transform="scale(1,1) translate(-554.159,-394.46)"><g transform="matrix(1,0,0,1,554.159,394.46)"><path fill="#58c58e" d="M42.894,19.66C42.894,19.66,-42.894,19.66,-42.894,19.66C-45.338,19.66,-47.319,17.678,-47.319,15.234C-47.319,15.234,-47.319,-15.234,-47.319,-15.234C-47.319,-17.678,-45.338,-19.66,-42.894,-19.66C-42.894,-19.66,42.894,-19.66,42.894,-19.66C45.338,-19.66,47.319,-17.678,47.319,-15.234C47.319,-15.234,47.319,15.234,47.319,15.234C47.319,17.678,45.338,19.66,42.894,19.66Z" /></g><g transform="matrix(1,0,0,1,524.007,393.811)"><g><path fill="#ffffff" d="M7.347,-1.992C7.712,-0.82,7.361,-0.104,6.293,0.156C6.293,0.156,2.308,1.133,2.308,1.133C2.829,1.758,3.728,2.826,5.004,4.336C5.395,4.779,5.59,5.118,5.59,5.352C5.59,5.664,5.238,6.068,4.535,6.562C3.962,6.979,3.532,7.187,3.246,7.187C2.907,7.187,2.568,6.901,2.23,6.328C1.709,5.521,0.981,4.349,0.043,2.812C-0.4,3.49,-1.143,4.662,-2.184,6.328C-2.549,6.953,-2.874,7.266,-3.16,7.266C-3.42,7.266,-3.864,7.038,-4.489,6.582C-5.114,6.127,-5.426,5.73,-5.426,5.391C-5.426,5.105,-5.257,4.753,-4.918,4.336C-4.319,3.607,-3.408,2.539,-2.184,1.133C-2.627,1.055,-4.006,0.729,-6.324,0.156C-6.975,0,-7.353,-0.209,-7.457,-0.469C-7.535,-0.703,-7.457,-1.211,-7.223,-1.992C-6.937,-2.877,-6.572,-3.32,-6.129,-3.32C-5.895,-3.32,-5.596,-3.255,-5.231,-3.125C-3.616,-2.474,-2.328,-1.914,-1.364,-1.445C-1.442,-2.278,-1.559,-3.685,-1.715,-5.664C-1.768,-6.549,-1.546,-7.056,-1.051,-7.187C-0.817,-7.239,-0.452,-7.266,0.043,-7.266C1.24,-7.266,1.8,-6.732,1.722,-5.664C1.644,-3.945,1.54,-2.564,1.41,-1.523C2.451,-1.966,3.766,-2.5,5.355,-3.125C5.771,-3.281,6.084,-3.359,6.293,-3.359C6.709,-3.359,7.06,-2.903,7.347,-1.992Z" /></g></g><g transform="matrix(1,0,0,1,544.092,393.811)"><g><path fill="#ffffff" d="M7.347,-1.992C7.712,-0.82,7.361,-0.104,6.293,0.156C6.293,0.156,2.308,1.133,2.308,1.133C2.829,1.758,3.728,2.826,5.004,4.336C5.395,4.779,5.59,5.118,5.59,5.352C5.59,5.664,5.238,6.068,4.535,6.562C3.962,6.979,3.532,7.187,3.246,7.187C2.907,7.187,2.568,6.901,2.23,6.328C1.709,5.521,0.981,4.349,0.043,2.812C-0.4,3.49,-1.143,4.662,-2.184,6.328C-2.549,6.953,-2.874,7.266,-3.16,7.266C-3.42,7.266,-3.864,7.038,-4.489,6.582C-5.114,6.127,-5.426,5.73,-5.426,5.391C-5.426,5.105,-5.257,4.753,-4.918,4.336C-4.319,3.607,-3.408,2.539,-2.184,1.133C-2.627,1.055,-4.006,0.729,-6.324,0.156C-6.975,0,-7.353,-0.209,-7.457,-0.469C-7.535,-0.703,-7.457,-1.211,-7.223,-1.992C-6.937,-2.877,-6.572,-3.32,-6.129,-3.32C-5.895,-3.32,-5.596,-3.255,-5.231,-3.125C-3.616,-2.474,-2.328,-1.914,-1.364,-1.445C-1.442,-2.278,-1.559,-3.685,-1.715,-5.664C-1.768,-6.549,-1.546,-7.056,-1.051,-7.187C-0.817,-7.239,-0.452,-7.266,0.043,-7.266C1.24,-7.266,1.8,-6.732,1.722,-5.664C1.644,-3.945,1.54,-2.564,1.41,-1.523C2.451,-1.966,3.766,-2.5,5.355,-3.125C5.771,-3.281,6.084,-3.359,6.293,-3.359C6.709,-3.359,7.06,-2.903,7.347,-1.992Z" /></g></g><g transform="matrix(1,0,0,1,564.177,393.811)"><g><path fill="#ffffff" d="M7.347,-1.992C7.712,-0.82,7.361,-0.104,6.293,0.156C6.293,0.156,2.308,1.133,2.308,1.133C2.829,1.758,3.728,2.826,5.004,4.336C5.395,4.779,5.59,5.118,5.59,5.352C5.59,5.664,5.238,6.068,4.535,6.562C3.962,6.979,3.532,7.187,3.246,7.187C2.907,7.187,2.568,6.901,2.23,6.328C1.709,5.521,0.981,4.349,0.043,2.812C-0.4,3.49,-1.143,4.662,-2.184,6.328C-2.549,6.953,-2.874,7.266,-3.16,7.266C-3.42,7.266,-3.864,7.038,-4.489,6.582C-5.114,6.127,-5.426,5.73,-5.426,5.391C-5.426,5.105,-5.257,4.753,-4.918,4.336C-4.319,3.607,-3.408,2.539,-2.184,1.133C-2.627,1.055,-4.006,0.729,-6.324,0.156C-6.975,0,-7.353,-0.209,-7.457,-0.469C-7.535,-0.703,-7.457,-1.211,-7.223,-1.992C-6.937,-2.877,-6.572,-3.32,-6.129,-3.32C-5.895,-3.32,-5.596,-3.255,-5.231,-3.125C-3.616,-2.474,-2.328,-1.914,-1.364,-1.445C-1.442,-2.278,-1.559,-3.685,-1.715,-5.664C-1.768,-6.549,-1.546,-7.056,-1.051,-7.187C-0.817,-7.239,-0.452,-7.266,0.043,-7.266C1.24,-7.266,1.8,-6.732,1.722,-5.664C1.644,-3.945,1.54,-2.564,1.41,-1.523C2.451,-1.966,3.766,-2.5,5.355,-3.125C5.771,-3.281,6.084,-3.359,6.293,-3.359C6.709,-3.359,7.06,-2.903,7.347,-1.992Z" /></g></g><g transform="matrix(1,0,0,1,584.262,393.811)"><g><path fill="#ffffff" d="M7.347,-1.992C7.712,-0.82,7.361,-0.104,6.293,0.156C6.293,0.156,2.308,1.133,2.308,1.133C2.829,1.758,3.728,2.826,5.004,4.336C5.395,4.779,5.59,5.118,5.59,5.352C5.59,5.664,5.238,6.068,4.535,6.562C3.962,6.979,3.532,7.187,3.246,7.187C2.907,7.187,2.568,6.901,2.23,6.328C1.709,5.521,0.981,4.349,0.043,2.812C-0.4,3.49,-1.143,4.662,-2.184,6.328C-2.549,6.953,-2.874,7.266,-3.16,7.266C-3.42,7.266,-3.864,7.038,-4.489,6.582C-5.114,6.127,-5.426,5.73,-5.426,5.391C-5.426,5.105,-5.257,4.753,-4.918,4.336C-4.319,3.607,-3.408,2.539,-2.184,1.133C-2.627,1.055,-4.006,0.729,-6.324,0.156C-6.975,0,-7.353,-0.209,-7.457,-0.469C-7.535,-0.703,-7.457,-1.211,-7.223,-1.992C-6.937,-2.877,-6.572,-3.32,-6.129,-3.32C-5.895,-3.32,-5.596,-3.255,-5.231,-3.125C-3.616,-2.474,-2.328,-1.914,-1.364,-1.445C-1.442,-2.278,-1.559,-3.685,-1.715,-5.664C-1.768,-6.549,-1.546,-7.056,-1.051,-7.187C-0.817,-7.239,-0.452,-7.266,0.043,-7.266C1.24,-7.266,1.8,-6.732,1.722,-5.664C1.644,-3.945,1.54,-2.564,1.41,-1.523C2.451,-1.966,3.766,-2.5,5.355,-3.125C5.771,-3.281,6.084,-3.359,6.293,-3.359C6.709,-3.359,7.06,-2.903,7.347,-1.992Z" /></g></g></g></g></g></g></g><g display="none" transform="matrix(1,0,0,1,0,0)" visibility="hidden"><animate repeatCount="indefinite" begin="0s" calcMode="discrete" dur="2.517s" values="hidden; visible; visible" keyTimes="0; 0.066009; 1" attributeName="visibility" /><g transform="matrix(1,0,0,1,551.564,436.192)"><rect height="303.746" width="174.719" y="-151.873" x="-87.359" fill="#ffffff" /></g></g><g transform="matrix(1,0,0,1,0,0)"><g transform="matrix(1,0,0,1,0,0)" visibility="hidden"><animate repeatCount="indefinite" begin="0s" calcMode="discrete" dur="2.517s" values="hidden; visible; visible" keyTimes="0; 0.066009; 1" attributeName="visibility" /><g transform="matrix(1,0,0,1,398.896,627.994)"><path fill="#fbdec8" d="M141.098,-188.145C141.088,-188.196,141.058,-188.241,141.048,-188.287C140.824,-189.016,140.548,-189.719,140.181,-190.382C140.099,-190.55,139.967,-190.688,139.865,-190.851C139.539,-191.376,139.213,-191.901,138.805,-192.375C138.56,-192.65,138.254,-192.874,137.989,-193.129C137.653,-193.44,137.347,-193.777,136.98,-194.052C136.511,-194.399,135.971,-194.669,135.441,-194.949C135.196,-195.076,134.982,-195.245,134.727,-195.357C133.912,-195.724,133.035,-196.014,132.097,-196.218C132.097,-196.218,116.593,-199.587,116.593,-199.587C115.278,-199.872,113.8,-200.235,112.26,-200.627C112.036,-200.683,111.812,-200.738,111.588,-200.8C110.008,-201.208,108.367,-201.652,106.685,-202.131C106.685,-202.131,106.685,-202.12,106.685,-202.12C100.681,-203.822,94.279,-205.882,89.784,-207.62C89.784,-207.62,65.532,-216.972,57.5,-212.803C28.835,-197.915,-22.377,-143.343,-22.377,-143.343C-27.668,-137.721,-33.794,-127.06,-35.996,-119.664C-35.996,-119.664,-78.106,21.641,-78.106,21.641C-78.106,21.641,-141.531,132.941,-141.531,132.941C-141.531,132.941,-32.653,213.874,-32.653,213.874C-25.844,202.997,-19.585,193.201,-15.232,186.876C-3.132,169.307,45.085,132.1,58.489,121.927C59.764,121.203,60.966,120.357,61.985,119.282C61.985,119.282,68.795,112.13,75.625,64.006C92.006,-51.269,43.81,-96.004,43.81,-96.004C38.143,-101.259,36.624,-111.06,40.406,-117.788C40.406,-117.788,58.214,-149.388,58.214,-149.388C61.996,-156.115,71.375,-160.856,79.03,-159.923C79.03,-159.923,110.222,-156.126,124.177,-165.127C138.213,-174.189,140.609,-180.199,140.609,-180.199C140.65,-180.301,140.661,-180.397,140.691,-180.499C140.691,-180.499,140.701,-180.499,140.701,-180.499C140.731,-180.591,140.742,-180.678,140.772,-180.77C141.048,-181.565,141.271,-182.354,141.394,-183.134C141.394,-183.149,141.394,-183.16,141.394,-183.175C141.649,-184.903,141.547,-186.585,141.098,-188.145Z" /></g><g transform="matrix(1,0,0,1,518.311,432.223)"><g><path fill="#e8bea1" d="M-7.58,3.969C-0.49,6.242,13.429,7.114,13.429,7.114C13.429,7.114,18.868,8.656,12.803,-0.409C12.76,-0.417,12.726,-0.437,12.683,-0.447C12.683,-0.447,-2.822,-3.816,-2.822,-3.816C-4.137,-4.101,-5.614,-4.464,-7.154,-4.856C-7.378,-4.912,-7.603,-4.968,-7.827,-5.03C-9.407,-5.438,-11.048,-5.881,-12.73,-6.36C-12.73,-6.36,-12.73,-6.349,-12.73,-6.349C-13.701,-6.624,-14.687,-6.92,-15.671,-7.213C-14.516,-3.235,-12.106,2.516,-7.58,3.969Z" /></g></g></g></g><g transform="matrix(1,0,0,1,0,0)" visibility="hidden"><animate repeatCount="indefinite" begin="0s" calcMode="discrete" dur="2.517s" values="hidden; visible; visible" keyTimes="0; 0.066009; 1" attributeName="visibility" /><g transform="matrix(1,0,0,1,337.275,765.415)"><path fill="#798af8" d="M96.131,17.492C96.131,17.492,42.854,87.811,42.854,87.811C42.854,87.811,-96.131,-17.492,-96.131,-17.492C-96.131,-17.492,-42.854,-87.811,-42.854,-87.811C-42.854,-87.811,96.131,17.492,96.131,17.492Z" /></g></g></g></g></g></g><g opacity="0" visibility="hidden" id="i15"><animate repeatCount="indefinite" begin="0s" calcMode="discrete" dur="2.517s" values="hidden; visible; visible" keyTimes="0; 0.066009; 1" attributeName="visibility" /><animate repeatCount="indefinite" attributeName="opacity" dur="2.517s" begin="0s" fill="freeze" values="0; 0; 1; 1" keyTimes="0; 0.066225; 0.331126; 1" keySplines="0 0 1 1; 0.333 0 0 1; 0 0 1 1" calcMode="spline" /><g transform="translate(500,500)"><animateTransform repeatCount="indefinite" type="translate" attributeName="transform" dur="2.517s" begin="0s" calcMode="spline" values="500 500; 500 500; 135.906 588.065; 135.906 588.065" keyTimes="0; 0.066225; 0.331126; 1" keySplines="0 0 1 1; 0.333 0 0 1; 0 0 1 1" fill="freeze" /><g transform="scale(1,1) translate(-135.906,-588.065)"><g id="i15" transform="matrix(1,0,0,1,0,0)"><g id="i15" transform="matrix(1,0,0,1,135.906,588.065)"><ellipse ry="16.996" rx="16.996" cy="0" cx="0" fill="#798af8" /></g></g></g></g></g><g opacity="0" visibility="hidden" id="i9"><animate repeatCount="indefinite" begin="0s" calcMode="discrete" dur="2.517s" values="hidden; visible; visible" keyTimes="0; 0.066009; 1" attributeName="visibility" /><animate repeatCount="indefinite" attributeName="opacity" dur="2.517s" begin="0s" fill="freeze" values="0; 0; 1; 1" keyTimes="0; 0.066225; 0.331126; 1" keySplines="0 0 1 1; 0.333 0 0 1; 0 0 1 1" calcMode="spline" /><g transform="translate(500,500)"><animateTransform repeatCount="indefinite" type="translate" attributeName="transform" dur="2.517s" begin="0s" calcMode="spline" values="500 500; 500 500; 847.942 674.712; 847.942 674.712" keyTimes="0; 0.066225; 0.331126; 1" keySplines="0 0 1 1; 0.333 0 0 1; 0 0 1 1" fill="freeze" /><g transform="scale(1,1) translate(-847.942,-674.712)"><g id="i9" transform="matrix(1,0,0,1,0,0)"><g id="i9" transform="matrix(1,0,0,1,847.942,674.712)"><ellipse ry="19.497" rx="19.497" cy="0" cx="0" stroke-miterlimit="10" stroke-width="8" stroke="#798af8" /></g></g></g></g></g><g opacity="0" visibility="hidden" id="i11"><animate repeatCount="indefinite" begin="0s" calcMode="discrete" dur="2.517s" values="hidden; visible; visible" keyTimes="0; 0.066009; 1" attributeName="visibility" /><animate repeatCount="indefinite" attributeName="opacity" dur="2.517s" begin="0s" fill="freeze" values="0; 0; 1; 1" keyTimes="0; 0.066225; 0.331126; 1" keySplines="0 0 1 1; 0.333 0 0 1; 0 0 1 1" calcMode="spline" /><g transform="translate(500,500)"><animateTransform repeatCount="indefinite" type="translate" attributeName="transform" dur="2.517s" begin="0s" calcMode="spline" values="500 500; 500 500; 281.218 432.223; 281.218 432.223" keyTimes="0; 0.066225; 0.331126; 1" keySplines="0 0 1 1; 0.333 0 0 1; 0 0 1 1" fill="freeze" /><g transform="scale(1,1) translate(-281.218,-432.223)"><g id="i11" transform="matrix(1,0,0,1,0,0)"><g id="i11" transform="matrix(1,0,0,1,281.218,432.223)"><path fill="#a5aedb" d="M5.552,6.447C5.552,6.447,1.214,22.917,1.214,22.917C0.885,24.165,-0.885,24.165,-1.214,22.917C-1.214,22.917,-5.552,6.447,-5.552,6.447C-5.667,6.009,-6.009,5.667,-6.447,5.552C-6.447,5.552,-22.917,1.214,-22.917,1.214C-24.165,0.885,-24.165,-0.885,-22.917,-1.214C-22.917,-1.214,-6.447,-5.552,-6.447,-5.552C-6.009,-5.667,-5.667,-6.009,-5.552,-6.447C-5.552,-6.447,-1.214,-22.917,-1.214,-22.917C-0.885,-24.165,0.885,-24.165,1.214,-22.917C1.214,-22.917,5.552,-6.447,5.552,-6.447C5.667,-6.009,6.009,-5.667,6.447,-5.552C6.447,-5.552,22.917,-1.214,22.917,-1.214C24.165,-0.885,24.165,0.885,22.917,1.214C22.917,1.214,6.447,5.552,6.447,5.552C6.009,5.667,5.667,6.009,5.552,6.447Z" /></g></g></g></g></g><g opacity="0" visibility="hidden" id="i5"><animate repeatCount="indefinite" begin="0s" calcMode="discrete" dur="2.517s" values="hidden; visible; visible" keyTimes="0; 0.066009; 1" attributeName="visibility" /><animate repeatCount="indefinite" attributeName="opacity" dur="2.517s" begin="0s" fill="freeze" values="0; 0; 1; 1" keyTimes="0; 0.066225; 0.331126; 1" keySplines="0 0 1 1; 0.333 0 0 1; 0 0 1 1" calcMode="spline" /><g transform="translate(500,500)"><animateTransform repeatCount="indefinite" type="translate" attributeName="transform" dur="2.517s" begin="0s" calcMode="spline" values="500 500; 500 500; 786.83 203.199; 786.83 203.199" keyTimes="0; 0.066225; 0.331126; 1" keySplines="0 0 1 1; 0.333 0 0 1; 0 0 1 1" fill="freeze" /><g transform="scale(1,1) translate(-786.83,-203.199)"><g id="i5" transform="matrix(1,0,0,1,0,0)"><g id="i5" transform="matrix(1,0,0,1,786.83,203.199)"><path fill="#798af8" d="M9.687,11.247C9.687,11.247,2.118,39.982,2.118,39.982C1.545,42.159,-1.545,42.159,-2.118,39.982C-2.118,39.982,-9.687,11.247,-9.687,11.247C-9.888,10.484,-10.484,9.888,-11.247,9.687C-11.247,9.687,-39.982,2.118,-39.982,2.118C-42.159,1.545,-42.159,-1.545,-39.982,-2.118C-39.982,-2.118,-11.247,-9.687,-11.247,-9.687C-10.484,-9.888,-9.888,-10.484,-9.687,-11.247C-9.687,-11.247,-2.118,-39.982,-2.118,-39.982C-1.545,-42.159,1.545,-42.159,2.118,-39.982C2.118,-39.982,9.687,-11.247,9.687,-11.247C9.888,-10.484,10.484,-9.888,11.247,-9.687C11.247,-9.687,39.982,-2.118,39.982,-2.118C42.159,-1.545,42.159,1.545,39.982,2.118C39.982,2.118,11.247,9.687,11.247,9.687C10.484,9.888,9.888,10.484,9.687,11.247Z" /></g></g></g></g></g><g opacity="0" visibility="hidden" id="i7"><animate repeatCount="indefinite" begin="0s" calcMode="discrete" dur="2.517s" values="hidden; visible; visible" keyTimes="0; 0.066009; 1" attributeName="visibility" /><animate repeatCount="indefinite" attributeName="opacity" dur="2.517s" begin="0s" fill="freeze" values="0; 0; 1; 1" keyTimes="0; 0.066225; 0.331126; 1" keySplines="0 0 1 1; 0.333 0 0 1; 0 0 1 1" calcMode="spline" /><g transform="translate(500,500)"><animateTransform repeatCount="indefinite" type="translate" attributeName="transform" dur="2.517s" begin="0s" calcMode="spline" values="500 500; 500 500; 323.11 154.026; 323.11 154.026" keyTimes="0; 0.066225; 0.331126; 1" keySplines="0 0 1 1; 0.333 0 0 1; 0 0 1 1" fill="freeze" /><g transform="scale(1,1) translate(-323.11,-154.026)"><g id="i7" transform="matrix(1,0,0,1,0,0)"><g id="i7" transform="matrix(1,0,0,1,323.11,154.026)"><ellipse ry="18.039" rx="18.039" cy="0" cx="0" fill="#e7ecf4" /></g></g></g></g></g></svg>